<?xml version="1.0" encoding="UTF-8" standalone="no"?><svg xmlns="http://www.w3.org/2000/svg" xmlns:xlink="http://www.w3.org/1999/xlink" contentScriptType="application/ecmascript" contentStyleType="text/css" height="607px" preserveAspectRatio="none" style="width:469px;height:607px;" version="1.1" viewBox="0 0 469 607" width="469px" zoomAndPan="magnify"><defs/><g><!--MD5=[d13f1e1e31e6d92960bc835d1aca928f]
cluster Application Container--><rect fill="#FFFFFF" height="415" style="stroke: #000000; stroke-width: 1.5;" width="436" x="22" y="91"/><rect fill="#FFFFFF" height="10" style="stroke: #000000; stroke-width: 1.5;" width="15" x="438" y="96"/><rect fill="#FFFFFF" height="2" style="stroke: #000000; stroke-width: 1.5;" width="4" x="436" y="98"/><rect fill="#FFFFFF" height="2" style="stroke: #000000; stroke-width: 1.5;" width="4" x="436" y="102"/><text fill="#000000" font-family="sans-serif" font-size="14" font-weight="bold" lengthAdjust="spacingAndGlyphs" textLength="157" x="161.5" y="117.5352">Application Container</text><!--MD5=[aceb11c800cfa05c68bb0c55d895e1a0]
cluster Route Handlers--><polygon fill="#FFFFFF" points="46,197,163,197,170,219.4883,434,219.4883,434,294,46,294,46,197" style="stroke: #000000; stroke-width: 1.5;"/><line style="stroke: #000000; stroke-width: 1.5;" x1="46" x2="170" y1="219.4883" y2="219.4883"/><text fill="#000000" font-family="sans-serif" font-size="14" font-weight="bold" lengthAdjust="spacingAndGlyphs" textLength="111" x="50" y="212.5352">Route Handlers</text><!--MD5=[b1435b213846e3ddcd1e6c1cd6b83b9a]
entity Server--><rect fill="#F8F8F8" height="46.4883" style="stroke: #383838; stroke-width: 1.5;" width="83" x="192.5" y="126"/><rect fill="#F8F8F8" height="10" style="stroke: #383838; stroke-width: 1.5;" width="15" x="255.5" y="131"/><rect fill="#F8F8F8" height="2" style="stroke: #383838; stroke-width: 1.5;" width="4" x="253.5" y="133"/><rect fill="#F8F8F8" height="2" style="stroke: #383838; stroke-width: 1.5;" width="4" x="253.5" y="137"/><text fill="#000000" font-family="sans-serif" font-size="14" lengthAdjust="spacingAndGlyphs" textLength="43" x="207.5" y="159.5352">Server</text><!--MD5=[cdedce261f68699af632c72f792324a6]
entity Loaders--><rect fill="#F8F8F8" height="46.4883" style="stroke: #383838; stroke-width: 1.5;" width="94" x="72" y="338"/><rect fill="#F8F8F8" height="10" style="stroke: #383838; stroke-width: 1.5;" width="15" x="146" y="343"/><rect fill="#F8F8F8" height="2" style="stroke: #383838; stroke-width: 1.5;" width="4" x="144" y="345"/><rect fill="#F8F8F8" height="2" style="stroke: #383838; stroke-width: 1.5;" width="4" x="144" y="349"/><text fill="#000000" font-family="sans-serif" font-size="14" lengthAdjust="spacingAndGlyphs" textLength="54" x="87" y="371.5352">Loaders</text><!--MD5=[ceea7179d5a27597651296ae6b93fd2c]
entity GitDAL--><rect fill="#F8F8F8" height="46.4883" style="stroke: #383838; stroke-width: 1.5;" width="90" x="199" y="444"/><rect fill="#F8F8F8" height="10" style="stroke: #383838; stroke-width: 1.5;" width="15" x="269" y="449"/><rect fill="#F8F8F8" height="2" style="stroke: #383838; stroke-width: 1.5;" width="4" x="267" y="451"/><rect fill="#F8F8F8" height="2" style="stroke: #383838; stroke-width: 1.5;" width="4" x="267" y="455"/><text fill="#000000" font-family="sans-serif" font-size="14" lengthAdjust="spacingAndGlyphs" textLength="50" x="214" y="477.5352">Git DAL</text><!--MD5=[f1cf9dfceaf9784e4845d848c83fe3a2]
entity GitUpload--><rect fill="#F8F8F8" height="46.4883" style="stroke: #383838; stroke-width: 1.5;" width="112" x="306" y="232"/><rect fill="#F8F8F8" height="10" style="stroke: #383838; stroke-width: 1.5;" width="15" x="398" y="237"/><rect fill="#F8F8F8" height="2" style="stroke: #383838; stroke-width: 1.5;" width="4" x="396" y="239"/><rect fill="#F8F8F8" height="2" style="stroke: #383838; stroke-width: 1.5;" width="4" x="396" y="243"/><text fill="#000000" font-family="sans-serif" font-size="14" lengthAdjust="spacingAndGlyphs" textLength="72" x="321" y="265.5352">Git Upload</text><!--MD5=[bd5f618b12816bd4b75416c1e6e531a6]
entity REST--><rect fill="#F8F8F8" height="46.4883" style="stroke: #383838; stroke-width: 1.5;" width="74" x="197" y="232"/><rect fill="#F8F8F8" height="10" style="stroke: #383838; stroke-width: 1.5;" width="15" x="251" y="237"/><rect fill="#F8F8F8" height="2" style="stroke: #383838; stroke-width: 1.5;" width="4" x="249" y="239"/><rect fill="#F8F8F8" height="2" style="stroke: #383838; stroke-width: 1.5;" width="4" x="249" y="243"/><text fill="#000000" font-family="sans-serif" font-size="14" lengthAdjust="spacingAndGlyphs" textLength="34" x="212" y="265.5352">REST</text><!--MD5=[d60bd75c1ec67d2a1febbb865c863456]
entity GraphQL--><rect fill="#F8F8F8" height="46.4883" style="stroke: #383838; stroke-width: 1.5;" width="100" x="62" y="232"/><rect fill="#F8F8F8" height="10" style="stroke: #383838; stroke-width: 1.5;" width="15" x="142" y="237"/><rect fill="#F8F8F8" height="2" style="stroke: #383838; stroke-width: 1.5;" width="4" x="140" y="239"/><rect fill="#F8F8F8" height="2" style="stroke: #383838; stroke-width: 1.5;" width="4" x="140" y="243"/><text fill="#000000" font-family="sans-serif" font-size="14" lengthAdjust="spacingAndGlyphs" textLength="60" x="77" y="265.5352">GraphQL</text><!--MD5=[79002d0045b3e84f23d2b19d8a5cfda2]
entity GitRepos--><path d="M252,560 C252,550 316,550 316,550 C316,550 380,550 380,560 L380,585.4883 C380,595.4883 316,595.4883 316,595.4883 C316,595.4883 252,595.4883 252,585.4883 L252,560 " fill="#F8F8F8" style="stroke: #000000; stroke-width: 1.5;"/><path d="M252,560 C252,570 316,570 316,570 C316,570 380,570 380,560 " fill="none" style="stroke: #000000; stroke-width: 1.5;"/><text fill="#000000" font-family="sans-serif" font-size="14" lengthAdjust="spacingAndGlyphs" textLength="108" x="262" y="587.5352">Git Repositories</text><!--MD5=[7fbd20eab0f047d95d8cf961cd333b40]
entity Postgres--><path d="M59,560 C59,550 119,550 119,550 C119,550 179,550 179,560 L179,585.4883 C179,595.4883 119,595.4883 119,595.4883 C119,595.4883 59,595.4883 59,585.4883 L59,560 " fill="#F8F8F8" style="stroke: #000000; stroke-width: 1.5;"/><path d="M59,560 C59,570 119,570 119,570 C119,570 179,570 179,560 " fill="none" style="stroke: #000000; stroke-width: 1.5;"/><text fill="#000000" font-family="sans-serif" font-size="14" lengthAdjust="spacingAndGlyphs" textLength="100" x="69" y="587.5352">PostgreSQL DB</text><!--MD5=[96f7e1299d4a43069e6ed32352fcac20]
entity HTTP--><ellipse cx="234" cy="37" fill="#F8F8F8" rx="8" ry="8" style="stroke: #383838; stroke-width: 2.0;"/><text fill="#000000" font-family="sans-serif" font-size="14" lengthAdjust="spacingAndGlyphs" textLength="102" x="183" y="67.5352">HTTP Endpoint</text><!--MD5=[d16e6fd15e78d5becbd82ad95170f93b]
link HTTP to Server--><path d="M234,46.27 C234,62.96 234,101.16 234,125.71 " fill="none" id="HTTP-Server" style="stroke: #383838; stroke-width: 1.0;"/><!--MD5=[3546377f158260f7fd2717d6854ddd20]
link REST to GraphQL--><path d="M196.9,255 C187,255 177.11,255 167.21,255 " fill="none" id="REST-&gt;GraphQL" style="stroke: #383838; stroke-width: 1.0; stroke-dasharray: 7.0,7.0;"/><polygon fill="#383838" points="162.04,255,171.04,259,167.04,255,171.04,251,162.04,255" style="stroke: #383838; stroke-width: 1.0;"/><!--MD5=[ef35c2d73cbadcdf1bd7e82d06533dbb]
link Server to GitUpload--><path d="M266.43,172.1 C273.96,177.47 281.86,183.31 289,189 C304.66,201.46 321.38,216.23 334.86,228.54 " fill="none" id="Server-&gt;GitUpload" style="stroke: #383838; stroke-width: 1.0; stroke-dasharray: 7.0,7.0;"/><polygon fill="#383838" points="338.57,231.94,334.629,222.914,334.8807,228.5653,329.2294,228.8169,338.57,231.94" style="stroke: #383838; stroke-width: 1.0;"/><!--MD5=[dd57391b8a57d0a96120bd3fb1320588]
link GitUpload to GitRepos--><path d="M360.81,278.29 C358.14,323.25 350.44,427.85 333,514 C330.92,524.25 327.86,535.32 324.9,544.97 " fill="none" id="GitUpload-&gt;GitRepos" style="stroke: #383838; stroke-width: 1.0; stroke-dasharray: 7.0,7.0;"/><polygon fill="#383838" points="323.37,549.88,329.8648,542.4761,324.8565,545.1061,322.2265,540.0977,323.37,549.88" style="stroke: #383838; stroke-width: 1.0;"/><!--MD5=[eebaec6d84ac219258597daa1fec0a5a]
link Server to GraphQL--><path d="M201.76,172.18 C194.46,177.51 186.84,183.3 180,189 C165.33,201.21 149.87,215.83 137.41,228.1 " fill="none" id="Server-&gt;GraphQL" style="stroke: #383838; stroke-width: 1.0; stroke-dasharray: 7.0,7.0;"/><polygon fill="#383838" points="133.65,231.83,142.8636,228.3502,137.2069,228.316,137.2412,222.6592,133.65,231.83" style="stroke: #383838; stroke-width: 1.0;"/><!--MD5=[167d7fd71fa178f1ff297ae1cc05cfd8]
link Server to REST--><path d="M234,172.06 C234,188.05 234,209.78 234,226.84 " fill="none" id="Server-&gt;REST" style="stroke: #383838; stroke-width: 1.0; stroke-dasharray: 7.0,7.0;"/><polygon fill="#383838" points="234,231.98,238,222.98,234,226.98,230,222.98,234,231.98" style="stroke: #383838; stroke-width: 1.0;"/><!--MD5=[bfd0460f154169847c656c926602c5dd]
link GraphQL to Loaders--><path d="M113.48,278.06 C114.56,294.05 116.02,315.78 117.17,332.84 " fill="none" id="GraphQL-&gt;Loaders" style="stroke: #383838; stroke-width: 1.0; stroke-dasharray: 7.0,7.0;"/><polygon fill="#383838" points="117.52,337.98,120.9195,328.7364,117.1912,332.9908,112.9368,329.2625,117.52,337.98" style="stroke: #383838; stroke-width: 1.0;"/><!--MD5=[0bf86c6b076a28174495b44a0030ab17]
link Loaders to Postgres--><path d="M119,384.02 C119,422.71 119,502.73 119,544.61 " fill="none" id="Loaders-&gt;Postgres" style="stroke: #383838; stroke-width: 1.0; stroke-dasharray: 7.0,7.0;"/><polygon fill="#383838" points="119,549.77,123,540.77,119,544.77,115,540.77,119,549.77" style="stroke: #383838; stroke-width: 1.0;"/><!--MD5=[1067541d9e3ecc0742dbb5966fc7a521]
link Loaders to GitDAL--><path d="M145.51,384.06 C165.4,400.6 192.66,423.28 213.46,440.59 " fill="none" id="Loaders-&gt;GitDAL" style="stroke: #383838; stroke-width: 1.0; stroke-dasharray: 7.0,7.0;"/><polygon fill="#383838" points="217.53,443.98,213.1541,435.1567,213.6807,440.7889,208.0484,441.3155,217.53,443.98" style="stroke: #383838; stroke-width: 1.0;"/><!--MD5=[1a40fe4d7d9a3071dc79299ca0581df9]
link GitDAL to GitRepos--><path d="M259.45,490.2 C270.72,506.41 286.04,528.44 297.89,545.47 " fill="none" id="GitDAL-&gt;GitRepos" style="stroke: #383838; stroke-width: 1.0; stroke-dasharray: 7.0,7.0;"/><polygon fill="#383838" points="300.83,549.69,298.9819,540.0161,297.978,545.5832,292.411,544.5793,300.83,549.69" style="stroke: #383838; stroke-width: 1.0;"/><!--MD5=[c1385c956346249bc7dd2ec0d9c6c82e]
@startuml components
skinparam monochrome true
skinparam shadowing false
skinparam backgroundColor transparent
skinparam classBackgroundColor transparent
skinparam style strictuml

database "Git Repositories" as GitRepos
database "PostgreSQL DB" as Postgres

() "HTTP Endpoint" as HTTP

component "Application Container" {
  component Server
  HTTP - - Server
  package "Route Handlers" {
    component "Git Upload" as GitUpload
    component "REST" as REST
    component "GraphQL" as GraphQL
    GraphQL <.left. REST
  }
  component Loaders
  component "Git DAL" as GitDAL

  Server .down.> GitUpload
  GitUpload .right.> GitRepos
  Server .down.> GraphQL
  Server .down.> REST
  GraphQL .down.> Loaders
  Loaders .down..> Postgres
  Loaders .down.> GitDAL
  GitDAL ..> GitRepos
}

@enduml

PlantUML version 1.2019.13(Tue Dec 10 18:18:29 CET 2019)
(GPL source distribution)
Java Runtime: Java(TM) SE Runtime Environment
JVM: Java HotSpot(TM) 64-Bit Server VM
Java Version: 13.0.1+9
Operating System: Mac OS X
Default Encoding: ISO8859-1
Language: en
Country: US
--></g></svg>