<?xml version="1.0" encoding="UTF-8" standalone="no"?><svg xmlns="http://www.w3.org/2000/svg" xmlns:xlink="http://www.w3.org/1999/xlink" contentScriptType="application/ecmascript" contentStyleType="text/css" height="567px" preserveAspectRatio="none" style="width:409px;height:567px;" version="1.1" viewBox="0 0 409 567" width="409px" zoomAndPan="magnify"><defs/><g><!--MD5=[d13f1e1e31e6d92960bc835d1aca928f]
cluster Application Container--><rect fill="#FFFFFF" height="375" style="stroke: #000000; stroke-width: 1.5;" width="376" x="22" y="91"/><rect fill="#FFFFFF" height="10" style="stroke: #000000; stroke-width: 1.5;" width="15" x="378" y="96"/><rect fill="#FFFFFF" height="2" style="stroke: #000000; stroke-width: 1.5;" width="4" x="376" y="98"/><rect fill="#FFFFFF" height="2" style="stroke: #000000; stroke-width: 1.5;" width="4" x="376" y="102"/><text fill="#000000" font-family="sans-serif" font-size="14" font-weight="bold" lengthAdjust="spacingAndGlyphs" textLength="157" x="131.5" y="117.5352">Application Container</text><!--MD5=[a216f63574981a7e4cf6939ecabe907e]
cluster Routes--><polygon fill="#FFFFFF" points="46,187,102,187,109,209.4883,374,209.4883,374,274,46,274,46,187" style="stroke: #000000; stroke-width: 1.5;"/><line style="stroke: #000000; stroke-width: 1.5;" x1="46" x2="109" y1="209.4883" y2="209.4883"/><text fill="#000000" font-family="sans-serif" font-size="14" font-weight="bold" lengthAdjust="spacingAndGlyphs" textLength="50" x="50" y="202.5352">Routes</text><!--MD5=[b1435b213846e3ddcd1e6c1cd6b83b9a]
entity Server--><rect fill="#F8F8F8" height="36.4883" style="stroke: #383838; stroke-width: 1.5;" width="63" x="172.5" y="126"/><rect fill="#F8F8F8" height="5" style="stroke: #383838; stroke-width: 1.5;" width="10" x="167.5" y="131"/><rect fill="#F8F8F8" height="5" style="stroke: #383838; stroke-width: 1.5;" width="10" x="167.5" y="152.4883"/><text fill="#000000" font-family="sans-serif" font-size="14" lengthAdjust="spacingAndGlyphs" textLength="43" x="182.5" y="149.5352">Server</text><!--MD5=[cdedce261f68699af632c72f792324a6]
entity Loaders--><rect fill="#F8F8F8" height="36.4883" style="stroke: #383838; stroke-width: 1.5;" width="74" x="133" y="318"/><rect fill="#F8F8F8" height="5" style="stroke: #383838; stroke-width: 1.5;" width="10" x="128" y="323"/><rect fill="#F8F8F8" height="5" style="stroke: #383838; stroke-width: 1.5;" width="10" x="128" y="344.4883"/><text fill="#000000" font-family="sans-serif" font-size="14" lengthAdjust="spacingAndGlyphs" textLength="54" x="143" y="341.5352">Loaders</text><!--MD5=[ceea7179d5a27597651296ae6b93fd2c]
entity GitDAL--><rect fill="#F8F8F8" height="36.4883" style="stroke: #383838; stroke-width: 1.5;" width="70" x="189" y="414"/><rect fill="#F8F8F8" height="5" style="stroke: #383838; stroke-width: 1.5;" width="10" x="184" y="419"/><rect fill="#F8F8F8" height="5" style="stroke: #383838; stroke-width: 1.5;" width="10" x="184" y="440.4883"/><text fill="#000000" font-family="sans-serif" font-size="14" lengthAdjust="spacingAndGlyphs" textLength="50" x="199" y="437.5352">Git DAL</text><!--MD5=[f1cf9dfceaf9784e4845d848c83fe3a2]
entity GitUpload--><rect fill="#F8F8F8" height="36.4883" style="stroke: #383838; stroke-width: 1.5;" width="92" x="266" y="222"/><rect fill="#F8F8F8" height="5" style="stroke: #383838; stroke-width: 1.5;" width="10" x="261" y="227"/><rect fill="#F8F8F8" height="5" style="stroke: #383838; stroke-width: 1.5;" width="10" x="261" y="248.4883"/><text fill="#000000" font-family="sans-serif" font-size="14" lengthAdjust="spacingAndGlyphs" textLength="72" x="276" y="245.5352">Git Upload</text><!--MD5=[bd5f618b12816bd4b75416c1e6e531a6]
entity REST--><rect fill="#F8F8F8" height="36.4883" style="stroke: #383838; stroke-width: 1.5;" width="54" x="177" y="222"/><rect fill="#F8F8F8" height="5" style="stroke: #383838; stroke-width: 1.5;" width="10" x="172" y="227"/><rect fill="#F8F8F8" height="5" style="stroke: #383838; stroke-width: 1.5;" width="10" x="172" y="248.4883"/><text fill="#000000" font-family="sans-serif" font-size="14" lengthAdjust="spacingAndGlyphs" textLength="34" x="187" y="245.5352">REST</text><!--MD5=[d60bd75c1ec67d2a1febbb865c863456]
entity GraphQL--><rect fill="#F8F8F8" height="36.4883" style="stroke: #383838; stroke-width: 1.5;" width="80" x="62" y="222"/><rect fill="#F8F8F8" height="5" style="stroke: #383838; stroke-width: 1.5;" width="10" x="57" y="227"/><rect fill="#F8F8F8" height="5" style="stroke: #383838; stroke-width: 1.5;" width="10" x="57" y="248.4883"/><text fill="#000000" font-family="sans-serif" font-size="14" lengthAdjust="spacingAndGlyphs" textLength="60" x="72" y="245.5352">GraphQL</text><!--MD5=[79002d0045b3e84f23d2b19d8a5cfda2]
entity GitRepos--><path d="M239,520 C239,510 303,510 303,510 C303,510 367,510 367,520 L367,545.4883 C367,555.4883 303,555.4883 303,555.4883 C303,555.4883 239,555.4883 239,545.4883 L239,520 " fill="#F8F8F8" style="stroke: #000000; stroke-width: 1.5;"/><path d="M239,520 C239,530 303,530 303,530 C303,530 367,530 367,520 " fill="none" style="stroke: #000000; stroke-width: 1.5;"/><text fill="#000000" font-family="sans-serif" font-size="14" lengthAdjust="spacingAndGlyphs" textLength="108" x="249" y="547.5352">Git Repositories</text><!--MD5=[7fbd20eab0f047d95d8cf961cd333b40]
entity Postgres--><path d="M76,520 C76,510 136,510 136,510 C136,510 196,510 196,520 L196,545.4883 C196,555.4883 136,555.4883 136,555.4883 C136,555.4883 76,555.4883 76,545.4883 L76,520 " fill="#F8F8F8" style="stroke: #000000; stroke-width: 1.5;"/><path d="M76,520 C76,530 136,530 136,530 C136,530 196,530 196,520 " fill="none" style="stroke: #000000; stroke-width: 1.5;"/><text fill="#000000" font-family="sans-serif" font-size="14" lengthAdjust="spacingAndGlyphs" textLength="100" x="86" y="547.5352">PostgreSQL DB</text><!--MD5=[96f7e1299d4a43069e6ed32352fcac20]
entity HTTP--><ellipse cx="204" cy="37" fill="#F8F8F8" rx="8" ry="8" style="stroke: #383838; stroke-width: 2.0;"/><text fill="#000000" font-family="sans-serif" font-size="14" lengthAdjust="spacingAndGlyphs" textLength="102" x="153" y="67.5352">HTTP Endpoint</text><!--MD5=[d16e6fd15e78d5becbd82ad95170f93b]
link HTTP to Server--><path d="M204,46.24 C204,63.35 204,103.06 204,125.93 " fill="none" id="HTTP-Server" style="stroke: #383838; stroke-width: 1.0;"/><!--MD5=[ef35c2d73cbadcdf1bd7e82d06533dbb]
link Server to GitUpload--><path d="M227.75,162.15 C234.73,167.4 242.28,173.3 249,179 C263.71,191.49 279.43,206.46 291.49,218.32 " fill="none" id="Server-&gt;GitUpload" style="stroke: #383838; stroke-width: 1.0; stroke-dasharray: 7.0,7.0;"/><polygon fill="#383838" points="295.11,221.9,291.5188,212.7292,291.5531,218.386,285.8964,218.4202,295.11,221.9" style="stroke: #383838; stroke-width: 1.0;"/><!--MD5=[dd57391b8a57d0a96120bd3fb1320588]
link GitUpload to GitRepos--><path d="M311.46,258.3 C309.95,307.03 305.66,445.7 303.83,504.56 " fill="none" id="GitUpload-&gt;GitRepos" style="stroke: #383838; stroke-width: 1.0; stroke-dasharray: 7.0,7.0;"/><polygon fill="#383838" points="303.68,509.66,307.9607,500.7901,303.8371,504.6625,299.9647,500.5388,303.68,509.66" style="stroke: #383838; stroke-width: 1.0;"/><!--MD5=[eebaec6d84ac219258597daa1fec0a5a]
link Server to GraphQL--><path d="M180.66,162.04 C173.83,167.28 166.47,173.21 160,179 C146.33,191.24 131.98,206.06 120.98,217.91 " fill="none" id="Server-&gt;GraphQL" style="stroke: #383838; stroke-width: 1.0; stroke-dasharray: 7.0,7.0;"/><polygon fill="#383838" points="117.38,221.8,126.43,217.9145,120.7773,218.1315,120.5604,212.4788,117.38,221.8" style="stroke: #383838; stroke-width: 1.0;"/><!--MD5=[167d7fd71fa178f1ff297ae1cc05cfd8]
link Server to REST--><path d="M204,162.24 C204,177.48 204,199.81 204,216.46 " fill="none" id="Server-&gt;REST" style="stroke: #383838; stroke-width: 1.0; stroke-dasharray: 7.0,7.0;"/><polygon fill="#383838" points="204,221.87,208,212.87,204,216.87,200,212.87,204,221.87" style="stroke: #383838; stroke-width: 1.0;"/><!--MD5=[acf47a16b42c58ec622fcc4a6fdfa73d]
link REST to Loaders--><path d="M197.76,258.24 C192.2,273.61 184.04,296.2 178,312.89 " fill="none" id="REST-&gt;Loaders" style="stroke: #383838; stroke-width: 1.0; stroke-dasharray: 7.0,7.0;"/><polygon fill="#383838" points="176.2,317.87,183.0227,310.7672,177.9007,313.1681,175.4997,308.0461,176.2,317.87" style="stroke: #383838; stroke-width: 1.0;"/><!--MD5=[bfd0460f154169847c656c926602c5dd]
link GraphQL to Loaders--><path d="M114.47,258.24 C125.78,273.88 142.49,296.98 154.63,313.75 " fill="none" id="GraphQL-&gt;Loaders" style="stroke: #383838; stroke-width: 1.0; stroke-dasharray: 7.0,7.0;"/><polygon fill="#383838" points="157.61,317.87,155.5696,308.2348,154.6768,313.8208,149.0909,312.9279,157.61,317.87" style="stroke: #383838; stroke-width: 1.0;"/><!--MD5=[0bf86c6b076a28174495b44a0030ab17]
link Loaders to Postgres--><path d="M166.98,354.26 C161.04,388.25 147.79,464.06 140.69,504.65 " fill="none" id="Loaders-&gt;Postgres" style="stroke: #383838; stroke-width: 1.0; stroke-dasharray: 7.0,7.0;"/><polygon fill="#383838" points="139.78,509.89,145.2629,501.7085,140.6367,504.9639,137.3812,500.3377,139.78,509.89" style="stroke: #383838; stroke-width: 1.0;"/><!--MD5=[1067541d9e3ecc0742dbb5966fc7a521]
link Loaders to GitDAL--><path d="M179.9,354.24 C188.81,369.74 201.93,392.59 211.55,409.32 " fill="none" id="Loaders-&gt;GitDAL" style="stroke: #383838; stroke-width: 1.0; stroke-dasharray: 7.0,7.0;"/><polygon fill="#383838" points="214.16,413.87,213.1608,404.072,211.6762,409.5305,206.2177,408.046,214.16,413.87" style="stroke: #383838; stroke-width: 1.0;"/><!--MD5=[1a40fe4d7d9a3071dc79299ca0581df9]
link GitDAL to GitRepos--><path d="M237.76,450.16 C249.99,465.4 268.04,487.91 282.06,505.39 " fill="none" id="GitDAL-&gt;GitRepos" style="stroke: #383838; stroke-width: 1.0; stroke-dasharray: 7.0,7.0;"/><polygon fill="#383838" points="285.53,509.72,283.0185,500.1968,282.4013,505.8198,276.7782,505.2027,285.53,509.72" style="stroke: #383838; stroke-width: 1.0;"/><!--MD5=[8c174cbe950b5adcb37bbca1b6f3f445]
@startuml components
skinparam monochrome true
skinparam shadowing false
skinparam backgroundColor transparent
skinparam classBackgroundColor transparent


database "Git Repositories" as GitRepos
database "PostgreSQL DB" as Postgres

() "HTTP Endpoint" as HTTP

component "Application Container" {
  component Server
  HTTP - - Server
  package "Routes" {
    component "Git Upload" as GitUpload
    component "REST" as REST
    component "GraphQL" as GraphQL
  }
  component Loaders
  component "Git DAL" as GitDAL

  Server .down.> GitUpload
  GitUpload .right.> GitRepos
  Server .down.> GraphQL
  Server .down.> REST
  REST .down.> Loaders
  GraphQL .down.> Loaders
  Loaders .down..> Postgres
  Loaders .down.> GitDAL
  GitDAL ..> GitRepos
}

@enduml

PlantUML version 1.2019.13(Tue Dec 10 18:18:29 CET 2019)
(GPL source distribution)
Java Runtime: Java(TM) SE Runtime Environment
JVM: Java HotSpot(TM) 64-Bit Server VM
Java Version: 13.0.1+9
Operating System: Mac OS X
Default Encoding: ISO8859-1
Language: en
Country: US
--></g></svg>