<?xml version="1.0" encoding="UTF-8" standalone="no"?><svg xmlns="http://www.w3.org/2000/svg" xmlns:xlink="http://www.w3.org/1999/xlink" contentScriptType="application/ecmascript" contentStyleType="text/css" height="458px" preserveAspectRatio="none" style="width:390px;height:458px;" version="1.1" viewBox="0 0 390 458" width="390px" zoomAndPan="magnify"><defs><filter height="300%" id="f1pi9knqwwwgar" width="300%" x="-1" y="-1"><feGaussianBlur result="blurOut" stdDeviation="2.0"/><feColorMatrix in="blurOut" result="blurOut2" type="matrix" values="0 0 0 0 0 0 0 0 0 0 0 0 0 0 0 0 0 0 .4 0"/><feOffset dx="4.0" dy="4.0" in="blurOut2" result="blurOut3"/><feBlend in="SourceGraphic" in2="blurOut3" mode="normal"/></filter></defs><g><!--MD5=[a216f63574981a7e4cf6939ecabe907e]
cluster Routes--><polygon fill="#FFFFFF" filter="url(#f1pi9knqwwwgar)" points="40,69,96,69,103,91.4883,368,91.4883,368,156,40,156,40,69" style="stroke: #000000; stroke-width: 1.5;"/><line style="stroke: #000000; stroke-width: 1.5;" x1="40" x2="103" y1="91.4883" y2="91.4883"/><text fill="#000000" font-family="sans-serif" font-size="14" font-weight="bold" lengthAdjust="spacingAndGlyphs" textLength="50" x="44" y="84.5352">Routes</text><!--MD5=[bd5f618b12816bd4b75416c1e6e531a6]
entity REST--><rect fill="#FEFECE" filter="url(#f1pi9knqwwwgar)" height="36.4883" style="stroke: #A80036; stroke-width: 1.5;" width="54" x="171" y="104"/><rect fill="#FEFECE" height="5" style="stroke: #A80036; stroke-width: 1.5;" width="10" x="166" y="109"/><rect fill="#FEFECE" height="5" style="stroke: #A80036; stroke-width: 1.5;" width="10" x="166" y="130.4883"/><text fill="#000000" font-family="sans-serif" font-size="14" lengthAdjust="spacingAndGlyphs" textLength="34" x="181" y="127.5352">REST</text><!--MD5=[d60bd75c1ec67d2a1febbb865c863456]
entity GraphQL--><rect fill="#FEFECE" filter="url(#f1pi9knqwwwgar)" height="36.4883" style="stroke: #A80036; stroke-width: 1.5;" width="80" x="56" y="104"/><rect fill="#FEFECE" height="5" style="stroke: #A80036; stroke-width: 1.5;" width="10" x="51" y="109"/><rect fill="#FEFECE" height="5" style="stroke: #A80036; stroke-width: 1.5;" width="10" x="51" y="130.4883"/><text fill="#000000" font-family="sans-serif" font-size="14" lengthAdjust="spacingAndGlyphs" textLength="60" x="66" y="127.5352">GraphQL</text><!--MD5=[f1cf9dfceaf9784e4845d848c83fe3a2]
entity GitUpload--><rect fill="#FEFECE" filter="url(#f1pi9knqwwwgar)" height="36.4883" style="stroke: #A80036; stroke-width: 1.5;" width="92" x="260" y="104"/><rect fill="#FEFECE" height="5" style="stroke: #A80036; stroke-width: 1.5;" width="10" x="255" y="109"/><rect fill="#FEFECE" height="5" style="stroke: #A80036; stroke-width: 1.5;" width="10" x="255" y="130.4883"/><text fill="#000000" font-family="sans-serif" font-size="14" lengthAdjust="spacingAndGlyphs" textLength="72" x="270" y="127.5352">Git Upload</text><!--MD5=[b1435b213846e3ddcd1e6c1cd6b83b9a]
entity Server--><rect fill="#FEFECE" filter="url(#f1pi9knqwwwgar)" height="36.4883" style="stroke: #A80036; stroke-width: 1.5;" width="63" x="166.5" y="8"/><rect fill="#FEFECE" height="5" style="stroke: #A80036; stroke-width: 1.5;" width="10" x="161.5" y="13"/><rect fill="#FEFECE" height="5" style="stroke: #A80036; stroke-width: 1.5;" width="10" x="161.5" y="34.4883"/><text fill="#000000" font-family="sans-serif" font-size="14" lengthAdjust="spacingAndGlyphs" textLength="43" x="176.5" y="31.5352">Server</text><!--MD5=[cdedce261f68699af632c72f792324a6]
entity Loaders--><rect fill="#FEFECE" filter="url(#f1pi9knqwwwgar)" height="36.4883" style="stroke: #A80036; stroke-width: 1.5;" width="74" x="161" y="204.5"/><rect fill="#FEFECE" height="5" style="stroke: #A80036; stroke-width: 1.5;" width="10" x="156" y="209.5"/><rect fill="#FEFECE" height="5" style="stroke: #A80036; stroke-width: 1.5;" width="10" x="156" y="230.9883"/><text fill="#000000" font-family="sans-serif" font-size="14" lengthAdjust="spacingAndGlyphs" textLength="54" x="171" y="228.0352">Loaders</text><!--MD5=[ceea7179d5a27597651296ae6b93fd2c]
entity GitDAL--><rect fill="#FEFECE" filter="url(#f1pi9knqwwwgar)" height="36.4883" style="stroke: #A80036; stroke-width: 1.5;" width="70" x="173" y="305"/><rect fill="#FEFECE" height="5" style="stroke: #A80036; stroke-width: 1.5;" width="10" x="168" y="310"/><rect fill="#FEFECE" height="5" style="stroke: #A80036; stroke-width: 1.5;" width="10" x="168" y="331.4883"/><text fill="#000000" font-family="sans-serif" font-size="14" lengthAdjust="spacingAndGlyphs" textLength="50" x="183" y="328.5352">Git DAL</text><!--MD5=[79002d0045b3e84f23d2b19d8a5cfda2]
entity GitRepos--><path d="M188,411 C188,401 252,401 252,401 C252,401 316,401 316,411 L316,436.4883 C316,446.4883 252,446.4883 252,446.4883 C252,446.4883 188,446.4883 188,436.4883 L188,411 " fill="#FEFECE" filter="url(#f1pi9knqwwwgar)" style="stroke: #000000; stroke-width: 1.5;"/><path d="M188,411 C188,421 252,421 252,421 C252,421 316,421 316,411 " fill="none" style="stroke: #000000; stroke-width: 1.5;"/><text fill="#000000" font-family="sans-serif" font-size="14" lengthAdjust="spacingAndGlyphs" textLength="108" x="198" y="438.5352">Git Repositories</text><!--MD5=[7fbd20eab0f047d95d8cf961cd333b40]
entity Postgres--><path d="M6,210 C6,200 66,200 66,200 C66,200 126,200 126,210 L126,235.4883 C126,245.4883 66,245.4883 66,245.4883 C66,245.4883 6,245.4883 6,235.4883 L6,210 " fill="#FEFECE" filter="url(#f1pi9knqwwwgar)" style="stroke: #000000; stroke-width: 1.5;"/><path d="M6,210 C6,220 66,220 66,220 C66,220 126,220 126,210 " fill="none" style="stroke: #000000; stroke-width: 1.5;"/><text fill="#000000" font-family="sans-serif" font-size="14" lengthAdjust="spacingAndGlyphs" textLength="100" x="16" y="237.5352">PostgreSQL DB</text><!--MD5=[eebaec6d84ac219258597daa1fec0a5a]
link Server to GraphQL--><path d="M173.6,44.29 C166.75,49.45 159.43,55.26 153,61 C139.33,73.21 125.13,88.15 114.32,100.07 " fill="none" id="Server-&gt;GraphQL" style="stroke: #A80036; stroke-width: 1.0;"/><polygon fill="#A80036" points="110.79,103.99,119.7839,99.9762,114.1348,100.2735,113.8375,94.6245,110.79,103.99" style="stroke: #A80036; stroke-width: 1.0;"/><!--MD5=[ef35c2d73cbadcdf1bd7e82d06533dbb]
link Server to GitUpload--><path d="M221.75,44.15 C228.73,49.4 236.28,55.3 243,61 C257.71,73.49 273.43,88.46 285.49,100.32 " fill="none" id="Server-&gt;GitUpload" style="stroke: #A80036; stroke-width: 1.0;"/><polygon fill="#A80036" points="289.11,103.9,285.5188,94.7292,285.5531,100.386,279.8964,100.4202,289.11,103.9" style="stroke: #A80036; stroke-width: 1.0;"/><!--MD5=[dd57391b8a57d0a96120bd3fb1320588]
link GitUpload to GitRepos--><path d="M302.86,140.4 C293.84,190.45 267.76,335.08 256.87,395.49 " fill="none" id="GitUpload-&gt;GitRepos" style="stroke: #A80036; stroke-width: 1.0;"/><polygon fill="#A80036" points="255.93,400.72,261.4588,392.5694,256.8144,395.7988,253.585,391.1544,255.93,400.72" style="stroke: #A80036; stroke-width: 1.0;"/><!--MD5=[167d7fd71fa178f1ff297ae1cc05cfd8]
link Server to REST--><path d="M198,44.24 C198,59.48 198,81.81 198,98.46 " fill="none" id="Server-&gt;REST" style="stroke: #A80036; stroke-width: 1.0;"/><polygon fill="#A80036" points="198,103.87,202,94.87,198,98.87,194,94.87,198,103.87" style="stroke: #A80036; stroke-width: 1.0;"/><!--MD5=[acf47a16b42c58ec622fcc4a6fdfa73d]
link REST to Loaders--><path d="M198,140.16 C198,156.44 198,181.02 198,198.89 " fill="none" id="REST-&gt;Loaders" style="stroke: #A80036; stroke-width: 1.0;"/><polygon fill="#A80036" points="198,204.21,202,195.21,198,199.21,194,195.21,198,204.21" style="stroke: #A80036; stroke-width: 1.0;"/><!--MD5=[bfd0460f154169847c656c926602c5dd]
link GraphQL to Loaders--><path d="M113.77,140.16 C131.21,157 157.84,182.72 176.48,200.72 " fill="none" id="GraphQL-&gt;Loaders" style="stroke: #A80036; stroke-width: 1.0;"/><polygon fill="#A80036" points="180.09,204.21,176.4061,195.0761,176.4977,200.7322,170.8416,200.8238,180.09,204.21" style="stroke: #A80036; stroke-width: 1.0;"/><!--MD5=[27876f2d0e959819b28b8718054568fb]
reverse link Postgres to Loaders--><path d="M131.24,222.5 C141.13,222.5 151.02,222.5 160.91,222.5 " fill="none" id="Postgres&lt;-Loaders" style="stroke: #A80036; stroke-width: 1.0;"/><polygon fill="#A80036" points="126.07,222.5,135.07,226.5,131.07,222.5,135.07,218.5,126.07,222.5" style="stroke: #A80036; stroke-width: 1.0;"/><!--MD5=[1067541d9e3ecc0742dbb5966fc7a521]
link Loaders to GitDAL--><path d="M199.74,240.66 C201.4,256.94 203.89,281.52 205.7,299.39 " fill="none" id="Loaders-&gt;GitDAL" style="stroke: #A80036; stroke-width: 1.0;"/><polygon fill="#A80036" points="206.24,304.71,209.3193,295.3549,205.7397,299.7351,201.3594,296.1555,206.24,304.71" style="stroke: #A80036; stroke-width: 1.0;"/><!--MD5=[1a40fe4d7d9a3071dc79299ca0581df9]
link GitDAL to GitRepos--><path d="M215.66,341.16 C222.42,356.27 232.36,378.53 240.14,395.94 " fill="none" id="GitDAL-&gt;GitRepos" style="stroke: #A80036; stroke-width: 1.0;"/><polygon fill="#A80036" points="242.27,400.72,242.2757,390.8711,240.242,396.1498,234.9633,394.116,242.27,400.72" style="stroke: #A80036; stroke-width: 1.0;"/><!--MD5=[5b4177e9705ee0afba9ad55797d1644f]
@startuml components

component Server
package "Routes" {
  component "REST" as REST
  component "GraphQL" as GraphQL
  component "Git Upload" as GitUpload
}
component Loaders
component "Git DAL" as GitDAL

database "Git Repositories" as GitRepos
database "PostgreSQL DB" as Postgres

Server -down-> GraphQL
Server -down-> GitUpload
GitUpload -down-> GitRepos
Server -down-> REST
REST -down-> Loaders
GraphQL -down-> Loaders
Loaders -left-> Postgres
Loaders -down-> GitDAL
GitDAL -down-> GitRepos

@enduml

PlantUML version 1.2019.13(Tue Dec 10 18:18:29 CET 2019)
(GPL source distribution)
Java Runtime: Java(TM) SE Runtime Environment
JVM: Java HotSpot(TM) 64-Bit Server VM
Java Version: 13.0.1+9
Operating System: Mac OS X
Default Encoding: UTF-8
Language: en
Country: US
--></g></svg>