<?xml version="1.0" encoding="UTF-8" standalone="no"?><svg xmlns="http://www.w3.org/2000/svg" xmlns:xlink="http://www.w3.org/1999/xlink" contentScriptType="application/ecmascript" contentStyleType="text/css" height="1133px" preserveAspectRatio="none" style="width:954px;height:1133px;" version="1.1" viewBox="0 0 954 1133" width="954px" zoomAndPan="magnify"><defs><filter height="300%" id="fb0h6rec721nn" width="300%" x="-1" y="-1"><feGaussianBlur result="blurOut" stdDeviation="2.0"/><feColorMatrix in="blurOut" result="blurOut2" type="matrix" values="0 0 0 0 0 0 0 0 0 0 0 0 0 0 0 0 0 0 .4 0"/><feOffset dx="4.0" dy="4.0" in="blurOut2" result="blurOut3"/><feBlend in="SourceGraphic" in2="blurOut3" mode="normal"/></filter></defs><g><!--MD5=[6eafbb38dcfd991ac99fbc2abc212727]
cluster Relay--><polygon fill="#FFFFFF" filter="url(#fb0h6rec721nn)" points="594,24,639,24,646,46.4883,932,46.4883,932,275.5,594,275.5,594,24" style="stroke: #000000; stroke-width: 1.5;"/><line style="stroke: #000000; stroke-width: 1.5;" x1="594" x2="646" y1="46.4883" y2="46.4883"/><text fill="#000000" font-family="sans-serif" font-size="14" font-weight="bold" lengthAdjust="spacingAndGlyphs" textLength="39" x="598" y="39.5352">Relay</text><!--MD5=[1cd78e98e7a9839702c223eab4979b1f]
class Relay.Connection--><rect fill="#FEFECE" filter="url(#fb0h6rec721nn)" height="58.043" id="Relay.Connection" style="stroke: #A80036; stroke-width: 1.5;" width="157" x="681.5" y="59"/><text fill="#000000" font-family="sans-serif" font-size="12" font-style="italic" lengthAdjust="spacingAndGlyphs" textLength="63" x="707" y="75.6016">Connection</text><rect fill="#FFFFFF" height="16.1328" style="stroke: #000000; stroke-width: 1.0; stroke-dasharray: 2.0,2.0;" width="41" x="800.5" y="56"/><text fill="#000000" font-family="sans-serif" font-size="12" font-style="italic" lengthAdjust="spacingAndGlyphs" textLength="39" x="801.5" y="68.6016">TNode</text><line style="stroke: #A80036; stroke-width: 1.5;" x1="682.5" x2="837.5" y1="83.1328" y2="83.1328"/><ellipse cx="692.5" cy="94.1328" fill="none" rx="3" ry="3" style="stroke: #038048; stroke-width: 1.0;"/><text fill="#000000" font-family="sans-serif" font-size="11" lengthAdjust="spacingAndGlyphs" textLength="102" x="701.5" y="97.7676">pageInfo: PageInfo!</text><ellipse cx="692.5" cy="107.0879" fill="none" rx="3" ry="3" style="stroke: #038048; stroke-width: 1.0;"/><text fill="#000000" font-family="sans-serif" font-size="11" lengthAdjust="spacingAndGlyphs" textLength="131" x="701.5" y="110.7227">edges: [Edge&lt;TNode&gt;!]!</text><!--MD5=[09264cef9c0e64048c6e1196cdd5527b]
class Relay.Edge--><rect fill="#FEFECE" filter="url(#fb0h6rec721nn)" height="58.043" id="Relay.Edge" style="stroke: #A80036; stroke-width: 1.5;" width="103" x="610.5" y="195"/><text fill="#000000" font-family="sans-serif" font-size="12" font-style="italic" lengthAdjust="spacingAndGlyphs" textLength="29" x="626" y="211.6016">Edge</text><rect fill="#FFFFFF" height="16.1328" style="stroke: #000000; stroke-width: 1.0; stroke-dasharray: 2.0,2.0;" width="41" x="675.5" y="192"/><text fill="#000000" font-family="sans-serif" font-size="12" font-style="italic" lengthAdjust="spacingAndGlyphs" textLength="39" x="676.5" y="204.6016">TNode</text><line style="stroke: #A80036; stroke-width: 1.5;" x1="611.5" x2="712.5" y1="219.1328" y2="219.1328"/><ellipse cx="621.5" cy="230.1328" fill="none" rx="3" ry="3" style="stroke: #038048; stroke-width: 1.0;"/><text fill="#000000" font-family="sans-serif" font-size="11" lengthAdjust="spacingAndGlyphs" textLength="71" x="630.5" y="233.7676">node: TNode!</text><ellipse cx="621.5" cy="243.0879" fill="none" rx="3" ry="3" style="stroke: #038048; stroke-width: 1.0;"/><text fill="#000000" font-family="sans-serif" font-size="11" lengthAdjust="spacingAndGlyphs" textLength="77" x="630.5" y="246.7227">cursor: String!</text><!--MD5=[ca08750fa789013f748736181f871b53]
class Relay.PageInfo--><rect fill="#FEFECE" filter="url(#fb0h6rec721nn)" height="70.998" id="Relay.PageInfo" style="stroke: #A80036; stroke-width: 1.5;" width="167" x="748.5" y="188.5"/><text fill="#000000" font-family="sans-serif" font-size="12" lengthAdjust="spacingAndGlyphs" textLength="49" x="807.5" y="205.1016">PageInfo</text><line style="stroke: #A80036; stroke-width: 1.5;" x1="749.5" x2="914.5" y1="212.6328" y2="212.6328"/><ellipse cx="759.5" cy="223.6328" fill="none" rx="3" ry="3" style="stroke: #038048; stroke-width: 1.0;"/><text fill="#000000" font-family="sans-serif" font-size="11" lengthAdjust="spacingAndGlyphs" textLength="99" x="768.5" y="227.2676">endCursor: String!</text><ellipse cx="759.5" cy="236.5879" fill="none" rx="3" ry="3" style="stroke: #038048; stroke-width: 1.0;"/><text fill="#000000" font-family="sans-serif" font-size="11" lengthAdjust="spacingAndGlyphs" textLength="120" x="768.5" y="240.2227">hasNextPage: Boolean!</text><ellipse cx="759.5" cy="249.543" fill="none" rx="3" ry="3" style="stroke: #038048; stroke-width: 1.0;"/><text fill="#000000" font-family="sans-serif" font-size="11" lengthAdjust="spacingAndGlyphs" textLength="141" x="768.5" y="253.1777">hasPreviousPage: Boolean!</text><!--MD5=[91221848cc6fc2b51471cfb300e81a0a]
class Query--><rect fill="#FEFECE" filter="url(#fb0h6rec721nn)" height="58.043" id="Query" style="stroke: #A80036; stroke-width: 1.5;" width="238" x="296" y="59"/><text fill="#000000" font-family="sans-serif" font-size="12" lengthAdjust="spacingAndGlyphs" textLength="34" x="398" y="75.6016">Query</text><line style="stroke: #A80036; stroke-width: 1.5;" x1="297" x2="533" y1="83.1328" y2="83.1328"/><ellipse cx="307" cy="94.1328" fill="#84BE84" rx="3" ry="3" style="stroke: #038048; stroke-width: 1.0;"/><text fill="#000000" font-family="sans-serif" font-size="11" lengthAdjust="spacingAndGlyphs" textLength="198" x="316" y="97.7676">repository(name: String!): Repository</text><ellipse cx="307" cy="107.0879" fill="#84BE84" rx="3" ry="3" style="stroke: #038048; stroke-width: 1.0;"/><text fill="#000000" font-family="sans-serif" font-size="11" lengthAdjust="spacingAndGlyphs" textLength="212" x="316" y="110.7227">repositories: Connection&lt;Repository&gt;!</text><!--MD5=[c05f8d4c5007184b0fb1ea93cdb8d9fe]
class Repository--><rect fill="#FEFECE" filter="url(#fb0h6rec721nn)" height="91.9531" id="Repository" style="stroke: #A80036; stroke-width: 1.5;" width="321" x="254.5" y="178"/><text fill="#000000" font-family="sans-serif" font-size="12" lengthAdjust="spacingAndGlyphs" textLength="61" x="384.5" y="194.6016">Repository</text><line style="stroke: #A80036; stroke-width: 1.5;" x1="255.5" x2="574.5" y1="202.1328" y2="202.1328"/><ellipse cx="265.5" cy="213.1328" fill="none" rx="3" ry="3" style="stroke: #038048; stroke-width: 1.0;"/><text fill="#000000" font-family="sans-serif" font-size="11" lengthAdjust="spacingAndGlyphs" textLength="70" x="274.5" y="216.7676">name: String!</text><line style="stroke: #A80036; stroke-width: 1.5;" x1="255.5" x2="574.5" y1="223.0879" y2="223.0879"/><ellipse cx="265.5" cy="234.0879" fill="#84BE84" rx="3" ry="3" style="stroke: #038048; stroke-width: 1.0;"/><text fill="#000000" font-family="sans-serif" font-size="11" lengthAdjust="spacingAndGlyphs" textLength="154" x="274.5" y="237.7227">commit(oid: String!): Commit</text><ellipse cx="265.5" cy="247.043" fill="#84BE84" rx="3" ry="3" style="stroke: #038048; stroke-width: 1.0;"/><text fill="#000000" font-family="sans-serif" font-size="11" lengthAdjust="spacingAndGlyphs" textLength="177" x="274.5" y="250.6777">commits: Connection&lt;Commit&gt;!</text><ellipse cx="265.5" cy="259.998" fill="#84BE84" rx="3" ry="3" style="stroke: #038048; stroke-width: 1.0;"/><text fill="#000000" font-family="sans-serif" font-size="11" lengthAdjust="spacingAndGlyphs" textLength="295" x="274.5" y="263.6328">codeSmellLifespans: Connection&lt;CodeSmellLifespan&gt;!</text><!--MD5=[4da33e036383ae2c9d7a81b1e09b72e8]
class Commit--><rect fill="#FEFECE" filter="url(#fb0h6rec721nn)" height="117.8633" id="Commit" style="stroke: #A80036; stroke-width: 1.5;" width="381" x="56.5" y="331"/><text fill="#000000" font-family="sans-serif" font-size="12" lengthAdjust="spacingAndGlyphs" textLength="44" x="225" y="347.6016">Commit</text><line style="stroke: #A80036; stroke-width: 1.5;" x1="57.5" x2="436.5" y1="355.1328" y2="355.1328"/><ellipse cx="67.5" cy="366.1328" fill="none" rx="3" ry="3" style="stroke: #038048; stroke-width: 1.0;"/><text fill="#000000" font-family="sans-serif" font-size="11" lengthAdjust="spacingAndGlyphs" textLength="58" x="76.5" y="369.7676">oid: String!</text><ellipse cx="67.5" cy="379.0879" fill="none" rx="3" ry="3" style="stroke: #038048; stroke-width: 1.0;"/><text fill="#000000" font-family="sans-serif" font-size="11" lengthAdjust="spacingAndGlyphs" textLength="115" x="76.5" y="382.7227">committer: Signature!</text><ellipse cx="67.5" cy="392.043" fill="none" rx="3" ry="3" style="stroke: #038048; stroke-width: 1.0;"/><text fill="#000000" font-family="sans-serif" font-size="11" lengthAdjust="spacingAndGlyphs" textLength="96" x="76.5" y="395.6777">author: Signature!</text><line style="stroke: #A80036; stroke-width: 1.5;" x1="57.5" x2="436.5" y1="401.998" y2="401.998"/><ellipse cx="67.5" cy="412.998" fill="#84BE84" rx="3" ry="3" style="stroke: #038048; stroke-width: 1.0;"/><text fill="#000000" font-family="sans-serif" font-size="11" lengthAdjust="spacingAndGlyphs" textLength="355" x="76.5" y="416.6328">combinedFileDifferencees: Connection&lt;CombinedFileDifference&gt;!</text><ellipse cx="67.5" cy="425.9531" fill="#84BE84" rx="3" ry="3" style="stroke: #038048; stroke-width: 1.0;"/><text fill="#000000" font-family="sans-serif" font-size="11" lengthAdjust="spacingAndGlyphs" textLength="205" x="76.5" y="429.5879">codeSmells: Connection&lt;CodeSmell&gt;!</text><ellipse cx="67.5" cy="438.9082" fill="#84BE84" rx="3" ry="3" style="stroke: #038048; stroke-width: 1.0;"/><text fill="#000000" font-family="sans-serif" font-size="11" lengthAdjust="spacingAndGlyphs" textLength="129" x="76.5" y="442.543">files: Connection&lt;File&gt;!</text><!--MD5=[14d32a97c52c5f9b113614086055026b]
class CodeSmellLifespan--><rect fill="#FEFECE" filter="url(#fb0h6rec721nn)" height="117.8633" id="CodeSmellLifespan" style="stroke: #A80036; stroke-width: 1.5;" width="222" x="473" y="331"/><text fill="#000000" font-family="sans-serif" font-size="12" lengthAdjust="spacingAndGlyphs" textLength="108" x="530" y="347.6016">CodeSmellLifespan</text><line style="stroke: #A80036; stroke-width: 1.5;" x1="474" x2="694" y1="355.1328" y2="355.1328"/><ellipse cx="484" cy="366.1328" fill="none" rx="3" ry="3" style="stroke: #038048; stroke-width: 1.0;"/><text fill="#000000" font-family="sans-serif" font-size="11" lengthAdjust="spacingAndGlyphs" textLength="30" x="493" y="369.7676">id: ID!</text><ellipse cx="484" cy="379.0879" fill="none" rx="3" ry="3" style="stroke: #038048; stroke-width: 1.0;"/><text fill="#000000" font-family="sans-serif" font-size="11" lengthAdjust="spacingAndGlyphs" textLength="64" x="493" y="382.7227">kind: String!</text><ellipse cx="484" cy="392.043" fill="none" rx="3" ry="3" style="stroke: #038048; stroke-width: 1.0;"/><text fill="#000000" font-family="sans-serif" font-size="11" lengthAdjust="spacingAndGlyphs" textLength="123" x="493" y="395.6777">repository: Repository!</text><ellipse cx="484" cy="404.998" fill="none" rx="3" ry="3" style="stroke: #038048; stroke-width: 1.0;"/><text fill="#000000" font-family="sans-serif" font-size="11" lengthAdjust="spacingAndGlyphs" textLength="87" x="493" y="408.6328">duration: String!</text><ellipse cx="484" cy="417.9531" fill="none" rx="3" ry="3" style="stroke: #038048; stroke-width: 1.0;"/><text fill="#000000" font-family="sans-serif" font-size="11" lengthAdjust="spacingAndGlyphs" textLength="81" x="493" y="421.5879">interval: String!</text><line style="stroke: #A80036; stroke-width: 1.5;" x1="474" x2="694" y1="427.9082" y2="427.9082"/><ellipse cx="484" cy="438.9082" fill="#84BE84" rx="3" ry="3" style="stroke: #038048; stroke-width: 1.0;"/><text fill="#000000" font-family="sans-serif" font-size="11" lengthAdjust="spacingAndGlyphs" textLength="196" x="493" y="442.543">instances: Connection&lt;CodeSmell&gt;!</text><!--MD5=[79b2c35a8607833edf9d17d918b0cb90]
class Signature--><rect fill="#FEFECE" filter="url(#fb0h6rec721nn)" height="70.998" id="Signature" style="stroke: #A80036; stroke-width: 1.5;" width="96" x="13" y="549.5"/><text fill="#000000" font-family="sans-serif" font-size="12" lengthAdjust="spacingAndGlyphs" textLength="53" x="34.5" y="566.1016">Signature</text><line style="stroke: #A80036; stroke-width: 1.5;" x1="14" x2="108" y1="573.6328" y2="573.6328"/><ellipse cx="24" cy="584.6328" fill="none" rx="3" ry="3" style="stroke: #038048; stroke-width: 1.0;"/><text fill="#000000" font-family="sans-serif" font-size="11" lengthAdjust="spacingAndGlyphs" textLength="70" x="33" y="588.2676">name: String!</text><ellipse cx="24" cy="597.5879" fill="none" rx="3" ry="3" style="stroke: #038048; stroke-width: 1.0;"/><text fill="#000000" font-family="sans-serif" font-size="11" lengthAdjust="spacingAndGlyphs" textLength="69" x="33" y="601.2227">email: String!</text><ellipse cx="24" cy="610.543" fill="none" rx="3" ry="3" style="stroke: #038048; stroke-width: 1.0;"/><text fill="#000000" font-family="sans-serif" font-size="11" lengthAdjust="spacingAndGlyphs" textLength="64" x="33" y="614.1777">date: String!</text><!--MD5=[90af14acebbc533b6fea97f131b1446c]
class CodeSmell--><rect fill="#FEFECE" filter="url(#fb0h6rec721nn)" height="117.8633" id="CodeSmell" style="stroke: #A80036; stroke-width: 1.5;" width="178" x="467" y="526"/><text fill="#000000" font-family="sans-serif" font-size="12" lengthAdjust="spacingAndGlyphs" textLength="60" x="526" y="542.6016">CodeSmell</text><line style="stroke: #A80036; stroke-width: 1.5;" x1="468" x2="644" y1="550.1328" y2="550.1328"/><ellipse cx="478" cy="561.1328" fill="none" rx="3" ry="3" style="stroke: #038048; stroke-width: 1.0;"/><text fill="#000000" font-family="sans-serif" font-size="11" lengthAdjust="spacingAndGlyphs" textLength="30" x="487" y="564.7676">id: ID!</text><ellipse cx="478" cy="574.0879" fill="none" rx="3" ry="3" style="stroke: #038048; stroke-width: 1.0;"/><text fill="#000000" font-family="sans-serif" font-size="11" lengthAdjust="spacingAndGlyphs" textLength="88" x="487" y="577.7227">message: String!</text><ellipse cx="478" cy="587.043" fill="none" rx="3" ry="3" style="stroke: #038048; stroke-width: 1.0;"/><text fill="#000000" font-family="sans-serif" font-size="11" lengthAdjust="spacingAndGlyphs" textLength="91" x="487" y="590.6777">commit: Commit!</text><ellipse cx="478" cy="599.998" fill="none" rx="3" ry="3" style="stroke: #038048; stroke-width: 1.0;"/><text fill="#000000" font-family="sans-serif" font-size="11" lengthAdjust="spacingAndGlyphs" textLength="115" x="487" y="603.6328">locations: [Location!]!</text><ellipse cx="478" cy="612.9531" fill="none" rx="3" ry="3" style="stroke: #038048; stroke-width: 1.0;"/><text fill="#000000" font-family="sans-serif" font-size="11" lengthAdjust="spacingAndGlyphs" textLength="61" x="487" y="616.5879">ordinal: Int!</text><line style="stroke: #A80036; stroke-width: 1.5;" x1="468" x2="644" y1="622.9082" y2="622.9082"/><ellipse cx="478" cy="633.9082" fill="#84BE84" rx="3" ry="3" style="stroke: #038048; stroke-width: 1.0;"/><text fill="#000000" font-family="sans-serif" font-size="11" lengthAdjust="spacingAndGlyphs" textLength="152" x="487" y="637.543">lifespan: CodeSmellLifespan!</text><!--MD5=[63dd87716ef75a5caca5dce59428e94a]
class File--><rect fill="#FEFECE" filter="url(#fb0h6rec721nn)" height="91.9531" id="File" style="stroke: #A80036; stroke-width: 1.5;" width="231" x="253.5" y="886"/><text fill="#000000" font-family="sans-serif" font-size="12" lengthAdjust="spacingAndGlyphs" textLength="19" x="359.5" y="902.6016">File</text><line style="stroke: #A80036; stroke-width: 1.5;" x1="254.5" x2="483.5" y1="910.1328" y2="910.1328"/><ellipse cx="264.5" cy="921.1328" fill="none" rx="3" ry="3" style="stroke: #038048; stroke-width: 1.0;"/><text fill="#000000" font-family="sans-serif" font-size="11" lengthAdjust="spacingAndGlyphs" textLength="65" x="273.5" y="924.7676">path: String!</text><ellipse cx="264.5" cy="934.0879" fill="none" rx="3" ry="3" style="stroke: #038048; stroke-width: 1.0;"/><text fill="#000000" font-family="sans-serif" font-size="11" lengthAdjust="spacingAndGlyphs" textLength="81" x="273.5" y="937.7227">linesCount: Int!</text><line style="stroke: #A80036; stroke-width: 1.5;" x1="254.5" x2="483.5" y1="944.043" y2="944.043"/><ellipse cx="264.5" cy="955.043" fill="#84BE84" rx="3" ry="3" style="stroke: #038048; stroke-width: 1.0;"/><text fill="#000000" font-family="sans-serif" font-size="11" lengthAdjust="spacingAndGlyphs" textLength="184" x="273.5" y="958.6777">contents(encoding: String): String!</text><ellipse cx="264.5" cy="967.998" fill="#84BE84" rx="3" ry="3" style="stroke: #038048; stroke-width: 1.0;"/><text fill="#000000" font-family="sans-serif" font-size="11" lengthAdjust="spacingAndGlyphs" textLength="205" x="273.5" y="971.6328">codeSmells: Connection&lt;CodeSmell&gt;!</text><!--MD5=[7e4e669716e39576ae3e26afe40346de]
class CombinedFileDifference--><rect fill="#FEFECE" filter="url(#fb0h6rec721nn)" height="70.998" id="CombinedFileDifference" style="stroke: #A80036; stroke-width: 1.5;" width="198" x="112" y="725"/><text fill="#000000" font-family="sans-serif" font-size="12" lengthAdjust="spacingAndGlyphs" textLength="137" x="142.5" y="741.6016">CombinedFileDifference</text><line style="stroke: #A80036; stroke-width: 1.5;" x1="113" x2="309" y1="749.1328" y2="749.1328"/><ellipse cx="123" cy="760.1328" fill="none" rx="3" ry="3" style="stroke: #038048; stroke-width: 1.0;"/><text fill="#000000" font-family="sans-serif" font-size="11" lengthAdjust="spacingAndGlyphs" textLength="172" x="132" y="763.7676">changeKinds: [FileChangeKind!]!</text><ellipse cx="123" cy="773.0879" fill="none" rx="3" ry="3" style="stroke: #038048; stroke-width: 1.0;"/><text fill="#000000" font-family="sans-serif" font-size="11" lengthAdjust="spacingAndGlyphs" textLength="68" x="132" y="776.7227">headFile: File</text><ellipse cx="123" cy="786.043" fill="none" rx="3" ry="3" style="stroke: #038048; stroke-width: 1.0;"/><text fill="#000000" font-family="sans-serif" font-size="11" lengthAdjust="spacingAndGlyphs" textLength="84" x="132" y="789.6777">baseFiles: [File]!</text><!--MD5=[a95c5253a345b2cae7dff15792fcfa1d]
class FileChangeKind--><rect fill="#FEFECE" filter="url(#fb0h6rec721nn)" height="109.8633" id="FileChangeKind" style="stroke: #A80036; stroke-width: 1.5;" width="98" x="77" y="877"/><text fill="#000000" font-family="sans-serif" font-size="12" lengthAdjust="spacingAndGlyphs" textLength="88" x="82" y="893.6016">FileChangeKind</text><line style="stroke: #A80036; stroke-width: 1.5;" x1="78" x2="174" y1="901.1328" y2="901.1328"/><text fill="#000000" font-family="sans-serif" font-size="11" lengthAdjust="spacingAndGlyphs" textLength="38" x="83" y="915.7676">ADDED</text><text fill="#000000" font-family="sans-serif" font-size="11" lengthAdjust="spacingAndGlyphs" textLength="40" x="83" y="928.7227">COPIED</text><text fill="#000000" font-family="sans-serif" font-size="11" lengthAdjust="spacingAndGlyphs" textLength="47" x="83" y="941.6777">DELETED</text><text fill="#000000" font-family="sans-serif" font-size="11" lengthAdjust="spacingAndGlyphs" textLength="52" x="83" y="954.6328">MODIFIED</text><text fill="#000000" font-family="sans-serif" font-size="11" lengthAdjust="spacingAndGlyphs" textLength="52" x="83" y="967.5879">RENAMED</text><text fill="#000000" font-family="sans-serif" font-size="11" lengthAdjust="spacingAndGlyphs" textLength="86" x="83" y="980.543">TYPE_CHANGED</text><!--MD5=[4f1f3706c1a355a8488e154afcaed5df]
class Location--><rect fill="#FEFECE" filter="url(#fb0h6rec721nn)" height="78.998" id="Location" style="stroke: #A80036; stroke-width: 1.5;" width="210" x="432" y="721"/><text fill="#000000" font-family="sans-serif" font-size="12" lengthAdjust="spacingAndGlyphs" textLength="47" x="513.5" y="737.6016">Location</text><line style="stroke: #A80036; stroke-width: 1.5;" x1="433" x2="641" y1="745.1328" y2="745.1328"/><ellipse cx="443" cy="756.1328" fill="none" rx="3" ry="3" style="stroke: #038048; stroke-width: 1.0;"/><text fill="#000000" font-family="sans-serif" font-size="11" lengthAdjust="spacingAndGlyphs" textLength="43" x="452" y="759.7676">file: File!</text><ellipse cx="443" cy="769.0879" fill="none" rx="3" ry="3" style="stroke: #038048; stroke-width: 1.0;"/><text fill="#000000" font-family="sans-serif" font-size="11" lengthAdjust="spacingAndGlyphs" textLength="73" x="452" y="772.7227">range: Range!</text><line style="stroke: #A80036; stroke-width: 1.5;" x1="433" x2="641" y1="779.043" y2="779.043"/><ellipse cx="443" cy="790.043" fill="#84BE84" rx="3" ry="3" style="stroke: #038048; stroke-width: 1.0;"/><text fill="#000000" font-family="sans-serif" font-size="11" lengthAdjust="spacingAndGlyphs" textLength="184" x="452" y="793.6777">contents(encoding: String): String!</text><!--MD5=[2f49539d777d8d7526d361413cf07525]
class Range--><rect fill="#FEFECE" filter="url(#fb0h6rec721nn)" height="58.043" id="Range" style="stroke: #A80036; stroke-width: 1.5;" width="103" x="519.5" y="903"/><text fill="#000000" font-family="sans-serif" font-size="12" lengthAdjust="spacingAndGlyphs" textLength="36" x="553" y="919.6016">Range</text><line style="stroke: #A80036; stroke-width: 1.5;" x1="520.5" x2="621.5" y1="927.1328" y2="927.1328"/><ellipse cx="530.5" cy="938.1328" fill="none" rx="3" ry="3" style="stroke: #038048; stroke-width: 1.0;"/><text fill="#000000" font-family="sans-serif" font-size="11" lengthAdjust="spacingAndGlyphs" textLength="77" x="539.5" y="941.7676">start: Position!</text><ellipse cx="530.5" cy="951.0879" fill="none" rx="3" ry="3" style="stroke: #038048; stroke-width: 1.0;"/><text fill="#000000" font-family="sans-serif" font-size="11" lengthAdjust="spacingAndGlyphs" textLength="72" x="539.5" y="954.7227">end: Position!</text><!--MD5=[a64a835c3d62471a77f615251fdde58a]
class Position--><rect fill="#FEFECE" filter="url(#fb0h6rec721nn)" height="58.043" id="Position" style="stroke: #A80036; stroke-width: 1.5;" width="100" x="520" y="1064"/><text fill="#000000" font-family="sans-serif" font-size="12" lengthAdjust="spacingAndGlyphs" textLength="44" x="548" y="1080.6016">Position</text><line style="stroke: #A80036; stroke-width: 1.5;" x1="521" x2="619" y1="1088.1328" y2="1088.1328"/><ellipse cx="531" cy="1099.1328" fill="none" rx="3" ry="3" style="stroke: #038048; stroke-width: 1.0;"/><text fill="#000000" font-family="sans-serif" font-size="11" lengthAdjust="spacingAndGlyphs" textLength="42" x="540" y="1102.7676">line: Int!</text><ellipse cx="531" cy="1112.0879" fill="none" rx="3" ry="3" style="stroke: #038048; stroke-width: 1.0;"/><text fill="#000000" font-family="sans-serif" font-size="11" lengthAdjust="spacingAndGlyphs" textLength="74" x="540" y="1115.7227">character: Int!</text><!--MD5=[d808edad4c24fcaca61f5f61bc46bfc7]
link Query to Repository--><path d="M415,117.09 C415,133.15 415,153.79 415,172.56 " fill="none" id="Query-&gt;Repository" style="stroke: #A80036; stroke-width: 1.0;"/><polygon fill="#A80036" points="415,177.81,419,168.81,415,172.81,411,168.81,415,177.81" style="stroke: #A80036; stroke-width: 1.0;"/><!--MD5=[a9b40be1fc33cd0a4e1b52667092735a]
reverse link Repository to Commit--><path d="M358.94,279.73 C342.07,296.19 323.51,314.3 306.44,330.97 " fill="none" id="Repository&lt;-Commit" style="stroke: #A80036; stroke-width: 1.0;"/><polygon fill="#A80036" points="368.64,270.25,361.5529,271.5817,360.0564,278.6358,367.1435,277.3041,368.64,270.25" style="stroke: #A80036; stroke-width: 1.0;"/><text fill="#000000" font-family="sans-serif" font-size="13" lengthAdjust="spacingAndGlyphs" textLength="8" x="353.5581" y="290.4021">1</text><text fill="#000000" font-family="sans-serif" font-size="13" lengthAdjust="spacingAndGlyphs" textLength="22" x="290.3436" y="320.4573">0..*</text><!--MD5=[61322d6ad31b56d6662db4e11a7a3eed]
reverse link Repository to CodeSmellLifespan--><path d="M471.39,279.73 C488.35,296.19 507.02,314.3 524.2,330.97 " fill="none" id="Repository&lt;-CodeSmellLifespan" style="stroke: #A80036; stroke-width: 1.0;"/><polygon fill="#A80036" points="461.62,270.25,463.1384,277.2994,470.2296,278.6091,468.7112,271.5597,461.62,270.25" style="stroke: #A80036; stroke-width: 1.0;"/><text fill="#000000" font-family="sans-serif" font-size="13" lengthAdjust="spacingAndGlyphs" textLength="8" x="459.6134" y="290.4021">1</text><text fill="#000000" font-family="sans-serif" font-size="13" lengthAdjust="spacingAndGlyphs" textLength="22" x="493.5712" y="320.4573">0..*</text><!--MD5=[d5389447baac46a53bcf1b3fe7f2197e]
link Commit to Signature--><path d="M155.56,449.05 C143.95,458.34 132.73,468.41 123,479 C105.15,498.41 89.99,523.8 79.13,544.74 " fill="none" id="Commit-&gt;Signature" style="stroke: #A80036; stroke-width: 1.0;"/><polygon fill="#A80036" points="76.74,549.42,84.3904,543.2174,79.0103,544.9651,77.2626,539.585,76.74,549.42" style="stroke: #A80036; stroke-width: 1.0;"/><text fill="#000000" font-family="sans-serif" font-size="13" lengthAdjust="spacingAndGlyphs" textLength="87" x="124" y="492.5684">committed by</text><polygon fill="#000000" points="163,501.3105,166,507.3105,169,501.3105,163,501.3105" style="stroke: #000000; stroke-width: 1.0;"/><!--MD5=[d5389447baac46a53bcf1b3fe7f2197e]
link Commit to Signature--><path d="M56.43,438.01 C39.52,448.94 24.48,462.41 13,479 C-1.12,499.39 9.63,524.61 24.5,545.21 " fill="none" id="Commit-&gt;Signature-1" style="stroke: #A80036; stroke-width: 1.0;"/><polygon fill="#A80036" points="27.52,549.27,25.3584,539.6613,24.536,545.258,18.9393,544.4357,27.52,549.27" style="stroke: #A80036; stroke-width: 1.0;"/><text fill="#000000" font-family="sans-serif" font-size="13" lengthAdjust="spacingAndGlyphs" textLength="75" x="14" y="492.5684">authored by</text><polygon fill="#000000" points="47,501.3105,50,507.3105,53,501.3105,47,501.3105" style="stroke: #000000; stroke-width: 1.0;"/><!--MD5=[be2b6f869df44cb34b7a7286dbd81aae]
reverse link Commit to CodeSmell--><path d="M366.44,455.86 C379.56,463.48 392.63,471.29 405,479 C428.29,493.54 452.98,510.16 475.49,525.82 " fill="none" id="Commit&lt;-CodeSmell" style="stroke: #A80036; stroke-width: 1.0;"/><polygon fill="#A80036" points="354.92,449.23,358.1256,455.6894,365.321,455.2149,362.1155,448.7554,354.92,449.23" style="stroke: #A80036; stroke-width: 1.0;"/><text fill="#000000" font-family="sans-serif" font-size="13" lengthAdjust="spacingAndGlyphs" textLength="8" x="358.9358" y="469.5399">1</text><text fill="#000000" font-family="sans-serif" font-size="13" lengthAdjust="spacingAndGlyphs" textLength="22" x="442.3372" y="515.289">0..*</text><!--MD5=[206697404f7d017fb43b138904bb0ce5]
reverse link Commit to File--><path d="M267.63,461.57 C292.16,547.8 332.81,698.48 357,830 C360.33,848.15 362.95,868.31 364.87,885.82 " fill="none" id="Commit&lt;-File" style="stroke: #A80036; stroke-width: 1.0;"/><polygon fill="#A80036" points="264.06,449.06,261.8622,455.928,267.3567,460.5983,269.5544,453.7303,264.06,449.06" style="stroke: #A80036; stroke-width: 1.0;"/><text fill="#000000" font-family="sans-serif" font-size="13" lengthAdjust="spacingAndGlyphs" textLength="8" x="257.5701" y="469.3502">1</text><text fill="#000000" font-family="sans-serif" font-size="13" lengthAdjust="spacingAndGlyphs" textLength="22" x="340.5532" y="875.196">0..*</text><!--MD5=[64071156b5e8f3dff1ab06b8edd038d5]
reverse link Commit to CombinedFileDifference--><path d="M240,462.6 C232.3,541.41 220.24,664.84 214.4,724.67 " fill="none" id="Commit&lt;-CombinedFileDifference" style="stroke: #A80036; stroke-width: 1.0;"/><polygon fill="#A80036" points="241.29,449.39,236.7287,454.9752,240.1299,461.3338,244.6912,455.7486,241.29,449.39" style="stroke: #A80036; stroke-width: 1.0;"/><text fill="#000000" font-family="sans-serif" font-size="13" lengthAdjust="spacingAndGlyphs" textLength="8" x="232.228" y="469.2989">1</text><text fill="#000000" font-family="sans-serif" font-size="13" lengthAdjust="spacingAndGlyphs" textLength="22" x="190.9988" y="714.2782">0..*</text><!--MD5=[2f4d0e5ee126d8e20014160a7ca16fd5]
link CombinedFileDifference to File--><path d="M191.43,796 C184.86,812.45 181.37,831.81 191,847 C205.72,870.23 228.79,887.16 253.49,899.45 " fill="none" id="CombinedFileDifference-File" style="stroke: #A80036; stroke-width: 1.0;"/><text fill="#000000" font-family="sans-serif" font-size="13" lengthAdjust="spacingAndGlyphs" textLength="13" x="192" y="843.5684">of</text><polygon fill="#000000" points="194,852.3105,197,858.3105,200,852.3105,194,852.3105" style="stroke: #000000; stroke-width: 1.0;"/><text fill="#000000" font-family="sans-serif" font-size="13" lengthAdjust="spacingAndGlyphs" textLength="22" x="163.7937" y="816.5253">0..*</text><text fill="#000000" font-family="sans-serif" font-size="13" lengthAdjust="spacingAndGlyphs" textLength="24" x="221.3214" y="894.4641">0..1</text><!--MD5=[2f4d0e5ee126d8e20014160a7ca16fd5]
link CombinedFileDifference to File--><path d="M226.32,796.03 C234.6,812.48 245.83,831.83 259,847 C271.21,861.06 286.11,874.31 300.95,885.94 " fill="none" id="CombinedFileDifference-File-1" style="stroke: #A80036; stroke-width: 1.0;"/><text fill="#000000" font-family="sans-serif" font-size="13" lengthAdjust="spacingAndGlyphs" textLength="79" x="260" y="843.5684">compared to</text><polygon fill="#000000" points="295,852.3105,298,858.3105,301,852.3105,295,852.3105" style="stroke: #000000; stroke-width: 1.0;"/><text fill="#000000" font-family="sans-serif" font-size="13" lengthAdjust="spacingAndGlyphs" textLength="22" x="205.1165" y="816.5608">0..*</text><text fill="#000000" font-family="sans-serif" font-size="13" lengthAdjust="spacingAndGlyphs" textLength="22" x="266.8455" y="875.3343">0..*</text><!--MD5=[06c69e77ac539bf04b046e7f055fb30f]
link CombinedFileDifference to FileChangeKind--><path d="M150.79,796.24 C139.57,805.67 129.37,816.95 123,830 C116.79,842.7 114.78,857.42 114.96,871.62 " fill="none" id="CombinedFileDifference-&gt;FileChangeKind" style="stroke: #A80036; stroke-width: 1.0;"/><polygon fill="#A80036" points="115.11,876.83,118.8513,867.7194,114.9672,871.832,110.8546,867.9479,115.11,876.83" style="stroke: #A80036; stroke-width: 1.0;"/><text fill="#000000" font-family="sans-serif" font-size="13" lengthAdjust="spacingAndGlyphs" textLength="13" x="124" y="843.5684">of</text><polygon fill="#000000" points="126,852.3105,129,858.3105,132,852.3105,126,852.3105" style="stroke: #000000; stroke-width: 1.0;"/><!--MD5=[ba1351391f839140881fdf6c9fe08744]
link CodeSmell to Location--><path d="M549.62,644.26 C547.06,667.59 544.17,694.01 541.8,715.67 " fill="none" id="CodeSmell-&gt;Location" style="stroke: #A80036; stroke-width: 1.0;"/><polygon fill="#A80036" points="541.24,720.78,546.1933,712.2674,541.7828,715.8095,538.2406,711.399,541.24,720.78" style="stroke: #A80036; stroke-width: 1.0;"/><text fill="#000000" font-family="sans-serif" font-size="13" lengthAdjust="spacingAndGlyphs" textLength="12" x="547" y="687.5684">at</text><polygon fill="#000000" points="548.5,696.3105,551.5,702.3105,554.5,696.3105,548.5,696.3105" style="stroke: #000000; stroke-width: 1.0;"/><text fill="#000000" font-family="sans-serif" font-size="13" lengthAdjust="spacingAndGlyphs" textLength="24" x="523.4948" y="664.5733">1..n</text><text fill="#000000" font-family="sans-serif" font-size="13" lengthAdjust="spacingAndGlyphs" textLength="24" x="515.9063" y="710.2593">0..n</text><!--MD5=[7d9a2313ce146470dea6d4c236945239]
link Location to File--><path d="M498.45,800.39 C474.35,824.7 443.11,856.22 417.36,882.21 " fill="none" id="Location-&gt;File" style="stroke: #A80036; stroke-width: 1.0;"/><polygon fill="#A80036" points="413.6,886,422.778,882.4273,417.1212,882.4502,417.0983,876.7934,413.6,886" style="stroke: #A80036; stroke-width: 1.0;"/><text fill="#000000" font-family="sans-serif" font-size="13" lengthAdjust="spacingAndGlyphs" textLength="12" x="470" y="843.5684">in</text><polygon fill="#000000" points="471.5,852.3105,474.5,858.3105,477.5,852.3105,471.5,852.3105" style="stroke: #000000; stroke-width: 1.0;"/><!--MD5=[bba504be18b0ca9902f2d4fdb48fd109]
link Location to Range--><path d="M544.8,800.39 C550.7,829.83 558.73,869.84 564.34,897.79 " fill="none" id="Location-&gt;Range" style="stroke: #A80036; stroke-width: 1.0;"/><polygon fill="#A80036" points="565.35,902.87,567.5019,893.2591,564.3667,897.9676,559.6581,894.8324,565.35,902.87" style="stroke: #A80036; stroke-width: 1.0;"/><text fill="#000000" font-family="sans-serif" font-size="13" lengthAdjust="spacingAndGlyphs" textLength="12" x="555" y="843.5684">at</text><polygon fill="#000000" points="556.5,852.3105,559.5,858.3105,562.5,852.3105,556.5,852.3105" style="stroke: #000000; stroke-width: 1.0;"/><!--MD5=[fea857486dbdc6b824b8831af24c592c]
link Range to Position--><path d="M550.99,961.04 C541.06,976.69 530.11,997.03 525,1017 C521.14,1032.07 527.57,1047.08 536.68,1059.68 " fill="none" id="Range-&gt;Position" style="stroke: #A80036; stroke-width: 1.0;"/><polygon fill="#A80036" points="539.86,1063.85,537.5832,1054.2679,536.8281,1059.8742,531.2218,1059.119,539.86,1063.85" style="stroke: #A80036; stroke-width: 1.0;"/><text fill="#000000" font-family="sans-serif" font-size="13" lengthAdjust="spacingAndGlyphs" textLength="30" x="526" y="1030.5684">from</text><polygon fill="#000000" points="536.5,1039.3105,539.5,1045.3105,542.5,1039.3105,536.5,1039.3105" style="stroke: #000000; stroke-width: 1.0;"/><!--MD5=[fea857486dbdc6b824b8831af24c592c]
link Range to Position--><path d="M572.81,961.3 C573.87,981.55 574.84,1009.46 574,1034 C573.72,1042.1 573.22,1050.83 572.67,1059 " fill="none" id="Range-&gt;Position-1" style="stroke: #A80036; stroke-width: 1.0;"/><polygon fill="#A80036" points="572.32,1063.99,576.9528,1055.2988,572.6773,1059.0028,568.9733,1054.7272,572.32,1063.99" style="stroke: #A80036; stroke-width: 1.0;"/><text fill="#000000" font-family="sans-serif" font-size="13" lengthAdjust="spacingAndGlyphs" textLength="13" x="576" y="1030.5684">to</text><polygon fill="#000000" points="578,1039.3105,581,1045.3105,584,1039.3105,578,1039.3105" style="stroke: #000000; stroke-width: 1.0;"/><!--MD5=[7613b5bb39efec6b4ed009dc07b12e35]
reverse link CodeSmellLifespan to CodeSmell--><path d="M573.65,462.3 C570.61,483.26 567.32,505.93 564.42,525.95 " fill="none" id="CodeSmellLifespan&lt;-CodeSmell" style="stroke: #A80036; stroke-width: 1.0;"/><polygon fill="#A80036" points="575.56,449.17,570.7375,454.5313,573.8315,461.0449,578.6541,455.6836,575.56,449.17" style="stroke: #A80036; stroke-width: 1.0;"/><text fill="#000000" font-family="sans-serif" font-size="13" lengthAdjust="spacingAndGlyphs" textLength="8" x="566.1216" y="469.4729">1</text><text fill="#000000" font-family="sans-serif" font-size="13" lengthAdjust="spacingAndGlyphs" textLength="24" x="539.9837" y="515.4348">1..n</text><!--MD5=[9371a73726d20c19e4b0ce090614fb4b]
reverse link File to CodeSmell--><path d="M491.21,881.09 C494.84,879.7 498.44,878.33 502,877 C575.14,849.56 623.02,868.81 660,800 C687.86,748.15 652.48,687.71 615.63,644.32 " fill="none" id="File&lt;-CodeSmell" style="stroke: #A80036; stroke-width: 1.0;"/><polygon fill="#A80036" points="478.77,885.89,485.809,887.4562,489.962,881.561,482.923,879.9949,478.77,885.89" style="stroke: #A80036; stroke-width: 1.0;"/><polygon fill="#000000" points="692.5,763,695.5,757,698.5,763,692.5,763" style="stroke: #000000; stroke-width: 1.0;"/><text fill="#000000" font-family="sans-serif" font-size="13" lengthAdjust="spacingAndGlyphs" textLength="54" x="670" y="778.5684">contains</text><text fill="#000000" font-family="sans-serif" font-size="13" lengthAdjust="spacingAndGlyphs" textLength="22" x="471.8942" y="875.2767">1..*</text><text fill="#000000" font-family="sans-serif" font-size="13" lengthAdjust="spacingAndGlyphs" textLength="22" x="599.2528" y="664.6403">0..*</text><!--MD5=[d19825e44517e95c2be8c8cea60152e4]
link Relay.Connection to Relay.Edge--><path d="M739.45,117.09 C723.71,138.62 701.96,168.35 685.52,190.84 " fill="none" id="Relay.Connection-&gt;Relay.Edge" style="stroke: #A80036; stroke-width: 1.0;"/><polygon fill="#A80036" points="682.51,194.95,691.0406,190.0276,685.4526,190.9076,684.5726,185.3196,682.51,194.95" style="stroke: #A80036; stroke-width: 1.0;"/><!--MD5=[f9adffbad04fd0d7decf6dc891dbb163]
link Relay.Connection to Relay.PageInfo--><path d="M775.09,117.09 C785.48,136.44 799.44,162.4 810.92,183.78 " fill="none" id="Relay.Connection-&gt;Relay.PageInfo" style="stroke: #A80036; stroke-width: 1.0;"/><polygon fill="#A80036" points="813.34,188.27,812.5912,178.4496,810.9678,183.8686,805.5489,182.2452,813.34,188.27" style="stroke: #A80036; stroke-width: 1.0;"/><!--MD5=[a6d46895fa9918fd57141223362e9078]
@startuml GraphQL
hide circle
hide empty members

class Query {
  {method} +repository(name: String!): Repository
  {method} +repositories: Connection<Repository>!
}
Query - -> Repository

class Repository {
  +name: String!
  {method} +commit(oid: String!): Commit
  {method} +commits: Connection<Commit>!
  {method} +codeSmellLifespans: Connection<CodeSmellLifespan>!
}
Repository "1" *- - "0..*" Commit
Repository "1" *- - "0..*" CodeSmellLifespan

class Commit {
  +oid: String!
  +committer: Signature!
  +author: Signature!
  {method} +combinedFileDifferencees: Connection<CombinedFileDifference>!
  {method} +codeSmells: Connection<CodeSmell>!
  {method} +files: Connection<File>!
}
Commit - -> Signature : committed by >
Commit - -> Signature : authored by >
Commit "1" *- - "0..*" CodeSmell
Commit "1" *- - "0..*" File
Commit "1" *- - "0..*" CombinedFileDifference

class CombinedFileDifference {
  +changeKinds: [FileChangeKind!]!
  +headFile: File
  +baseFiles: [File]!
}
CombinedFileDifference "0..*" - - "0..1" File : of >
CombinedFileDifference "0..*" - - "0..*" File : compared to >
CombinedFileDifference - -> FileChangeKind : of >

enum FileChangeKind {
  ADDED
  COPIED
  DELETED
  MODIFIED
  RENAMED
  TYPE_CHANGED
}

class Signature {
  +name: String!
  +email: String!
  +date: String!
}

class CodeSmell {
  +id: ID!
  +message: String!
  +commit: Commit!
  +locations: [Location!]!
  +ordinal: Int!
  {method} +lifespan: CodeSmellLifespan!
}
CodeSmell "1..n" - -> "0..n" Location : at >

class Location {
  +file: File!
  +range: Range!
  +contents(encoding: String): String!
}
Location - -> File : in >
Location - -> Range : at >
class Range {
  +start: Position!
  +end: Position!
}
Range - -> Position : from >
Range - -> Position : to >
class Position {
  +line: Int!
  +character: Int!
}

class CodeSmellLifespan {
  +id: ID!
  +kind: String!
  +repository: Repository!
  +duration: String!
  +interval: String!
  {method} +instances: Connection<CodeSmell>!
}
CodeSmellLifespan "1" *- - "1..n" CodeSmell

class File {
  +path: String!
  +linesCount: Int!
  +contents(encoding: String): String!
  {method} +codeSmells: Connection<CodeSmell>!
}
File "1..*" *- - "0..*" CodeSmell : contains >

namespace Relay {
  interface Connection<TNode> {
    +pageInfo: PageInfo!
    +edges: [Edge<TNode>!]!
  }
  Connection - -> Edge
  Connection - -> PageInfo
  class PageInfo {
    +endCursor: String!
    +hasNextPage: Boolean!
    +hasPreviousPage: Boolean!
  }
  interface Edge<TNode> {
    +node: TNode!
    +cursor: String!
  }
}
@enduml

PlantUML version 1.2019.13(Tue Dec 10 18:18:29 CET 2019)
(GPL source distribution)
Java Runtime: Java(TM) SE Runtime Environment
JVM: Java HotSpot(TM) 64-Bit Server VM
Java Version: 13.0.1+9
Operating System: Mac OS X
Default Encoding: UTF-8
Language: en
Country: US
--></g></svg>