<?xml version="1.0" encoding="UTF-8" standalone="no"?><svg xmlns="http://www.w3.org/2000/svg" xmlns:xlink="http://www.w3.org/1999/xlink" contentScriptType="application/ecmascript" contentStyleType="text/css" height="1032px" preserveAspectRatio="none" style="width:790px;height:1032px;" version="1.1" viewBox="0 0 790 1032" width="790px" zoomAndPan="magnify"><defs><filter height="300%" id="fetdnpx8mzhux" width="300%" x="-1" y="-1"><feGaussianBlur result="blurOut" stdDeviation="2.0"/><feColorMatrix in="blurOut" result="blurOut2" type="matrix" values="0 0 0 0 0 0 0 0 0 0 0 0 0 0 0 0 0 0 .4 0"/><feOffset dx="4.0" dy="4.0" in="blurOut2" result="blurOut3"/><feBlend in="SourceGraphic" in2="blurOut3" mode="normal"/></filter></defs><g><!--MD5=[6eafbb38dcfd991ac99fbc2abc212727]
cluster Relay--><polygon fill="#FFFFFF" filter="url(#fetdnpx8mzhux)" points="430,24,475,24,482,46.4883,768,46.4883,768,274.5,430,274.5,430,24" style="stroke: #000000; stroke-width: 1.5;"/><line style="stroke: #000000; stroke-width: 1.5;" x1="430" x2="482" y1="46.4883" y2="46.4883"/><text fill="#000000" font-family="sans-serif" font-size="14" font-weight="bold" lengthAdjust="spacingAndGlyphs" textLength="39" x="434" y="39.5352">Relay</text><!--MD5=[1cd78e98e7a9839702c223eab4979b1f]
class Relay.Connection--><rect fill="#FEFECE" filter="url(#fetdnpx8mzhux)" height="58.043" id="Relay.Connection" style="stroke: #A80036; stroke-width: 1.5;" width="157" x="517.5" y="59"/><text fill="#000000" font-family="sans-serif" font-size="12" font-style="italic" lengthAdjust="spacingAndGlyphs" textLength="63" x="543" y="75.6016">Connection</text><rect fill="#FFFFFF" height="16.1328" style="stroke: #000000; stroke-width: 1.0; stroke-dasharray: 2.0,2.0;" width="41" x="636.5" y="56"/><text fill="#000000" font-family="sans-serif" font-size="12" font-style="italic" lengthAdjust="spacingAndGlyphs" textLength="39" x="637.5" y="68.6016">TNode</text><line style="stroke: #A80036; stroke-width: 1.5;" x1="518.5" x2="673.5" y1="83.1328" y2="83.1328"/><ellipse cx="528.5" cy="94.1328" fill="none" rx="3" ry="3" style="stroke: #038048; stroke-width: 1.0;"/><text fill="#000000" font-family="sans-serif" font-size="11" lengthAdjust="spacingAndGlyphs" textLength="102" x="537.5" y="97.7676">pageInfo: PageInfo!</text><ellipse cx="528.5" cy="107.0879" fill="none" rx="3" ry="3" style="stroke: #038048; stroke-width: 1.0;"/><text fill="#000000" font-family="sans-serif" font-size="11" lengthAdjust="spacingAndGlyphs" textLength="131" x="537.5" y="110.7227">edges: [Edge&lt;TNode&gt;!]!</text><!--MD5=[09264cef9c0e64048c6e1196cdd5527b]
class Relay.Edge--><rect fill="#FEFECE" filter="url(#fetdnpx8mzhux)" height="58.043" id="Relay.Edge" style="stroke: #A80036; stroke-width: 1.5;" width="103" x="446.5" y="194"/><text fill="#000000" font-family="sans-serif" font-size="12" font-style="italic" lengthAdjust="spacingAndGlyphs" textLength="29" x="462" y="210.6016">Edge</text><rect fill="#FFFFFF" height="16.1328" style="stroke: #000000; stroke-width: 1.0; stroke-dasharray: 2.0,2.0;" width="41" x="511.5" y="191"/><text fill="#000000" font-family="sans-serif" font-size="12" font-style="italic" lengthAdjust="spacingAndGlyphs" textLength="39" x="512.5" y="203.6016">TNode</text><line style="stroke: #A80036; stroke-width: 1.5;" x1="447.5" x2="548.5" y1="218.1328" y2="218.1328"/><ellipse cx="457.5" cy="229.1328" fill="none" rx="3" ry="3" style="stroke: #038048; stroke-width: 1.0;"/><text fill="#000000" font-family="sans-serif" font-size="11" lengthAdjust="spacingAndGlyphs" textLength="71" x="466.5" y="232.7676">node: TNode!</text><ellipse cx="457.5" cy="242.0879" fill="none" rx="3" ry="3" style="stroke: #038048; stroke-width: 1.0;"/><text fill="#000000" font-family="sans-serif" font-size="11" lengthAdjust="spacingAndGlyphs" textLength="77" x="466.5" y="245.7227">cursor: String!</text><!--MD5=[ca08750fa789013f748736181f871b53]
class Relay.PageInfo--><rect fill="#FEFECE" filter="url(#fetdnpx8mzhux)" height="70.998" id="Relay.PageInfo" style="stroke: #A80036; stroke-width: 1.5;" width="167" x="584.5" y="187.5"/><text fill="#000000" font-family="sans-serif" font-size="12" lengthAdjust="spacingAndGlyphs" textLength="49" x="643.5" y="204.1016">PageInfo</text><line style="stroke: #A80036; stroke-width: 1.5;" x1="585.5" x2="750.5" y1="211.6328" y2="211.6328"/><ellipse cx="595.5" cy="222.6328" fill="none" rx="3" ry="3" style="stroke: #038048; stroke-width: 1.0;"/><text fill="#000000" font-family="sans-serif" font-size="11" lengthAdjust="spacingAndGlyphs" textLength="99" x="604.5" y="226.2676">endCursor: String!</text><ellipse cx="595.5" cy="235.5879" fill="none" rx="3" ry="3" style="stroke: #038048; stroke-width: 1.0;"/><text fill="#000000" font-family="sans-serif" font-size="11" lengthAdjust="spacingAndGlyphs" textLength="120" x="604.5" y="239.2227">hasNextPage: Boolean!</text><ellipse cx="595.5" cy="248.543" fill="none" rx="3" ry="3" style="stroke: #038048; stroke-width: 1.0;"/><text fill="#000000" font-family="sans-serif" font-size="11" lengthAdjust="spacingAndGlyphs" textLength="141" x="604.5" y="252.1777">hasPreviousPage: Boolean!</text><!--MD5=[91221848cc6fc2b51471cfb300e81a0a]
class Query--><rect fill="#FEFECE" filter="url(#fetdnpx8mzhux)" height="58.043" id="Query" style="stroke: #A80036; stroke-width: 1.5;" width="238" x="132" y="59"/><text fill="#000000" font-family="sans-serif" font-size="12" lengthAdjust="spacingAndGlyphs" textLength="34" x="234" y="75.6016">Query</text><line style="stroke: #A80036; stroke-width: 1.5;" x1="133" x2="369" y1="83.1328" y2="83.1328"/><ellipse cx="143" cy="94.1328" fill="#84BE84" rx="3" ry="3" style="stroke: #038048; stroke-width: 1.0;"/><text fill="#000000" font-family="sans-serif" font-size="11" lengthAdjust="spacingAndGlyphs" textLength="198" x="152" y="97.7676">repository(name: String!): Repository</text><ellipse cx="143" cy="107.0879" fill="#84BE84" rx="3" ry="3" style="stroke: #038048; stroke-width: 1.0;"/><text fill="#000000" font-family="sans-serif" font-size="11" lengthAdjust="spacingAndGlyphs" textLength="212" x="152" y="110.7227">repositories: Connection&lt;Repository&gt;!</text><!--MD5=[c05f8d4c5007184b0fb1ea93cdb8d9fe]
class Repository--><rect fill="#FEFECE" filter="url(#fetdnpx8mzhux)" height="91.9531" id="Repository" style="stroke: #A80036; stroke-width: 1.5;" width="321" x="90.5" y="177"/><text fill="#000000" font-family="sans-serif" font-size="12" lengthAdjust="spacingAndGlyphs" textLength="61" x="220.5" y="193.6016">Repository</text><line style="stroke: #A80036; stroke-width: 1.5;" x1="91.5" x2="410.5" y1="201.1328" y2="201.1328"/><ellipse cx="101.5" cy="212.1328" fill="none" rx="3" ry="3" style="stroke: #038048; stroke-width: 1.0;"/><text fill="#000000" font-family="sans-serif" font-size="11" lengthAdjust="spacingAndGlyphs" textLength="70" x="110.5" y="215.7676">name: String!</text><line style="stroke: #A80036; stroke-width: 1.5;" x1="91.5" x2="410.5" y1="222.0879" y2="222.0879"/><ellipse cx="101.5" cy="233.0879" fill="#84BE84" rx="3" ry="3" style="stroke: #038048; stroke-width: 1.0;"/><text fill="#000000" font-family="sans-serif" font-size="11" lengthAdjust="spacingAndGlyphs" textLength="156" x="110.5" y="236.7227">commit(sha: String!): Commit</text><ellipse cx="101.5" cy="246.043" fill="#84BE84" rx="3" ry="3" style="stroke: #038048; stroke-width: 1.0;"/><text fill="#000000" font-family="sans-serif" font-size="11" lengthAdjust="spacingAndGlyphs" textLength="177" x="110.5" y="249.6777">commits: Connection&lt;Commit&gt;!</text><ellipse cx="101.5" cy="258.998" fill="#84BE84" rx="3" ry="3" style="stroke: #038048; stroke-width: 1.0;"/><text fill="#000000" font-family="sans-serif" font-size="11" lengthAdjust="spacingAndGlyphs" textLength="295" x="110.5" y="262.6328">codeSmellLifespans: Connection&lt;CodeSmellLifespan&gt;!</text><!--MD5=[4da33e036383ae2c9d7a81b1e09b72e8]
class Commit--><rect fill="#FEFECE" filter="url(#fetdnpx8mzhux)" height="104.9082" id="Commit" style="stroke: #A80036; stroke-width: 1.5;" width="203" x="25.5" y="335.5"/><text fill="#000000" font-family="sans-serif" font-size="12" lengthAdjust="spacingAndGlyphs" textLength="44" x="105" y="352.1016">Commit</text><line style="stroke: #A80036; stroke-width: 1.5;" x1="26.5" x2="227.5" y1="359.6328" y2="359.6328"/><ellipse cx="36.5" cy="370.6328" fill="none" rx="3" ry="3" style="stroke: #038048; stroke-width: 1.0;"/><text fill="#000000" font-family="sans-serif" font-size="11" lengthAdjust="spacingAndGlyphs" textLength="60" x="45.5" y="374.2676">sha: String!</text><ellipse cx="36.5" cy="383.5879" fill="none" rx="3" ry="3" style="stroke: #038048; stroke-width: 1.0;"/><text fill="#000000" font-family="sans-serif" font-size="11" lengthAdjust="spacingAndGlyphs" textLength="115" x="45.5" y="387.2227">committer: Signature!</text><ellipse cx="36.5" cy="396.543" fill="none" rx="3" ry="3" style="stroke: #038048; stroke-width: 1.0;"/><text fill="#000000" font-family="sans-serif" font-size="11" lengthAdjust="spacingAndGlyphs" textLength="96" x="45.5" y="400.1777">author: Signature!</text><line style="stroke: #A80036; stroke-width: 1.5;" x1="26.5" x2="227.5" y1="406.498" y2="406.498"/><ellipse cx="36.5" cy="417.498" fill="#84BE84" rx="3" ry="3" style="stroke: #038048; stroke-width: 1.0;"/><text fill="#000000" font-family="sans-serif" font-size="11" lengthAdjust="spacingAndGlyphs" textLength="129" x="45.5" y="421.1328">files: Connection&lt;File&gt;!</text><ellipse cx="36.5" cy="430.4531" fill="#84BE84" rx="3" ry="3" style="stroke: #038048; stroke-width: 1.0;"/><text fill="#000000" font-family="sans-serif" font-size="11" lengthAdjust="spacingAndGlyphs" textLength="177" x="45.5" y="434.0879">changedFiles: Connection&lt;File&gt;!</text><!--MD5=[14d32a97c52c5f9b113614086055026b]
class CodeSmellLifespan--><rect fill="#FEFECE" filter="url(#fetdnpx8mzhux)" height="117.8633" id="CodeSmellLifespan" style="stroke: #A80036; stroke-width: 1.5;" width="222" x="264" y="329"/><text fill="#000000" font-family="sans-serif" font-size="12" lengthAdjust="spacingAndGlyphs" textLength="108" x="321" y="345.6016">CodeSmellLifespan</text><line style="stroke: #A80036; stroke-width: 1.5;" x1="265" x2="485" y1="353.1328" y2="353.1328"/><ellipse cx="275" cy="364.1328" fill="none" rx="3" ry="3" style="stroke: #038048; stroke-width: 1.0;"/><text fill="#000000" font-family="sans-serif" font-size="11" lengthAdjust="spacingAndGlyphs" textLength="30" x="284" y="367.7676">id: ID!</text><ellipse cx="275" cy="377.0879" fill="none" rx="3" ry="3" style="stroke: #038048; stroke-width: 1.0;"/><text fill="#000000" font-family="sans-serif" font-size="11" lengthAdjust="spacingAndGlyphs" textLength="64" x="284" y="380.7227">kind: String!</text><ellipse cx="275" cy="390.043" fill="none" rx="3" ry="3" style="stroke: #038048; stroke-width: 1.0;"/><text fill="#000000" font-family="sans-serif" font-size="11" lengthAdjust="spacingAndGlyphs" textLength="123" x="284" y="393.6777">repository: Repository!</text><ellipse cx="275" cy="402.998" fill="none" rx="3" ry="3" style="stroke: #038048; stroke-width: 1.0;"/><text fill="#000000" font-family="sans-serif" font-size="11" lengthAdjust="spacingAndGlyphs" textLength="87" x="284" y="406.6328">duration: String!</text><ellipse cx="275" cy="415.9531" fill="none" rx="3" ry="3" style="stroke: #038048; stroke-width: 1.0;"/><text fill="#000000" font-family="sans-serif" font-size="11" lengthAdjust="spacingAndGlyphs" textLength="81" x="284" y="419.5879">interval: String!</text><line style="stroke: #A80036; stroke-width: 1.5;" x1="265" x2="485" y1="425.9082" y2="425.9082"/><ellipse cx="275" cy="436.9082" fill="#84BE84" rx="3" ry="3" style="stroke: #038048; stroke-width: 1.0;"/><text fill="#000000" font-family="sans-serif" font-size="11" lengthAdjust="spacingAndGlyphs" textLength="196" x="284" y="440.543">instances: Connection&lt;CodeSmell&gt;!</text><!--MD5=[79b2c35a8607833edf9d17d918b0cb90]
class Signature--><rect fill="#FEFECE" filter="url(#fetdnpx8mzhux)" height="70.998" id="Signature" style="stroke: #A80036; stroke-width: 1.5;" width="96" x="6" y="530.5"/><text fill="#000000" font-family="sans-serif" font-size="12" lengthAdjust="spacingAndGlyphs" textLength="53" x="27.5" y="547.1016">Signature</text><line style="stroke: #A80036; stroke-width: 1.5;" x1="7" x2="101" y1="554.6328" y2="554.6328"/><ellipse cx="17" cy="565.6328" fill="none" rx="3" ry="3" style="stroke: #038048; stroke-width: 1.0;"/><text fill="#000000" font-family="sans-serif" font-size="11" lengthAdjust="spacingAndGlyphs" textLength="70" x="26" y="569.2676">name: String!</text><ellipse cx="17" cy="578.5879" fill="none" rx="3" ry="3" style="stroke: #038048; stroke-width: 1.0;"/><text fill="#000000" font-family="sans-serif" font-size="11" lengthAdjust="spacingAndGlyphs" textLength="69" x="26" y="582.2227">email: String!</text><ellipse cx="17" cy="591.543" fill="none" rx="3" ry="3" style="stroke: #038048; stroke-width: 1.0;"/><text fill="#000000" font-family="sans-serif" font-size="11" lengthAdjust="spacingAndGlyphs" textLength="64" x="26" y="595.1777">date: String!</text><!--MD5=[90af14acebbc533b6fea97f131b1446c]
class CodeSmell--><rect fill="#FEFECE" filter="url(#fetdnpx8mzhux)" height="117.8633" id="CodeSmell" style="stroke: #A80036; stroke-width: 1.5;" width="178" x="258" y="507"/><text fill="#000000" font-family="sans-serif" font-size="12" lengthAdjust="spacingAndGlyphs" textLength="60" x="317" y="523.6016">CodeSmell</text><line style="stroke: #A80036; stroke-width: 1.5;" x1="259" x2="435" y1="531.1328" y2="531.1328"/><ellipse cx="269" cy="542.1328" fill="none" rx="3" ry="3" style="stroke: #038048; stroke-width: 1.0;"/><text fill="#000000" font-family="sans-serif" font-size="11" lengthAdjust="spacingAndGlyphs" textLength="30" x="278" y="545.7676">id: ID!</text><ellipse cx="269" cy="555.0879" fill="none" rx="3" ry="3" style="stroke: #038048; stroke-width: 1.0;"/><text fill="#000000" font-family="sans-serif" font-size="11" lengthAdjust="spacingAndGlyphs" textLength="88" x="278" y="558.7227">message: String!</text><ellipse cx="269" cy="568.043" fill="none" rx="3" ry="3" style="stroke: #038048; stroke-width: 1.0;"/><text fill="#000000" font-family="sans-serif" font-size="11" lengthAdjust="spacingAndGlyphs" textLength="91" x="278" y="571.6777">commit: Commit!</text><ellipse cx="269" cy="580.998" fill="none" rx="3" ry="3" style="stroke: #038048; stroke-width: 1.0;"/><text fill="#000000" font-family="sans-serif" font-size="11" lengthAdjust="spacingAndGlyphs" textLength="115" x="278" y="584.6328">locations: [Location!]!</text><ellipse cx="269" cy="593.9531" fill="none" rx="3" ry="3" style="stroke: #038048; stroke-width: 1.0;"/><text fill="#000000" font-family="sans-serif" font-size="11" lengthAdjust="spacingAndGlyphs" textLength="61" x="278" y="597.5879">ordinal: Int!</text><line style="stroke: #A80036; stroke-width: 1.5;" x1="259" x2="435" y1="603.9082" y2="603.9082"/><ellipse cx="269" cy="614.9082" fill="#84BE84" rx="3" ry="3" style="stroke: #038048; stroke-width: 1.0;"/><text fill="#000000" font-family="sans-serif" font-size="11" lengthAdjust="spacingAndGlyphs" textLength="152" x="278" y="618.543">lifespan: CodeSmellLifespan!</text><!--MD5=[63dd87716ef75a5caca5dce59428e94a]
class File--><rect fill="#FEFECE" filter="url(#fetdnpx8mzhux)" height="78.998" id="File" style="stroke: #A80036; stroke-width: 1.5;" width="210" x="50" y="824"/><text fill="#000000" font-family="sans-serif" font-size="12" lengthAdjust="spacingAndGlyphs" textLength="19" x="145.5" y="840.6016">File</text><line style="stroke: #A80036; stroke-width: 1.5;" x1="51" x2="259" y1="848.1328" y2="848.1328"/><ellipse cx="61" cy="859.1328" fill="none" rx="3" ry="3" style="stroke: #038048; stroke-width: 1.0;"/><text fill="#000000" font-family="sans-serif" font-size="11" lengthAdjust="spacingAndGlyphs" textLength="65" x="70" y="862.7676">path: String!</text><ellipse cx="61" cy="872.0879" fill="none" rx="3" ry="3" style="stroke: #038048; stroke-width: 1.0;"/><text fill="#000000" font-family="sans-serif" font-size="11" lengthAdjust="spacingAndGlyphs" textLength="81" x="70" y="875.7227">linesCount: Int!</text><line style="stroke: #A80036; stroke-width: 1.5;" x1="51" x2="259" y1="882.043" y2="882.043"/><ellipse cx="61" cy="893.043" fill="#84BE84" rx="3" ry="3" style="stroke: #038048; stroke-width: 1.0;"/><text fill="#000000" font-family="sans-serif" font-size="11" lengthAdjust="spacingAndGlyphs" textLength="184" x="70" y="896.6777">contents(encoding: String): String!</text><!--MD5=[4f1f3706c1a355a8488e154afcaed5df]
class Location--><rect fill="#FEFECE" filter="url(#fetdnpx8mzhux)" height="78.998" id="Location" style="stroke: #A80036; stroke-width: 1.5;" width="210" x="242" y="685"/><text fill="#000000" font-family="sans-serif" font-size="12" lengthAdjust="spacingAndGlyphs" textLength="47" x="323.5" y="701.6016">Location</text><line style="stroke: #A80036; stroke-width: 1.5;" x1="243" x2="451" y1="709.1328" y2="709.1328"/><ellipse cx="253" cy="720.1328" fill="none" rx="3" ry="3" style="stroke: #038048; stroke-width: 1.0;"/><text fill="#000000" font-family="sans-serif" font-size="11" lengthAdjust="spacingAndGlyphs" textLength="43" x="262" y="723.7676">file: File!</text><ellipse cx="253" cy="733.0879" fill="none" rx="3" ry="3" style="stroke: #038048; stroke-width: 1.0;"/><text fill="#000000" font-family="sans-serif" font-size="11" lengthAdjust="spacingAndGlyphs" textLength="73" x="262" y="736.7227">range: Range!</text><line style="stroke: #A80036; stroke-width: 1.5;" x1="243" x2="451" y1="743.043" y2="743.043"/><ellipse cx="253" cy="754.043" fill="#84BE84" rx="3" ry="3" style="stroke: #038048; stroke-width: 1.0;"/><text fill="#000000" font-family="sans-serif" font-size="11" lengthAdjust="spacingAndGlyphs" textLength="184" x="262" y="757.6777">contents(encoding: String): String!</text><!--MD5=[2f49539d777d8d7526d361413cf07525]
class Range--><rect fill="#FEFECE" filter="url(#fetdnpx8mzhux)" height="58.043" id="Range" style="stroke: #A80036; stroke-width: 1.5;" width="103" x="295.5" y="834.5"/><text fill="#000000" font-family="sans-serif" font-size="12" lengthAdjust="spacingAndGlyphs" textLength="36" x="329" y="851.1016">Range</text><line style="stroke: #A80036; stroke-width: 1.5;" x1="296.5" x2="397.5" y1="858.6328" y2="858.6328"/><ellipse cx="306.5" cy="869.6328" fill="none" rx="3" ry="3" style="stroke: #038048; stroke-width: 1.0;"/><text fill="#000000" font-family="sans-serif" font-size="11" lengthAdjust="spacingAndGlyphs" textLength="77" x="315.5" y="873.2676">start: Position!</text><ellipse cx="306.5" cy="882.5879" fill="none" rx="3" ry="3" style="stroke: #038048; stroke-width: 1.0;"/><text fill="#000000" font-family="sans-serif" font-size="11" lengthAdjust="spacingAndGlyphs" textLength="72" x="315.5" y="886.2227">end: Position!</text><!--MD5=[a64a835c3d62471a77f615251fdde58a]
class Position--><rect fill="#FEFECE" filter="url(#fetdnpx8mzhux)" height="58.043" id="Position" style="stroke: #A80036; stroke-width: 1.5;" width="100" x="297" y="963"/><text fill="#000000" font-family="sans-serif" font-size="12" lengthAdjust="spacingAndGlyphs" textLength="44" x="325" y="979.6016">Position</text><line style="stroke: #A80036; stroke-width: 1.5;" x1="298" x2="396" y1="987.1328" y2="987.1328"/><ellipse cx="308" cy="998.1328" fill="none" rx="3" ry="3" style="stroke: #038048; stroke-width: 1.0;"/><text fill="#000000" font-family="sans-serif" font-size="11" lengthAdjust="spacingAndGlyphs" textLength="42" x="317" y="1001.7676">line: Int!</text><ellipse cx="308" cy="1011.0879" fill="none" rx="3" ry="3" style="stroke: #038048; stroke-width: 1.0;"/><text fill="#000000" font-family="sans-serif" font-size="11" lengthAdjust="spacingAndGlyphs" textLength="74" x="317" y="1014.7227">character: Int!</text><!--MD5=[d808edad4c24fcaca61f5f61bc46bfc7]
link Query to Repository--><path d="M251,117.21 C251,133.03 251,153.24 251,171.68 " fill="none" id="Query-&gt;Repository" style="stroke: #A80036; stroke-width: 1.0;"/><polygon fill="#A80036" points="251,176.83,255,167.83,251,171.83,247,167.83,251,176.83" style="stroke: #A80036; stroke-width: 1.0;"/><!--MD5=[a9b40be1fc33cd0a4e1b52667092735a]
reverse link Repository to Commit--><path d="M208.4,279.99 C194.78,297.9 179.77,317.64 166.38,335.23 " fill="none" id="Repository&lt;-Commit" style="stroke: #A80036; stroke-width: 1.0;"/><polygon fill="#A80036" points="216.46,269.4,209.6433,271.7521,209.1926,278.9491,216.0094,276.597,216.46,269.4" style="stroke: #A80036; stroke-width: 1.0;"/><text fill="#000000" font-family="sans-serif" font-size="13" lengthAdjust="spacingAndGlyphs" textLength="8" x="203.0403" y="289.5732">1</text><text fill="#000000" font-family="sans-serif" font-size="13" lengthAdjust="spacingAndGlyphs" textLength="22" x="148.1936" y="324.7266">0..*</text><!--MD5=[61322d6ad31b56d6662db4e11a7a3eed]
reverse link Repository to CodeSmellLifespan--><path d="M293.62,280.03 C305.58,295.74 318.6,312.86 330.66,328.71 " fill="none" id="Repository&lt;-CodeSmellLifespan" style="stroke: #A80036; stroke-width: 1.0;"/><polygon fill="#A80036" points="285.54,269.4,285.9906,276.597,292.8074,278.9491,292.3567,271.7521,285.54,269.4" style="stroke: #A80036; stroke-width: 1.0;"/><text fill="#000000" font-family="sans-serif" font-size="13" lengthAdjust="spacingAndGlyphs" textLength="8" x="281.8347" y="289.5732">1</text><text fill="#000000" font-family="sans-serif" font-size="13" lengthAdjust="spacingAndGlyphs" textLength="22" x="301.9154" y="318.1656">0..*</text><!--MD5=[d5389447baac46a53bcf1b3fe7f2197e]
link Commit to Signature--><path d="M105.49,440.85 C94.26,467.95 80.72,500.57 70.35,525.58 " fill="none" id="Commit-&gt;Signature" style="stroke: #A80036; stroke-width: 1.0;"/><polygon fill="#A80036" points="68.32,530.47,75.4634,523.6898,70.236,525.8517,68.0741,520.6242,68.32,530.47" style="stroke: #A80036; stroke-width: 1.0;"/><!--MD5=[be2b6f869df44cb34b7a7286dbd81aae]
reverse link Commit to CodeSmell--><path d="M201.76,448.81 C225.22,467.57 251.06,488.25 274.37,506.9 " fill="none" id="Commit&lt;-CodeSmell" style="stroke: #A80036; stroke-width: 1.0;"/><polygon fill="#A80036" points="191.52,440.62,193.7111,447.4901,200.8956,448.1099,198.7044,441.2398,191.52,440.62" style="stroke: #A80036; stroke-width: 1.0;"/><text fill="#000000" font-family="sans-serif" font-size="13" lengthAdjust="spacingAndGlyphs" textLength="8" x="191.2741" y="460.917">1</text><text fill="#000000" font-family="sans-serif" font-size="13" lengthAdjust="spacingAndGlyphs" textLength="22" x="242.1776" y="496.3787">0..*</text><!--MD5=[206697404f7d017fb43b138904bb0ce5]
reverse link Commit to File--><path d="M130.83,453.78 C136.75,553.81 147.92,742.76 152.72,823.89 " fill="none" id="Commit&lt;-File" style="stroke: #A80036; stroke-width: 1.0;"/><polygon fill="#A80036" points="130.05,440.57,126.4133,446.7969,130.7624,452.5488,134.3991,446.322,130.05,440.57" style="stroke: #A80036; stroke-width: 1.0;"/><text fill="#000000" font-family="sans-serif" font-size="13" lengthAdjust="spacingAndGlyphs" textLength="8" x="121.9283" y="460.8606">1</text><text fill="#000000" font-family="sans-serif" font-size="13" lengthAdjust="spacingAndGlyphs" textLength="22" x="128.4375" y="813.3882">0..*</text><!--MD5=[ba1351391f839140881fdf6c9fe08744]
link CodeSmell to Location--><path d="M347,625.27 C347,643.23 347,662.69 347,679.52 " fill="none" id="CodeSmell-&gt;Location" style="stroke: #A80036; stroke-width: 1.0;"/><polygon fill="#A80036" points="347,684.65,351,675.65,347,679.65,343,675.65,347,684.65" style="stroke: #A80036; stroke-width: 1.0;"/><text fill="#000000" font-family="sans-serif" font-size="13" lengthAdjust="spacingAndGlyphs" textLength="24" x="321.6125" y="645.5845">1..n</text><text fill="#000000" font-family="sans-serif" font-size="13" lengthAdjust="spacingAndGlyphs" textLength="24" x="321.0125" y="674.4019">0..n</text><!--MD5=[bba504be18b0ca9902f2d4fdb48fd109]
link Location to Range--><path d="M335.4,764.03 C333.72,784.51 333.88,809.46 335.87,829.11 " fill="none" id="Location-&gt;Range" style="stroke: #A80036; stroke-width: 1.0;"/><polygon fill="#A80036" points="336.45,834.25,339.4228,824.8605,335.8931,829.2811,331.4725,825.7515,336.45,834.25" style="stroke: #A80036; stroke-width: 1.0;"/><!--MD5=[bba504be18b0ca9902f2d4fdb48fd109]
link Location to Range--><path d="M359.28,764.03 C361.06,784.51 360.89,809.46 358.78,829.11 " fill="none" id="Location-&gt;Range-1" style="stroke: #A80036; stroke-width: 1.0;"/><polygon fill="#A80036" points="358.17,834.25,363.1956,825.7798,358.755,829.2843,355.2505,824.8438,358.17,834.25" style="stroke: #A80036; stroke-width: 1.0;"/><!--MD5=[7d9a2313ce146470dea6d4c236945239]
link Location to File--><path d="M293.01,764.03 C268.26,781.68 238.88,802.65 213.6,820.69 " fill="none" id="Location-&gt;File" style="stroke: #A80036; stroke-width: 1.0;"/><polygon fill="#A80036" points="209.25,823.79,218.9012,821.8266,213.3225,820.8892,214.2599,815.3106,209.25,823.79" style="stroke: #A80036; stroke-width: 1.0;"/><!--MD5=[fea857486dbdc6b824b8831af24c592c]
link Range to Position--><path d="M336.2,892.57 C333.82,911.77 333.62,937.29 335.6,957.54 " fill="none" id="Range-&gt;Position" style="stroke: #A80036; stroke-width: 1.0;"/><polygon fill="#A80036" points="336.15,962.57,339.1494,953.189,335.6072,957.5995,331.1967,954.0574,336.15,962.57" style="stroke: #A80036; stroke-width: 1.0;"/><!--MD5=[fea857486dbdc6b824b8831af24c592c]
link Range to Position--><path d="M358.44,892.57 C360.96,911.77 361.17,937.29 359.07,957.54 " fill="none" id="Range-&gt;Position-1" style="stroke: #A80036; stroke-width: 1.0;"/><polygon fill="#A80036" points="358.49,962.57,363.4916,954.0856,359.061,957.6027,355.5439,953.1721,358.49,962.57" style="stroke: #A80036; stroke-width: 1.0;"/><!--MD5=[7613b5bb39efec6b4ed009dc07b12e35]
reverse link CodeSmellLifespan to CodeSmell--><path d="M363.7,460 C361.22,475.59 358.62,491.93 356.24,506.94 " fill="none" id="CodeSmellLifespan&lt;-CodeSmell" style="stroke: #A80036; stroke-width: 1.0;"/><polygon fill="#A80036" points="365.75,447.12,360.8571,452.4171,363.8649,458.971,368.7578,453.6739,365.75,447.12" style="stroke: #A80036; stroke-width: 1.0;"/><text fill="#000000" font-family="sans-serif" font-size="13" lengthAdjust="spacingAndGlyphs" textLength="8" x="356.218" y="467.4172">1</text><text fill="#000000" font-family="sans-serif" font-size="13" lengthAdjust="spacingAndGlyphs" textLength="24" x="331.9036" y="496.4236">1..n</text><!--MD5=[d19825e44517e95c2be8c8cea60152e4]
link Relay.Connection to Relay.Edge--><path d="M575.22,117.21 C559.56,138.45 538.07,167.61 521.74,189.78 " fill="none" id="Relay.Connection-&gt;Relay.Edge" style="stroke: #A80036; stroke-width: 1.0;"/><polygon fill="#A80036" points="518.75,193.83,527.3114,188.9614,521.7179,189.8062,520.8732,184.2127,518.75,193.83" style="stroke: #A80036; stroke-width: 1.0;"/><!--MD5=[f9adffbad04fd0d7decf6dc891dbb163]
link Relay.Connection to Relay.PageInfo--><path d="M611.27,117.21 C621.6,136.28 635.38,161.74 646.77,182.79 " fill="none" id="Relay.Connection-&gt;Relay.PageInfo" style="stroke: #A80036; stroke-width: 1.0;"/><polygon fill="#A80036" points="649.17,187.21,648.4078,177.3907,646.7918,182.8118,641.3707,181.1958,649.17,187.21" style="stroke: #A80036; stroke-width: 1.0;"/><!--MD5=[ac8a057903a0491a3eb179cf4ae65406]
@startuml GraphQL
hide circle
hide empty members

class Query {
  {method} +repository(name: String!): Repository
  {method} +repositories: Connection<Repository>!
}
Query - -> Repository

class Repository {
  +name: String!
  {method} +commit(sha: String!): Commit
  {method} +commits: Connection<Commit>!
  {method} +codeSmellLifespans: Connection<CodeSmellLifespan>!
}
Repository "1" *- - "0..*" Commit
Repository "1" *- - "0..*" CodeSmellLifespan

class Commit {
  +sha: String!
  +committer: Signature!
  +author: Signature!
  {method} +files: Connection<File>!
  {method} +changedFiles: Connection<File>!
}
Commit - -> Signature
Commit "1" *- - "0..*" CodeSmell
Commit "1" *- - "0..*" File

class Signature {
  +name: String!
  +email: String!
  +date: String!
}

class CodeSmell {
  +id: ID!
  +message: String!
  +commit: Commit!
  +locations: [Location!]!
  +ordinal: Int!
  {method} +lifespan: CodeSmellLifespan!
}
CodeSmell "1..n" - -> "0..n" Location

class Location {
  +file: File!
  +range: Range!
  +contents(encoding: String): String!
}
Location - -> Range
Location - -> Range
Location - -> File
class Range {
  +start: Position!
  +end: Position!
}
Range - -> Position
Range - -> Position
class Position {
  +line: Int!
  +character: Int!
}

class CodeSmellLifespan {
  +id: ID!
  +kind: String!
  +repository: Repository!
  +duration: String!
  +interval: String!
  {method} +instances: Connection<CodeSmell>!
}
CodeSmellLifespan "1" *- - "1..n" CodeSmell

class File {
  +path: String!
  +linesCount: Int!
  +contents(encoding: String): String!
}

namespace Relay {
  interface Connection<TNode> {
    +pageInfo: PageInfo!
    +edges: [Edge<TNode>!]!
  }
  Connection - -> Edge
  Connection - -> PageInfo
  class PageInfo {
    +endCursor: String!
    +hasNextPage: Boolean!
    +hasPreviousPage: Boolean!
  }
  interface Edge<TNode> {
    +node: TNode!
    +cursor: String!
  }
}
@enduml

PlantUML version 1.2019.13(Tue Dec 10 18:18:29 CET 2019)
(GPL source distribution)
Java Runtime: Java(TM) SE Runtime Environment
JVM: Java HotSpot(TM) 64-Bit Server VM
Java Version: 13.0.1+9
Operating System: Mac OS X
Default Encoding: UTF-8
Language: en
Country: US
--></g></svg>