<?xml version="1.0" encoding="UTF-8" standalone="no"?><svg xmlns="http://www.w3.org/2000/svg" xmlns:xlink="http://www.w3.org/1999/xlink" contentScriptType="application/ecmascript" contentStyleType="text/css" height="1236px" preserveAspectRatio="none" style="width:1223px;height:1236px;" version="1.1" viewBox="0 0 1223 1236" width="1223px" zoomAndPan="magnify"><defs><filter height="300%" id="fw3mc09mor7bf" width="300%" x="-1" y="-1"><feGaussianBlur result="blurOut" stdDeviation="2.0"/><feColorMatrix in="blurOut" result="blurOut2" type="matrix" values="0 0 0 0 0 0 0 0 0 0 0 0 0 0 0 0 0 0 .4 0"/><feOffset dx="4.0" dy="4.0" in="blurOut2" result="blurOut3"/><feBlend in="SourceGraphic" in2="blurOut3" mode="normal"/></filter></defs><g><!--MD5=[6eafbb38dcfd991ac99fbc2abc212727]
cluster Relay--><polygon fill="#FFFFFF" filter="url(#fw3mc09mor7bf)" points="863,24,908,24,915,46.4883,1201,46.4883,1201,288.5,863,288.5,863,24" style="stroke: #000000; stroke-width: 1.5;"/><line style="stroke: #000000; stroke-width: 1.5;" x1="863" x2="915" y1="46.4883" y2="46.4883"/><text fill="#000000" font-family="sans-serif" font-size="14" font-weight="bold" lengthAdjust="spacingAndGlyphs" textLength="39" x="867" y="39.5352">Relay</text><!--MD5=[1cd78e98e7a9839702c223eab4979b1f]
class Relay.Connection--><rect fill="#FEFECE" filter="url(#fw3mc09mor7bf)" height="58.043" id="Relay.Connection" style="stroke: #A80036; stroke-width: 1.5;" width="157" x="950.5" y="59"/><text fill="#000000" font-family="sans-serif" font-size="12" font-style="italic" lengthAdjust="spacingAndGlyphs" textLength="63" x="976" y="75.6016">Connection</text><rect fill="#FFFFFF" height="16.1328" style="stroke: #000000; stroke-width: 1.0; stroke-dasharray: 2.0,2.0;" width="41" x="1069.5" y="56"/><text fill="#000000" font-family="sans-serif" font-size="12" font-style="italic" lengthAdjust="spacingAndGlyphs" textLength="39" x="1070.5" y="68.6016">TNode</text><line style="stroke: #A80036; stroke-width: 1.5;" x1="951.5" x2="1106.5" y1="83.1328" y2="83.1328"/><ellipse cx="961.5" cy="94.1328" fill="none" rx="3" ry="3" style="stroke: #038048; stroke-width: 1.0;"/><text fill="#000000" font-family="sans-serif" font-size="11" lengthAdjust="spacingAndGlyphs" textLength="102" x="970.5" y="97.7676">pageInfo: PageInfo!</text><ellipse cx="961.5" cy="107.0879" fill="none" rx="3" ry="3" style="stroke: #038048; stroke-width: 1.0;"/><text fill="#000000" font-family="sans-serif" font-size="11" lengthAdjust="spacingAndGlyphs" textLength="131" x="970.5" y="110.7227">edges: [Edge&lt;TNode&gt;!]!</text><!--MD5=[09264cef9c0e64048c6e1196cdd5527b]
class Relay.Edge--><rect fill="#FEFECE" filter="url(#fw3mc09mor7bf)" height="58.043" id="Relay.Edge" style="stroke: #A80036; stroke-width: 1.5;" width="103" x="879.5" y="208"/><text fill="#000000" font-family="sans-serif" font-size="12" font-style="italic" lengthAdjust="spacingAndGlyphs" textLength="29" x="895" y="224.6016">Edge</text><rect fill="#FFFFFF" height="16.1328" style="stroke: #000000; stroke-width: 1.0; stroke-dasharray: 2.0,2.0;" width="41" x="944.5" y="205"/><text fill="#000000" font-family="sans-serif" font-size="12" font-style="italic" lengthAdjust="spacingAndGlyphs" textLength="39" x="945.5" y="217.6016">TNode</text><line style="stroke: #A80036; stroke-width: 1.5;" x1="880.5" x2="981.5" y1="232.1328" y2="232.1328"/><ellipse cx="890.5" cy="243.1328" fill="none" rx="3" ry="3" style="stroke: #038048; stroke-width: 1.0;"/><text fill="#000000" font-family="sans-serif" font-size="11" lengthAdjust="spacingAndGlyphs" textLength="71" x="899.5" y="246.7676">node: TNode!</text><ellipse cx="890.5" cy="256.0879" fill="none" rx="3" ry="3" style="stroke: #038048; stroke-width: 1.0;"/><text fill="#000000" font-family="sans-serif" font-size="11" lengthAdjust="spacingAndGlyphs" textLength="77" x="899.5" y="259.7227">cursor: String!</text><!--MD5=[ca08750fa789013f748736181f871b53]
class Relay.PageInfo--><rect fill="#FEFECE" filter="url(#fw3mc09mor7bf)" height="70.998" id="Relay.PageInfo" style="stroke: #A80036; stroke-width: 1.5;" width="167" x="1017.5" y="201.5"/><text fill="#000000" font-family="sans-serif" font-size="12" lengthAdjust="spacingAndGlyphs" textLength="49" x="1076.5" y="218.1016">PageInfo</text><line style="stroke: #A80036; stroke-width: 1.5;" x1="1018.5" x2="1183.5" y1="225.6328" y2="225.6328"/><ellipse cx="1028.5" cy="236.6328" fill="none" rx="3" ry="3" style="stroke: #038048; stroke-width: 1.0;"/><text fill="#000000" font-family="sans-serif" font-size="11" lengthAdjust="spacingAndGlyphs" textLength="99" x="1037.5" y="240.2676">endCursor: String!</text><ellipse cx="1028.5" cy="249.5879" fill="none" rx="3" ry="3" style="stroke: #038048; stroke-width: 1.0;"/><text fill="#000000" font-family="sans-serif" font-size="11" lengthAdjust="spacingAndGlyphs" textLength="120" x="1037.5" y="253.2227">hasNextPage: Boolean!</text><ellipse cx="1028.5" cy="262.543" fill="none" rx="3" ry="3" style="stroke: #038048; stroke-width: 1.0;"/><text fill="#000000" font-family="sans-serif" font-size="11" lengthAdjust="spacingAndGlyphs" textLength="141" x="1037.5" y="266.1777">hasPreviousPage: Boolean!</text><!--MD5=[91221848cc6fc2b51471cfb300e81a0a]
class Query--><rect fill="#FEFECE" filter="url(#fw3mc09mor7bf)" height="83.9531" id="Query" style="stroke: #A80036; stroke-width: 1.5;" width="270" x="552" y="46"/><text fill="#000000" font-family="sans-serif" font-size="12" lengthAdjust="spacingAndGlyphs" textLength="34" x="670" y="62.6016">Query</text><line style="stroke: #A80036; stroke-width: 1.5;" x1="553" x2="821" y1="70.1328" y2="70.1328"/><ellipse cx="563" cy="81.1328" fill="#84BE84" rx="3" ry="3" style="stroke: #038048; stroke-width: 1.0;"/><text fill="#000000" font-family="sans-serif" font-size="11" lengthAdjust="spacingAndGlyphs" textLength="198" x="572" y="84.7676">repository(name: String!): Repository</text><ellipse cx="563" cy="94.0879" fill="#84BE84" rx="3" ry="3" style="stroke: #038048; stroke-width: 1.0;"/><text fill="#000000" font-family="sans-serif" font-size="11" lengthAdjust="spacingAndGlyphs" textLength="212" x="572" y="97.7227">repositories: Connection&lt;Repository&gt;!</text><ellipse cx="563" cy="107.043" fill="#84BE84" rx="3" ry="3" style="stroke: #038048; stroke-width: 1.0;"/><text fill="#000000" font-family="sans-serif" font-size="11" lengthAdjust="spacingAndGlyphs" textLength="154" x="572" y="110.6777">codeSmell(id: ID!): CodeSmell</text><ellipse cx="563" cy="119.998" fill="#84BE84" rx="3" ry="3" style="stroke: #038048; stroke-width: 1.0;"/><text fill="#000000" font-family="sans-serif" font-size="11" lengthAdjust="spacingAndGlyphs" textLength="244" x="572" y="123.6328">codeSmellLifeSpan(id: ID!): CodeSmellLifeSpan</text><!--MD5=[c05f8d4c5007184b0fb1ea93cdb8d9fe]
class Repository--><rect fill="#FEFECE" filter="url(#fw3mc09mor7bf)" height="91.9531" id="Repository" style="stroke: #A80036; stroke-width: 1.5;" width="321" x="312.5" y="191"/><text fill="#000000" font-family="sans-serif" font-size="12" lengthAdjust="spacingAndGlyphs" textLength="61" x="442.5" y="207.6016">Repository</text><line style="stroke: #A80036; stroke-width: 1.5;" x1="313.5" x2="632.5" y1="215.1328" y2="215.1328"/><ellipse cx="323.5" cy="226.1328" fill="none" rx="3" ry="3" style="stroke: #038048; stroke-width: 1.0;"/><text fill="#000000" font-family="sans-serif" font-size="11" lengthAdjust="spacingAndGlyphs" textLength="70" x="332.5" y="229.7676">name: String!</text><line style="stroke: #A80036; stroke-width: 1.5;" x1="313.5" x2="632.5" y1="236.0879" y2="236.0879"/><ellipse cx="323.5" cy="247.0879" fill="#84BE84" rx="3" ry="3" style="stroke: #038048; stroke-width: 1.0;"/><text fill="#000000" font-family="sans-serif" font-size="11" lengthAdjust="spacingAndGlyphs" textLength="154" x="332.5" y="250.7227">commit(oid: String!): Commit</text><ellipse cx="323.5" cy="260.043" fill="#84BE84" rx="3" ry="3" style="stroke: #038048; stroke-width: 1.0;"/><text fill="#000000" font-family="sans-serif" font-size="11" lengthAdjust="spacingAndGlyphs" textLength="177" x="332.5" y="263.6777">commits: Connection&lt;Commit&gt;!</text><ellipse cx="323.5" cy="272.998" fill="#84BE84" rx="3" ry="3" style="stroke: #038048; stroke-width: 1.0;"/><text fill="#000000" font-family="sans-serif" font-size="11" lengthAdjust="spacingAndGlyphs" textLength="295" x="332.5" y="276.6328">codeSmellLifespans: Connection&lt;CodeSmellLifespan&gt;!</text><!--MD5=[90af14acebbc533b6fea97f131b1446c]
class CodeSmell--><rect fill="#FEFECE" filter="url(#fw3mc09mor7bf)" height="117.8633" id="CodeSmell" style="stroke: #A80036; stroke-width: 1.5;" width="178" x="532" y="539"/><text fill="#000000" font-family="sans-serif" font-size="12" lengthAdjust="spacingAndGlyphs" textLength="60" x="591" y="555.6016">CodeSmell</text><line style="stroke: #A80036; stroke-width: 1.5;" x1="533" x2="709" y1="563.1328" y2="563.1328"/><ellipse cx="543" cy="574.1328" fill="none" rx="3" ry="3" style="stroke: #038048; stroke-width: 1.0;"/><text fill="#000000" font-family="sans-serif" font-size="11" lengthAdjust="spacingAndGlyphs" textLength="30" x="552" y="577.7676">id: ID!</text><ellipse cx="543" cy="587.0879" fill="none" rx="3" ry="3" style="stroke: #038048; stroke-width: 1.0;"/><text fill="#000000" font-family="sans-serif" font-size="11" lengthAdjust="spacingAndGlyphs" textLength="88" x="552" y="590.7227">message: String!</text><ellipse cx="543" cy="600.043" fill="none" rx="3" ry="3" style="stroke: #038048; stroke-width: 1.0;"/><text fill="#000000" font-family="sans-serif" font-size="11" lengthAdjust="spacingAndGlyphs" textLength="91" x="552" y="603.6777">commit: Commit!</text><ellipse cx="543" cy="612.998" fill="none" rx="3" ry="3" style="stroke: #038048; stroke-width: 1.0;"/><text fill="#000000" font-family="sans-serif" font-size="11" lengthAdjust="spacingAndGlyphs" textLength="115" x="552" y="616.6328">locations: [Location!]!</text><ellipse cx="543" cy="625.9531" fill="none" rx="3" ry="3" style="stroke: #038048; stroke-width: 1.0;"/><text fill="#000000" font-family="sans-serif" font-size="11" lengthAdjust="spacingAndGlyphs" textLength="61" x="552" y="629.5879">ordinal: Int!</text><line style="stroke: #A80036; stroke-width: 1.5;" x1="533" x2="709" y1="635.9082" y2="635.9082"/><ellipse cx="543" cy="646.9082" fill="#84BE84" rx="3" ry="3" style="stroke: #038048; stroke-width: 1.0;"/><text fill="#000000" font-family="sans-serif" font-size="11" lengthAdjust="spacingAndGlyphs" textLength="152" x="552" y="650.543">lifespan: CodeSmellLifespan!</text><!--MD5=[14d32a97c52c5f9b113614086055026b]
class CodeSmellLifespan--><rect fill="#FEFECE" filter="url(#fw3mc09mor7bf)" height="117.8633" id="CodeSmellLifespan" style="stroke: #A80036; stroke-width: 1.5;" width="222" x="551" y="344"/><text fill="#000000" font-family="sans-serif" font-size="12" lengthAdjust="spacingAndGlyphs" textLength="108" x="608" y="360.6016">CodeSmellLifespan</text><line style="stroke: #A80036; stroke-width: 1.5;" x1="552" x2="772" y1="368.1328" y2="368.1328"/><ellipse cx="562" cy="379.1328" fill="none" rx="3" ry="3" style="stroke: #038048; stroke-width: 1.0;"/><text fill="#000000" font-family="sans-serif" font-size="11" lengthAdjust="spacingAndGlyphs" textLength="30" x="571" y="382.7676">id: ID!</text><ellipse cx="562" cy="392.0879" fill="none" rx="3" ry="3" style="stroke: #038048; stroke-width: 1.0;"/><text fill="#000000" font-family="sans-serif" font-size="11" lengthAdjust="spacingAndGlyphs" textLength="64" x="571" y="395.7227">kind: String!</text><ellipse cx="562" cy="405.043" fill="none" rx="3" ry="3" style="stroke: #038048; stroke-width: 1.0;"/><text fill="#000000" font-family="sans-serif" font-size="11" lengthAdjust="spacingAndGlyphs" textLength="123" x="571" y="408.6777">repository: Repository!</text><ellipse cx="562" cy="417.998" fill="none" rx="3" ry="3" style="stroke: #038048; stroke-width: 1.0;"/><text fill="#000000" font-family="sans-serif" font-size="11" lengthAdjust="spacingAndGlyphs" textLength="87" x="571" y="421.6328">duration: String!</text><ellipse cx="562" cy="430.9531" fill="none" rx="3" ry="3" style="stroke: #038048; stroke-width: 1.0;"/><text fill="#000000" font-family="sans-serif" font-size="11" lengthAdjust="spacingAndGlyphs" textLength="81" x="571" y="434.5879">interval: String!</text><line style="stroke: #A80036; stroke-width: 1.5;" x1="552" x2="772" y1="440.9082" y2="440.9082"/><ellipse cx="562" cy="451.9082" fill="#84BE84" rx="3" ry="3" style="stroke: #038048; stroke-width: 1.0;"/><text fill="#000000" font-family="sans-serif" font-size="11" lengthAdjust="spacingAndGlyphs" textLength="196" x="571" y="455.543">instances: Connection&lt;CodeSmell&gt;!</text><!--MD5=[4da33e036383ae2c9d7a81b1e09b72e8]
class Commit--><rect fill="#FEFECE" filter="url(#fw3mc09mor7bf)" height="117.8633" id="Commit" style="stroke: #A80036; stroke-width: 1.5;" width="381" x="134.5" y="344"/><text fill="#000000" font-family="sans-serif" font-size="12" lengthAdjust="spacingAndGlyphs" textLength="44" x="303" y="360.6016">Commit</text><line style="stroke: #A80036; stroke-width: 1.5;" x1="135.5" x2="514.5" y1="368.1328" y2="368.1328"/><ellipse cx="145.5" cy="379.1328" fill="none" rx="3" ry="3" style="stroke: #038048; stroke-width: 1.0;"/><text fill="#000000" font-family="sans-serif" font-size="11" lengthAdjust="spacingAndGlyphs" textLength="58" x="154.5" y="382.7676">oid: String!</text><ellipse cx="145.5" cy="392.0879" fill="none" rx="3" ry="3" style="stroke: #038048; stroke-width: 1.0;"/><text fill="#000000" font-family="sans-serif" font-size="11" lengthAdjust="spacingAndGlyphs" textLength="115" x="154.5" y="395.7227">committer: Signature!</text><ellipse cx="145.5" cy="405.043" fill="none" rx="3" ry="3" style="stroke: #038048; stroke-width: 1.0;"/><text fill="#000000" font-family="sans-serif" font-size="11" lengthAdjust="spacingAndGlyphs" textLength="96" x="154.5" y="408.6777">author: Signature!</text><line style="stroke: #A80036; stroke-width: 1.5;" x1="135.5" x2="514.5" y1="414.998" y2="414.998"/><ellipse cx="145.5" cy="425.998" fill="#84BE84" rx="3" ry="3" style="stroke: #038048; stroke-width: 1.0;"/><text fill="#000000" font-family="sans-serif" font-size="11" lengthAdjust="spacingAndGlyphs" textLength="355" x="154.5" y="429.6328">combinedFileDifferencees: Connection&lt;CombinedFileDifference&gt;!</text><ellipse cx="145.5" cy="438.9531" fill="#84BE84" rx="3" ry="3" style="stroke: #038048; stroke-width: 1.0;"/><text fill="#000000" font-family="sans-serif" font-size="11" lengthAdjust="spacingAndGlyphs" textLength="205" x="154.5" y="442.5879">codeSmells: Connection&lt;CodeSmell&gt;!</text><ellipse cx="145.5" cy="451.9082" fill="#84BE84" rx="3" ry="3" style="stroke: #038048; stroke-width: 1.0;"/><text fill="#000000" font-family="sans-serif" font-size="11" lengthAdjust="spacingAndGlyphs" textLength="129" x="154.5" y="455.543">files: Connection&lt;File&gt;!</text><!--MD5=[79b2c35a8607833edf9d17d918b0cb90]
class Signature--><rect fill="#FEFECE" filter="url(#fw3mc09mor7bf)" height="70.998" id="Signature" style="stroke: #A80036; stroke-width: 1.5;" width="96" x="381" y="562.5"/><text fill="#000000" font-family="sans-serif" font-size="12" lengthAdjust="spacingAndGlyphs" textLength="53" x="402.5" y="579.1016">Signature</text><line style="stroke: #A80036; stroke-width: 1.5;" x1="382" x2="476" y1="586.6328" y2="586.6328"/><ellipse cx="392" cy="597.6328" fill="none" rx="3" ry="3" style="stroke: #038048; stroke-width: 1.0;"/><text fill="#000000" font-family="sans-serif" font-size="11" lengthAdjust="spacingAndGlyphs" textLength="70" x="401" y="601.2676">name: String!</text><ellipse cx="392" cy="610.5879" fill="none" rx="3" ry="3" style="stroke: #038048; stroke-width: 1.0;"/><text fill="#000000" font-family="sans-serif" font-size="11" lengthAdjust="spacingAndGlyphs" textLength="69" x="401" y="614.2227">email: String!</text><ellipse cx="392" cy="623.543" fill="none" rx="3" ry="3" style="stroke: #038048; stroke-width: 1.0;"/><text fill="#000000" font-family="sans-serif" font-size="11" lengthAdjust="spacingAndGlyphs" textLength="64" x="401" y="627.1777">date: String!</text><!--MD5=[63dd87716ef75a5caca5dce59428e94a]
class File--><rect fill="#FEFECE" filter="url(#fw3mc09mor7bf)" height="104.9082" id="File" style="stroke: #A80036; stroke-width: 1.5;" width="250" x="183" y="892.5"/><text fill="#000000" font-family="sans-serif" font-size="12" lengthAdjust="spacingAndGlyphs" textLength="19" x="298.5" y="909.1016">File</text><line style="stroke: #A80036; stroke-width: 1.5;" x1="184" x2="432" y1="916.6328" y2="916.6328"/><ellipse cx="194" cy="927.6328" fill="none" rx="3" ry="3" style="stroke: #038048; stroke-width: 1.0;"/><text fill="#000000" font-family="sans-serif" font-size="11" lengthAdjust="spacingAndGlyphs" textLength="65" x="203" y="931.2676">path: String!</text><ellipse cx="194" cy="940.5879" fill="none" rx="3" ry="3" style="stroke: #038048; stroke-width: 1.0;"/><text fill="#000000" font-family="sans-serif" font-size="11" lengthAdjust="spacingAndGlyphs" textLength="81" x="203" y="944.2227">linesCount: Int!</text><line style="stroke: #A80036; stroke-width: 1.5;" x1="184" x2="432" y1="950.543" y2="950.543"/><ellipse cx="194" cy="961.543" fill="#84BE84" rx="3" ry="3" style="stroke: #038048; stroke-width: 1.0;"/><text fill="#000000" font-family="sans-serif" font-size="11" lengthAdjust="spacingAndGlyphs" textLength="178" x="203" y="965.1777">content(encoding: String): String!</text><ellipse cx="194" cy="974.498" fill="#84BE84" rx="3" ry="3" style="stroke: #038048; stroke-width: 1.0;"/><text fill="#000000" font-family="sans-serif" font-size="11" lengthAdjust="spacingAndGlyphs" textLength="224" x="203" y="978.1328">lineCounts(encoding: String): LineCounts!</text><ellipse cx="194" cy="987.4531" fill="#84BE84" rx="3" ry="3" style="stroke: #038048; stroke-width: 1.0;"/><text fill="#000000" font-family="sans-serif" font-size="11" lengthAdjust="spacingAndGlyphs" textLength="205" x="203" y="991.0879">codeSmells: Connection&lt;CodeSmell&gt;!</text><!--MD5=[7e4e669716e39576ae3e26afe40346de]
class CombinedFileDifference--><rect fill="#FEFECE" filter="url(#fw3mc09mor7bf)" height="70.998" id="CombinedFileDifference" style="stroke: #A80036; stroke-width: 1.5;" width="198" x="41" y="738"/><text fill="#000000" font-family="sans-serif" font-size="12" lengthAdjust="spacingAndGlyphs" textLength="137" x="71.5" y="754.6016">CombinedFileDifference</text><line style="stroke: #A80036; stroke-width: 1.5;" x1="42" x2="238" y1="762.1328" y2="762.1328"/><ellipse cx="52" cy="773.1328" fill="none" rx="3" ry="3" style="stroke: #038048; stroke-width: 1.0;"/><text fill="#000000" font-family="sans-serif" font-size="11" lengthAdjust="spacingAndGlyphs" textLength="172" x="61" y="776.7676">changeKinds: [FileChangeKind!]!</text><ellipse cx="52" cy="786.0879" fill="none" rx="3" ry="3" style="stroke: #038048; stroke-width: 1.0;"/><text fill="#000000" font-family="sans-serif" font-size="11" lengthAdjust="spacingAndGlyphs" textLength="68" x="61" y="789.7227">headFile: File</text><ellipse cx="52" cy="799.043" fill="none" rx="3" ry="3" style="stroke: #038048; stroke-width: 1.0;"/><text fill="#000000" font-family="sans-serif" font-size="11" lengthAdjust="spacingAndGlyphs" textLength="84" x="61" y="802.6777">baseFiles: [File]!</text><!--MD5=[a95c5253a345b2cae7dff15792fcfa1d]
class FileChangeKind--><rect fill="#FEFECE" filter="url(#fw3mc09mor7bf)" height="109.8633" id="FileChangeKind" style="stroke: #A80036; stroke-width: 1.5;" width="98" x="6" y="890"/><text fill="#000000" font-family="sans-serif" font-size="12" lengthAdjust="spacingAndGlyphs" textLength="88" x="11" y="906.6016">FileChangeKind</text><line style="stroke: #A80036; stroke-width: 1.5;" x1="7" x2="103" y1="914.1328" y2="914.1328"/><text fill="#000000" font-family="sans-serif" font-size="11" lengthAdjust="spacingAndGlyphs" textLength="38" x="12" y="928.7676">ADDED</text><text fill="#000000" font-family="sans-serif" font-size="11" lengthAdjust="spacingAndGlyphs" textLength="40" x="12" y="941.7227">COPIED</text><text fill="#000000" font-family="sans-serif" font-size="11" lengthAdjust="spacingAndGlyphs" textLength="47" x="12" y="954.6777">DELETED</text><text fill="#000000" font-family="sans-serif" font-size="11" lengthAdjust="spacingAndGlyphs" textLength="52" x="12" y="967.6328">MODIFIED</text><text fill="#000000" font-family="sans-serif" font-size="11" lengthAdjust="spacingAndGlyphs" textLength="52" x="12" y="980.5879">RENAMED</text><text fill="#000000" font-family="sans-serif" font-size="11" lengthAdjust="spacingAndGlyphs" textLength="86" x="12" y="993.543">TYPE_CHANGED</text><!--MD5=[4f1f3706c1a355a8488e154afcaed5df]
class Location--><rect fill="#FEFECE" filter="url(#fw3mc09mor7bf)" height="78.998" id="Location" style="stroke: #A80036; stroke-width: 1.5;" width="210" x="512" y="734"/><text fill="#000000" font-family="sans-serif" font-size="12" lengthAdjust="spacingAndGlyphs" textLength="47" x="593.5" y="750.6016">Location</text><line style="stroke: #A80036; stroke-width: 1.5;" x1="513" x2="721" y1="758.1328" y2="758.1328"/><ellipse cx="523" cy="769.1328" fill="none" rx="3" ry="3" style="stroke: #038048; stroke-width: 1.0;"/><text fill="#000000" font-family="sans-serif" font-size="11" lengthAdjust="spacingAndGlyphs" textLength="43" x="532" y="772.7676">file: File!</text><ellipse cx="523" cy="782.0879" fill="none" rx="3" ry="3" style="stroke: #038048; stroke-width: 1.0;"/><text fill="#000000" font-family="sans-serif" font-size="11" lengthAdjust="spacingAndGlyphs" textLength="73" x="532" y="785.7227">range: Range!</text><line style="stroke: #A80036; stroke-width: 1.5;" x1="513" x2="721" y1="792.043" y2="792.043"/><ellipse cx="523" cy="803.043" fill="#84BE84" rx="3" ry="3" style="stroke: #038048; stroke-width: 1.0;"/><text fill="#000000" font-family="sans-serif" font-size="11" lengthAdjust="spacingAndGlyphs" textLength="184" x="532" y="806.6777">contents(encoding: String): String!</text><!--MD5=[2f49539d777d8d7526d361413cf07525]
class Range--><rect fill="#FEFECE" filter="url(#fw3mc09mor7bf)" height="58.043" id="Range" style="stroke: #A80036; stroke-width: 1.5;" width="103" x="565.5" y="916"/><text fill="#000000" font-family="sans-serif" font-size="12" lengthAdjust="spacingAndGlyphs" textLength="36" x="599" y="932.6016">Range</text><line style="stroke: #A80036; stroke-width: 1.5;" x1="566.5" x2="667.5" y1="940.1328" y2="940.1328"/><ellipse cx="576.5" cy="951.1328" fill="none" rx="3" ry="3" style="stroke: #038048; stroke-width: 1.0;"/><text fill="#000000" font-family="sans-serif" font-size="11" lengthAdjust="spacingAndGlyphs" textLength="77" x="585.5" y="954.7676">start: Position!</text><ellipse cx="576.5" cy="964.0879" fill="none" rx="3" ry="3" style="stroke: #038048; stroke-width: 1.0;"/><text fill="#000000" font-family="sans-serif" font-size="11" lengthAdjust="spacingAndGlyphs" textLength="72" x="585.5" y="967.7227">end: Position!</text><!--MD5=[a64a835c3d62471a77f615251fdde58a]
class Position--><rect fill="#FEFECE" filter="url(#fw3mc09mor7bf)" height="58.043" id="Position" style="stroke: #A80036; stroke-width: 1.5;" width="100" x="566" y="1122.5"/><text fill="#000000" font-family="sans-serif" font-size="12" lengthAdjust="spacingAndGlyphs" textLength="44" x="594" y="1139.1016">Position</text><line style="stroke: #A80036; stroke-width: 1.5;" x1="567" x2="665" y1="1146.6328" y2="1146.6328"/><ellipse cx="577" cy="1157.6328" fill="none" rx="3" ry="3" style="stroke: #038048; stroke-width: 1.0;"/><text fill="#000000" font-family="sans-serif" font-size="11" lengthAdjust="spacingAndGlyphs" textLength="42" x="586" y="1161.2676">line: Int!</text><ellipse cx="577" cy="1170.5879" fill="none" rx="3" ry="3" style="stroke: #038048; stroke-width: 1.0;"/><text fill="#000000" font-family="sans-serif" font-size="11" lengthAdjust="spacingAndGlyphs" textLength="74" x="586" y="1174.2227">character: Int!</text><!--MD5=[b70e8c1d8ab9b9722d751f4fd5a4efd2]
class LineCounts--><rect fill="#FEFECE" filter="url(#fw3mc09mor7bf)" height="148.7285" id="LineCounts" style="stroke: #A80036; stroke-width: 1.5;" width="108" x="254" y="1077"/><text fill="#000000" font-family="sans-serif" font-size="12" lengthAdjust="spacingAndGlyphs" textLength="62" x="277" y="1093.6016">LineCounts</text><line style="stroke: #A80036; stroke-width: 1.5;" x1="255" x2="361" y1="1101.1328" y2="1101.1328"/><ellipse cx="265" cy="1112.1328" fill="none" rx="3" ry="3" style="stroke: #038048; stroke-width: 1.0;"/><text fill="#000000" font-family="sans-serif" font-size="11" lengthAdjust="spacingAndGlyphs" textLength="47" x="274" y="1115.7676">total: Int!</text><ellipse cx="265" cy="1125.0879" fill="none" rx="3" ry="3" style="stroke: #038048; stroke-width: 1.0;"/><text fill="#000000" font-family="sans-serif" font-size="11" lengthAdjust="spacingAndGlyphs" textLength="57" x="274" y="1128.7227">source: Int</text><ellipse cx="265" cy="1138.043" fill="none" rx="3" ry="3" style="stroke: #038048; stroke-width: 1.0;"/><text fill="#000000" font-family="sans-serif" font-size="11" lengthAdjust="spacingAndGlyphs" textLength="70" x="274" y="1141.6777">comment: Int</text><ellipse cx="265" cy="1150.998" fill="none" rx="3" ry="3" style="stroke: #038048; stroke-width: 1.0;"/><text fill="#000000" font-family="sans-serif" font-size="11" lengthAdjust="spacingAndGlyphs" textLength="52" x="274" y="1154.6328">single: Int</text><ellipse cx="265" cy="1163.9531" fill="none" rx="3" ry="3" style="stroke: #038048; stroke-width: 1.0;"/><text fill="#000000" font-family="sans-serif" font-size="11" lengthAdjust="spacingAndGlyphs" textLength="49" x="274" y="1167.5879">block: Int</text><ellipse cx="265" cy="1176.9082" fill="none" rx="3" ry="3" style="stroke: #038048; stroke-width: 1.0;"/><text fill="#000000" font-family="sans-serif" font-size="11" lengthAdjust="spacingAndGlyphs" textLength="53" x="274" y="1180.543">mixed: Int</text><ellipse cx="265" cy="1189.8633" fill="none" rx="3" ry="3" style="stroke: #038048; stroke-width: 1.0;"/><text fill="#000000" font-family="sans-serif" font-size="11" lengthAdjust="spacingAndGlyphs" textLength="82" x="274" y="1193.498">blockEmpty: Int</text><ellipse cx="265" cy="1202.8184" fill="none" rx="3" ry="3" style="stroke: #038048; stroke-width: 1.0;"/><text fill="#000000" font-family="sans-serif" font-size="11" lengthAdjust="spacingAndGlyphs" textLength="53" x="274" y="1206.4531">empty: Int</text><ellipse cx="265" cy="1215.7734" fill="none" rx="3" ry="3" style="stroke: #038048; stroke-width: 1.0;"/><text fill="#000000" font-family="sans-serif" font-size="11" lengthAdjust="spacingAndGlyphs" textLength="45" x="274" y="1219.4082">todo: Int</text><!--MD5=[d808edad4c24fcaca61f5f61bc46bfc7]
link Query to Repository--><path d="M627.1,130.14 C599.53,149.08 566.74,171.61 538.51,191 " fill="none" id="Query-Repository" style="stroke: #A80036; stroke-width: 1.0;"/><!--MD5=[f6acb32e0148ddc0074b2acea8aa338f]
link Query to CodeSmell--><path d="M716.72,130.16 C763.75,200.77 844.68,348.34 790,462 C772.91,497.53 741.4,526.63 710.19,548.59 " fill="none" id="Query-CodeSmell" style="stroke: #A80036; stroke-width: 1.0;"/><!--MD5=[caf86e936d3d8eeb6327f1f8f3904c50]
link Query to CodeSmellLifespan--><path d="M683.71,130.24 C679.34,184.94 671.6,281.79 666.64,343.88 " fill="none" id="Query-CodeSmellLifespan" style="stroke: #A80036; stroke-width: 1.0;"/><!--MD5=[a9b40be1fc33cd0a4e1b52667092735a]
reverse link Repository to Commit--><path d="M423.2,293.19 C408.45,309.53 392.27,327.46 377.37,343.97 " fill="none" id="Repository&lt;-Commit" style="stroke: #A80036; stroke-width: 1.0;"/><polygon fill="#A80036" points="432.17,283.25,425.1794,285.0196,424.1242,292.1531,431.1148,290.3835,432.17,283.25" style="stroke: #A80036; stroke-width: 1.0;"/><text fill="#000000" font-family="sans-serif" font-size="13" lengthAdjust="spacingAndGlyphs" textLength="8" x="417.8658" y="303.4021">1</text><text fill="#000000" font-family="sans-serif" font-size="13" lengthAdjust="spacingAndGlyphs" textLength="22" x="360.412" y="333.4573">0..*</text><!--MD5=[61322d6ad31b56d6662db4e11a7a3eed]
reverse link Repository to CodeSmellLifespan--><path d="M534.76,291.59 C554.02,308.31 575.36,326.82 594.96,343.83 " fill="none" id="Repository&lt;-CodeSmellLifespan" style="stroke: #A80036; stroke-width: 1.0;"/><polygon fill="#A80036" points="524.9,283.03,526.8102,289.9835,533.9635,290.8947,532.0533,283.9412,524.9,283.03" style="stroke: #A80036; stroke-width: 1.0;"/><text fill="#000000" font-family="sans-serif" font-size="13" lengthAdjust="spacingAndGlyphs" textLength="8" x="523.9353" y="303.4868">1</text><text fill="#000000" font-family="sans-serif" font-size="13" lengthAdjust="spacingAndGlyphs" textLength="22" x="563.4489" y="333.3002">0..*</text><!--MD5=[d5389447baac46a53bcf1b3fe7f2197e]
link Commit to Signature--><path d="M433.98,462.24 C443.11,471.05 451.09,480.95 457,492 C467.92,512.41 461.94,537.38 452.75,557.85 " fill="none" id="Commit-&gt;Signature" style="stroke: #A80036; stroke-width: 1.0;"/><polygon fill="#A80036" points="450.61,562.41,458.0585,555.9664,452.7369,557.8849,450.8184,552.5633,450.61,562.41" style="stroke: #A80036; stroke-width: 1.0;"/><text fill="#000000" font-family="sans-serif" font-size="13" lengthAdjust="spacingAndGlyphs" textLength="87" x="464" y="505.5684">committed by</text><polygon fill="#000000" points="503,514.3105,506,520.3105,509,514.3105,503,514.3105" style="stroke: #000000; stroke-width: 1.0;"/><!--MD5=[d5389447baac46a53bcf1b3fe7f2197e]
link Commit to Signature--><path d="M339.76,462.2 C344.81,477.87 351.21,494.48 359,509 C368.28,526.3 381.07,543.58 393.18,558.19 " fill="none" id="Commit-&gt;Signature-1" style="stroke: #A80036; stroke-width: 1.0;"/><polygon fill="#A80036" points="396.57,562.24,393.8466,552.7752,393.355,558.4106,387.7196,557.9191,396.57,562.24" style="stroke: #A80036; stroke-width: 1.0;"/><text fill="#000000" font-family="sans-serif" font-size="13" lengthAdjust="spacingAndGlyphs" textLength="75" x="360" y="505.5684">authored by</text><polygon fill="#000000" points="393,514.3105,396,520.3105,399,514.3105,393,514.3105" style="stroke: #000000; stroke-width: 1.0;"/><!--MD5=[be2b6f869df44cb34b7a7286dbd81aae]
reverse link Commit to CodeSmell--><path d="M527.18,459.44 C543.72,468.69 559.31,479.46 573,492 C586.75,504.59 596.84,521.89 604.12,538.82 " fill="none" id="Commit&lt;-CodeSmell" style="stroke: #A80036; stroke-width: 1.0;"/><polygon fill="#A80036" points="515.59,453.27,519.0096,459.6187,526.1852,458.904,522.7656,452.5553,515.59,453.27" style="stroke: #A80036; stroke-width: 1.0;"/><text fill="#000000" font-family="sans-serif" font-size="13" lengthAdjust="spacingAndGlyphs" textLength="8" x="523.7993" y="452.6522">1</text><text fill="#000000" font-family="sans-serif" font-size="13" lengthAdjust="spacingAndGlyphs" textLength="22" x="578.7221" y="528.289">0..*</text><!--MD5=[206697404f7d017fb43b138904bb0ce5]
reverse link Commit to File--><path d="M322.75,475.32 C319.28,585.68 312.68,795.21 309.63,892.27 " fill="none" id="Commit&lt;-File" style="stroke: #A80036; stroke-width: 1.0;"/><polygon fill="#A80036" points="323.17,462.05,318.9872,467.924,322.8005,474.0443,326.9834,468.1703,323.17,462.05" style="stroke: #A80036; stroke-width: 1.0;"/><text fill="#000000" font-family="sans-serif" font-size="13" lengthAdjust="spacingAndGlyphs" textLength="8" x="314.4959" y="482.3391">1</text><text fill="#000000" font-family="sans-serif" font-size="13" lengthAdjust="spacingAndGlyphs" textLength="22" x="286.3709" y="881.772">0..*</text><!--MD5=[64071156b5e8f3dff1ab06b8edd038d5]
reverse link Commit to CombinedFileDifference--><path d="M289.79,474.14 C250.26,552.88 187.71,677.47 157.49,737.67 " fill="none" id="Commit&lt;-CombinedFileDifference" style="stroke: #A80036; stroke-width: 1.0;"/><polygon fill="#A80036" points="295.69,462.39,289.4237,465.9585,290.3076,473.1152,296.5739,469.5467,295.69,462.39" style="stroke: #A80036; stroke-width: 1.0;"/><text fill="#000000" font-family="sans-serif" font-size="13" lengthAdjust="spacingAndGlyphs" textLength="8" x="284.0467" y="482.2989">1</text><text fill="#000000" font-family="sans-serif" font-size="13" lengthAdjust="spacingAndGlyphs" textLength="22" x="136.6866" y="727.2782">0..*</text><!--MD5=[2f4d0e5ee126d8e20014160a7ca16fd5]
link CombinedFileDifference to File--><path d="M120.3,809.09 C113.7,825.56 110.21,844.91 120,860 C134.98,883.1 157.95,899.9 182.76,912.1 " fill="none" id="CombinedFileDifference-File" style="stroke: #A80036; stroke-width: 1.0;"/><text fill="#000000" font-family="sans-serif" font-size="13" lengthAdjust="spacingAndGlyphs" textLength="13" x="121" y="856.5684">of</text><polygon fill="#000000" points="123,865.3105,126,871.3105,129,865.3105,123,865.3105" style="stroke: #000000; stroke-width: 1.0;"/><text fill="#000000" font-family="sans-serif" font-size="13" lengthAdjust="spacingAndGlyphs" textLength="22" x="92.6397" y="829.6319">0..*</text><text fill="#000000" font-family="sans-serif" font-size="13" lengthAdjust="spacingAndGlyphs" textLength="24" x="150.8258" y="907.3444">0..1</text><!--MD5=[2f4d0e5ee126d8e20014160a7ca16fd5]
link CombinedFileDifference to File--><path d="M155.05,809.27 C163.27,825.78 174.52,845.11 188,860 C198.5,871.59 210.88,882.46 223.63,892.29 " fill="none" id="CombinedFileDifference-File-1" style="stroke: #A80036; stroke-width: 1.0;"/><text fill="#000000" font-family="sans-serif" font-size="13" lengthAdjust="spacingAndGlyphs" textLength="79" x="189" y="856.5684">compared to</text><polygon fill="#000000" points="224,865.3105,227,871.3105,230,865.3105,224,865.3105" style="stroke: #000000; stroke-width: 1.0;"/><text fill="#000000" font-family="sans-serif" font-size="13" lengthAdjust="spacingAndGlyphs" textLength="22" x="133.7714" y="829.5737">0..*</text><text fill="#000000" font-family="sans-serif" font-size="13" lengthAdjust="spacingAndGlyphs" textLength="22" x="188.8147" y="881.7947">0..*</text><!--MD5=[06c69e77ac539bf04b046e7f055fb30f]
link CombinedFileDifference to FileChangeKind--><path d="M79.8,809.24 C68.57,818.67 58.38,829.95 52,843 C45.79,855.7 43.79,870.42 43.96,884.62 " fill="none" id="CombinedFileDifference-&gt;FileChangeKind" style="stroke: #A80036; stroke-width: 1.0;"/><polygon fill="#A80036" points="44.12,889.83,47.8613,880.7194,43.9772,884.832,39.8646,880.9479,44.12,889.83" style="stroke: #A80036; stroke-width: 1.0;"/><text fill="#000000" font-family="sans-serif" font-size="13" lengthAdjust="spacingAndGlyphs" textLength="13" x="53" y="856.5684">of</text><polygon fill="#000000" points="55,865.3105,58,871.3105,61,865.3105,55,865.3105" style="stroke: #000000; stroke-width: 1.0;"/><!--MD5=[ba1351391f839140881fdf6c9fe08744]
link CodeSmell to Location--><path d="M619.66,657.26 C619.12,680.59 618.51,707.01 618.01,728.67 " fill="none" id="CodeSmell-&gt;Location" style="stroke: #A80036; stroke-width: 1.0;"/><polygon fill="#A80036" points="617.89,733.78,622.0946,724.8738,618.0043,728.7813,614.0967,724.6909,617.89,733.78" style="stroke: #A80036; stroke-width: 1.0;"/><text fill="#000000" font-family="sans-serif" font-size="13" lengthAdjust="spacingAndGlyphs" textLength="12" x="620" y="700.5684">at</text><polygon fill="#000000" points="621.5,709.3105,624.5,715.3105,627.5,709.3105,621.5,709.3105" style="stroke: #000000; stroke-width: 1.0;"/><text fill="#000000" font-family="sans-serif" font-size="13" lengthAdjust="spacingAndGlyphs" textLength="24" x="594.1176" y="677.5733">1..n</text><text fill="#000000" font-family="sans-serif" font-size="13" lengthAdjust="spacingAndGlyphs" textLength="24" x="591.9805" y="723.2593">0..n</text><!--MD5=[7d9a2313ce146470dea6d4c236945239]
link Location to File--><path d="M546.5,813.17 C505,835.94 451.88,865.08 406.31,890.07 " fill="none" id="Location-&gt;File" style="stroke: #A80036; stroke-width: 1.0;"/><polygon fill="#A80036" points="401.93,892.48,411.7454,891.6685,406.3162,890.0797,407.9049,884.6506,401.93,892.48" style="stroke: #A80036; stroke-width: 1.0;"/><polygon fill="#000000" points="499,850.1553,493,853.1553,499,856.1553,499,850.1553" style="stroke: #000000; stroke-width: 1.0;"/><text fill="#000000" font-family="sans-serif" font-size="13" lengthAdjust="spacingAndGlyphs" textLength="12" x="505" y="856.5684">in</text><!--MD5=[bba504be18b0ca9902f2d4fdb48fd109]
link Location to Range--><path d="M617,813.39 C617,842.83 617,882.84 617,910.79 " fill="none" id="Location-&gt;Range" style="stroke: #A80036; stroke-width: 1.0;"/><polygon fill="#A80036" points="617,915.87,621,906.87,617,910.87,613,906.87,617,915.87" style="stroke: #A80036; stroke-width: 1.0;"/><text fill="#000000" font-family="sans-serif" font-size="13" lengthAdjust="spacingAndGlyphs" textLength="12" x="618" y="856.5684">at</text><polygon fill="#000000" points="619.5,865.3105,622.5,871.3105,625.5,865.3105,619.5,865.3105" style="stroke: #000000; stroke-width: 1.0;"/><!--MD5=[fea857486dbdc6b824b8831af24c592c]
link Range to Position--><path d="M597,974.04 C587.06,989.69 576.11,1010.03 571,1030 C563.18,1060.55 577.68,1094.06 592.26,1117.97 " fill="none" id="Range-&gt;Position" style="stroke: #A80036; stroke-width: 1.0;"/><polygon fill="#A80036" points="594.97,1122.32,593.5832,1112.5693,592.3162,1118.0824,586.803,1116.8154,594.97,1122.32" style="stroke: #A80036; stroke-width: 1.0;"/><text fill="#000000" font-family="sans-serif" font-size="13" lengthAdjust="spacingAndGlyphs" textLength="30" x="572" y="1043.5684">from</text><polygon fill="#000000" points="582.5,1052.3105,585.5,1058.3105,588.5,1052.3105,582.5,1052.3105" style="stroke: #000000; stroke-width: 1.0;"/><!--MD5=[fea857486dbdc6b824b8831af24c592c]
link Range to Position--><path d="M618.27,974.38 C618.93,990.65 619.67,1011.47 620,1030 C620.53,1059.5 619.26,1093.05 618.02,1117.25 " fill="none" id="Range-&gt;Position-1" style="stroke: #A80036; stroke-width: 1.0;"/><polygon fill="#A80036" points="617.75,1122.26,622.2083,1113.478,618.0075,1117.2666,614.2189,1113.0659,617.75,1122.26" style="stroke: #A80036; stroke-width: 1.0;"/><text fill="#000000" font-family="sans-serif" font-size="13" lengthAdjust="spacingAndGlyphs" textLength="13" x="622" y="1043.5684">to</text><polygon fill="#000000" points="624,1052.3105,627,1058.3105,630,1052.3105,624,1052.3105" style="stroke: #000000; stroke-width: 1.0;"/><!--MD5=[7613b5bb39efec6b4ed009dc07b12e35]
reverse link CodeSmellLifespan to CodeSmell--><path d="M647.23,474.8 C644.82,486.24 642.35,497.95 640,509 C637.95,518.63 635.76,528.85 633.62,538.79 " fill="none" id="CodeSmellLifespan&lt;-CodeSmell" style="stroke: #A80036; stroke-width: 1.0;"/><polygon fill="#A80036" points="649.9,462.05,644.7517,467.0993,647.4325,473.7936,652.5808,468.7443,649.9,462.05" style="stroke: #A80036; stroke-width: 1.0;"/><text fill="#000000" font-family="sans-serif" font-size="13" lengthAdjust="spacingAndGlyphs" textLength="8" x="640.0384" y="482.3391">1</text><text fill="#000000" font-family="sans-serif" font-size="13" lengthAdjust="spacingAndGlyphs" textLength="24" x="609.6956" y="528.2553">1..n</text><!--MD5=[9371a73726d20c19e4b0ce090614fb4b]
reverse link File to CodeSmell--><path d="M334.15,880.21 C354.45,835.86 385.73,777.18 425,734 C455.44,700.53 495.7,670.99 531.81,648.15 " fill="none" id="File&lt;-CodeSmell" style="stroke: #A80036; stroke-width: 1.0;"/><polygon fill="#A80036" points="328.72,892.31,334.828,888.4769,333.6389,881.3645,327.5309,885.1976,328.72,892.31" style="stroke: #A80036; stroke-width: 1.0;"/><polygon fill="#000000" points="448.5,776,451.5,770,454.5,776,448.5,776" style="stroke: #000000; stroke-width: 1.0;"/><text fill="#000000" font-family="sans-serif" font-size="13" lengthAdjust="spacingAndGlyphs" textLength="54" x="426" y="791.5684">contains</text><text fill="#000000" font-family="sans-serif" font-size="13" lengthAdjust="spacingAndGlyphs" textLength="22" x="332.9824" y="881.8174">1..*</text><text fill="#000000" font-family="sans-serif" font-size="13" lengthAdjust="spacingAndGlyphs" textLength="22" x="502.1392" y="649.0009">0..*</text><!--MD5=[299d3f69215aef695c971cdc18b67a32]
link File to LineCounts--><path d="M308,997.6 C308,1020.03 308,1046.8 308,1071.63 " fill="none" id="File-&gt;LineCounts" style="stroke: #A80036; stroke-width: 1.0;"/><polygon fill="#A80036" points="308,1076.9,312,1067.9,308,1071.9,304,1067.9,308,1076.9" style="stroke: #A80036; stroke-width: 1.0;"/><text fill="#000000" font-family="sans-serif" font-size="13" lengthAdjust="spacingAndGlyphs" textLength="22" x="309" y="1043.5684">has</text><polygon fill="#000000" points="315.5,1052.3105,318.5,1058.3105,321.5,1052.3105,315.5,1052.3105" style="stroke: #000000; stroke-width: 1.0;"/><!--MD5=[d19825e44517e95c2be8c8cea60152e4]
link Relay.Connection to Relay.Edge--><path d="M1010.1,117.34 C993.7,141.95 969.95,177.58 952.75,203.37 " fill="none" id="Relay.Connection-&gt;Relay.Edge" style="stroke: #A80036; stroke-width: 1.0;"/><polygon fill="#A80036" points="949.84,207.74,958.1522,202.4572,952.6069,203.5754,951.4887,198.0301,949.84,207.74" style="stroke: #A80036; stroke-width: 1.0;"/><!--MD5=[f9adffbad04fd0d7decf6dc891dbb163]
link Relay.Connection to Relay.PageInfo--><path d="M1042.88,117.34 C1053.92,139.88 1069.5,171.68 1081.74,196.68 " fill="none" id="Relay.Connection-&gt;Relay.PageInfo" style="stroke: #A80036; stroke-width: 1.0;"/><polygon fill="#A80036" points="1083.99,201.27,1083.6183,191.4282,1081.7883,196.7808,1076.4356,194.9509,1083.99,201.27" style="stroke: #A80036; stroke-width: 1.0;"/><!--MD5=[849d0113561f6120a87ce558c0ae3e7b]
@startuml graphql
hide circle
hide empty members

class Query {
  {method} +repository(name: String!): Repository
  {method} +repositories: Connection<Repository>!
  {method} +codeSmell(id: ID!): CodeSmell
  {method} +codeSmellLifeSpan(id: ID!): CodeSmellLifeSpan
}
Query - - Repository
Query - - CodeSmell
Query - - CodeSmellLifespan

class Repository {
  +name: String!
  {method} +commit(oid: String!): Commit
  {method} +commits: Connection<Commit>!
  {method} +codeSmellLifespans: Connection<CodeSmellLifespan>!
}
Repository "1" *- - "0..*" Commit
Repository "1" *- - "0..*" CodeSmellLifespan

class Commit {
  +oid: String!
  +committer: Signature!
  +author: Signature!
  {method} +combinedFileDifferencees: Connection<CombinedFileDifference>!
  {method} +codeSmells: Connection<CodeSmell>!
  {method} +files: Connection<File>!
}
Commit - -> Signature : committed by >
Commit - -> Signature : authored by >
Commit "1" *- - "0..*" CodeSmell
Commit "1" *- - "0..*" File
Commit "1" *- - "0..*" CombinedFileDifference

class CombinedFileDifference {
  +changeKinds: [FileChangeKind!]!
  +headFile: File
  +baseFiles: [File]!
}
CombinedFileDifference "0..*" - - "0..1" File : of >
CombinedFileDifference "0..*" - - "0..*" File : compared to >
CombinedFileDifference - -> FileChangeKind : of >

enum FileChangeKind {
  ADDED
  COPIED
  DELETED
  MODIFIED
  RENAMED
  TYPE_CHANGED
}

class Signature {
  +name: String!
  +email: String!
  +date: String!
}

class CodeSmell {
  +id: ID!
  +message: String!
  +commit: Commit!
  +locations: [Location!]!
  +ordinal: Int!
  {method} +lifespan: CodeSmellLifespan!
}
CodeSmell "1..n" - -> "0..n" Location : at >

class Location {
  +file: File!
  +range: Range!
  +contents(encoding: String): String!
}
Location - -> File : in >
Location - -> Range : at >
class Range {
  +start: Position!
  +end: Position!
}
Range - -> Position : from >
Range - -> Position : to >
class Position {
  +line: Int!
  +character: Int!
}

class CodeSmellLifespan {
  +id: ID!
  +kind: String!
  +repository: Repository!
  +duration: String!
  +interval: String!
  {method} +instances: Connection<CodeSmell>!
}
CodeSmellLifespan "1" *- - "1..n" CodeSmell

class LineCounts {
  +total: Int!
  +source: Int
  +comment: Int
  +single: Int
  +block: Int
  +mixed: Int
  +blockEmpty: Int
  +empty: Int
  +todo: Int
}

class File {
  +path: String!
  +linesCount: Int!
  +content(encoding: String): String!
  +lineCounts(encoding: String): LineCounts!
  {method} +codeSmells: Connection<CodeSmell>!
}
File "1..*" *- - "0..*" CodeSmell : contains >
File - -> LineCounts : has >

namespace Relay {
  interface Connection<TNode> {
    +pageInfo: PageInfo!
    +edges: [Edge<TNode>!]!
  }
  Connection - -> Edge
  Connection - -> PageInfo
  class PageInfo {
    +endCursor: String!
    +hasNextPage: Boolean!
    +hasPreviousPage: Boolean!
  }
  interface Edge<TNode> {
    +node: TNode!
    +cursor: String!
  }
}
@enduml

PlantUML version 1.2019.13(Tue Dec 10 18:18:29 CET 2019)
(GPL source distribution)
Java Runtime: Java(TM) SE Runtime Environment
JVM: Java HotSpot(TM) 64-Bit Server VM
Java Version: 13.0.1+9
Operating System: Mac OS X
Default Encoding: UTF-8
Language: en
Country: US
--></g></svg>