<?xml version="1.0" encoding="UTF-8" standalone="no"?><svg xmlns="http://www.w3.org/2000/svg" xmlns:xlink="http://www.w3.org/1999/xlink" contentScriptType="application/ecmascript" contentStyleType="text/css" height="1186px" preserveAspectRatio="none" style="width:868px;height:1186px;" version="1.1" viewBox="0 0 868 1186" width="868px" zoomAndPan="magnify"><defs/><g><!--MD5=[91221848cc6fc2b51471cfb300e81a0a]
class Query--><rect fill="#FFFFFF" height="83.9531" id="Query" style="stroke: #383838; stroke-width: 1.5;" width="270" x="581" y="8"/><text fill="#000000" font-family="sans-serif" font-size="12" lengthAdjust="spacingAndGlyphs" textLength="34" x="699" y="24.6016">Query</text><line style="stroke: #383838; stroke-width: 1.5;" x1="582" x2="850" y1="32.1328" y2="32.1328"/><ellipse cx="592" cy="43.1328" fill="#A6A6A6" rx="3" ry="3" style="stroke: #545454; stroke-width: 1.0;"/><text fill="#000000" font-family="sans-serif" font-size="11" lengthAdjust="spacingAndGlyphs" textLength="198" x="601" y="46.7676">repository(name: String!): Repository</text><ellipse cx="592" cy="56.0879" fill="#A6A6A6" rx="3" ry="3" style="stroke: #545454; stroke-width: 1.0;"/><text fill="#000000" font-family="sans-serif" font-size="11" lengthAdjust="spacingAndGlyphs" textLength="212" x="601" y="59.7227">repositories: Connection&lt;Repository&gt;!</text><ellipse cx="592" cy="69.043" fill="#A6A6A6" rx="3" ry="3" style="stroke: #545454; stroke-width: 1.0;"/><text fill="#000000" font-family="sans-serif" font-size="11" lengthAdjust="spacingAndGlyphs" textLength="154" x="601" y="72.6777">codeSmell(id: ID!): CodeSmell</text><ellipse cx="592" cy="81.998" fill="#A6A6A6" rx="3" ry="3" style="stroke: #545454; stroke-width: 1.0;"/><text fill="#000000" font-family="sans-serif" font-size="11" lengthAdjust="spacingAndGlyphs" textLength="244" x="601" y="85.6328">codeSmellLifespan(id: ID!): CodeSmellLifespan</text><!--MD5=[c05f8d4c5007184b0fb1ea93cdb8d9fe]
class Repository--><rect fill="#FFFFFF" height="91.9531" id="Repository" style="stroke: #383838; stroke-width: 1.5;" width="321" x="341.5" y="153"/><text fill="#000000" font-family="sans-serif" font-size="12" lengthAdjust="spacingAndGlyphs" textLength="61" x="471.5" y="169.6016">Repository</text><line style="stroke: #383838; stroke-width: 1.5;" x1="342.5" x2="661.5" y1="177.1328" y2="177.1328"/><ellipse cx="352.5" cy="188.1328" fill="none" rx="3" ry="3" style="stroke: #545454; stroke-width: 1.0;"/><text fill="#000000" font-family="sans-serif" font-size="11" lengthAdjust="spacingAndGlyphs" textLength="70" x="361.5" y="191.7676">name: String!</text><line style="stroke: #383838; stroke-width: 1.5;" x1="342.5" x2="661.5" y1="198.0879" y2="198.0879"/><ellipse cx="352.5" cy="209.0879" fill="#A6A6A6" rx="3" ry="3" style="stroke: #545454; stroke-width: 1.0;"/><text fill="#000000" font-family="sans-serif" font-size="11" lengthAdjust="spacingAndGlyphs" textLength="154" x="361.5" y="212.7227">commit(oid: String!): Commit</text><ellipse cx="352.5" cy="222.043" fill="#A6A6A6" rx="3" ry="3" style="stroke: #545454; stroke-width: 1.0;"/><text fill="#000000" font-family="sans-serif" font-size="11" lengthAdjust="spacingAndGlyphs" textLength="177" x="361.5" y="225.6777">commits: Connection&lt;Commit&gt;!</text><ellipse cx="352.5" cy="234.998" fill="#A6A6A6" rx="3" ry="3" style="stroke: #545454; stroke-width: 1.0;"/><text fill="#000000" font-family="sans-serif" font-size="11" lengthAdjust="spacingAndGlyphs" textLength="295" x="361.5" y="238.6328">codeSmellLifespans: Connection&lt;CodeSmellLifespan&gt;!</text><!--MD5=[90af14acebbc533b6fea97f131b1446c]
class CodeSmell--><rect fill="#FFFFFF" height="117.8633" id="CodeSmell" style="stroke: #383838; stroke-width: 1.5;" width="178" x="500" y="498"/><text fill="#000000" font-family="sans-serif" font-size="12" lengthAdjust="spacingAndGlyphs" textLength="60" x="559" y="514.6016">CodeSmell</text><line style="stroke: #383838; stroke-width: 1.5;" x1="501" x2="677" y1="522.1328" y2="522.1328"/><ellipse cx="511" cy="533.1328" fill="none" rx="3" ry="3" style="stroke: #545454; stroke-width: 1.0;"/><text fill="#000000" font-family="sans-serif" font-size="11" lengthAdjust="spacingAndGlyphs" textLength="30" x="520" y="536.7676">id: ID!</text><ellipse cx="511" cy="546.0879" fill="none" rx="3" ry="3" style="stroke: #545454; stroke-width: 1.0;"/><text fill="#000000" font-family="sans-serif" font-size="11" lengthAdjust="spacingAndGlyphs" textLength="88" x="520" y="549.7227">message: String!</text><ellipse cx="511" cy="559.043" fill="none" rx="3" ry="3" style="stroke: #545454; stroke-width: 1.0;"/><text fill="#000000" font-family="sans-serif" font-size="11" lengthAdjust="spacingAndGlyphs" textLength="91" x="520" y="562.6777">commit: Commit!</text><ellipse cx="511" cy="571.998" fill="none" rx="3" ry="3" style="stroke: #545454; stroke-width: 1.0;"/><text fill="#000000" font-family="sans-serif" font-size="11" lengthAdjust="spacingAndGlyphs" textLength="115" x="520" y="575.6328">locations: [Location!]!</text><ellipse cx="511" cy="584.9531" fill="none" rx="3" ry="3" style="stroke: #545454; stroke-width: 1.0;"/><text fill="#000000" font-family="sans-serif" font-size="11" lengthAdjust="spacingAndGlyphs" textLength="61" x="520" y="588.5879">ordinal: Int!</text><line style="stroke: #383838; stroke-width: 1.5;" x1="501" x2="677" y1="594.9082" y2="594.9082"/><ellipse cx="511" cy="605.9082" fill="#A6A6A6" rx="3" ry="3" style="stroke: #545454; stroke-width: 1.0;"/><text fill="#000000" font-family="sans-serif" font-size="11" lengthAdjust="spacingAndGlyphs" textLength="152" x="520" y="609.543">lifespan: CodeSmellLifespan!</text><!--MD5=[14d32a97c52c5f9b113614086055026b]
class CodeSmellLifespan--><rect fill="#FFFFFF" height="117.8633" id="CodeSmellLifespan" style="stroke: #383838; stroke-width: 1.5;" width="222" x="559" y="306"/><text fill="#000000" font-family="sans-serif" font-size="12" lengthAdjust="spacingAndGlyphs" textLength="108" x="616" y="322.6016">CodeSmellLifespan</text><line style="stroke: #383838; stroke-width: 1.5;" x1="560" x2="780" y1="330.1328" y2="330.1328"/><ellipse cx="570" cy="341.1328" fill="none" rx="3" ry="3" style="stroke: #545454; stroke-width: 1.0;"/><text fill="#000000" font-family="sans-serif" font-size="11" lengthAdjust="spacingAndGlyphs" textLength="30" x="579" y="344.7676">id: ID!</text><ellipse cx="570" cy="354.0879" fill="none" rx="3" ry="3" style="stroke: #545454; stroke-width: 1.0;"/><text fill="#000000" font-family="sans-serif" font-size="11" lengthAdjust="spacingAndGlyphs" textLength="64" x="579" y="357.7227">kind: String!</text><ellipse cx="570" cy="367.043" fill="none" rx="3" ry="3" style="stroke: #545454; stroke-width: 1.0;"/><text fill="#000000" font-family="sans-serif" font-size="11" lengthAdjust="spacingAndGlyphs" textLength="123" x="579" y="370.6777">repository: Repository!</text><ellipse cx="570" cy="379.998" fill="none" rx="3" ry="3" style="stroke: #545454; stroke-width: 1.0;"/><text fill="#000000" font-family="sans-serif" font-size="11" lengthAdjust="spacingAndGlyphs" textLength="87" x="579" y="383.6328">duration: String!</text><ellipse cx="570" cy="392.9531" fill="none" rx="3" ry="3" style="stroke: #545454; stroke-width: 1.0;"/><text fill="#000000" font-family="sans-serif" font-size="11" lengthAdjust="spacingAndGlyphs" textLength="81" x="579" y="396.5879">interval: String!</text><line style="stroke: #383838; stroke-width: 1.5;" x1="560" x2="780" y1="402.9082" y2="402.9082"/><ellipse cx="570" cy="413.9082" fill="#A6A6A6" rx="3" ry="3" style="stroke: #545454; stroke-width: 1.0;"/><text fill="#000000" font-family="sans-serif" font-size="11" lengthAdjust="spacingAndGlyphs" textLength="196" x="579" y="417.543">instances: Connection&lt;CodeSmell&gt;!</text><!--MD5=[4da33e036383ae2c9d7a81b1e09b72e8]
class Commit--><rect fill="#FFFFFF" height="117.8633" id="Commit" style="stroke: #383838; stroke-width: 1.5;" width="381" x="142.5" y="306"/><text fill="#000000" font-family="sans-serif" font-size="12" lengthAdjust="spacingAndGlyphs" textLength="44" x="311" y="322.6016">Commit</text><line style="stroke: #383838; stroke-width: 1.5;" x1="143.5" x2="522.5" y1="330.1328" y2="330.1328"/><ellipse cx="153.5" cy="341.1328" fill="none" rx="3" ry="3" style="stroke: #545454; stroke-width: 1.0;"/><text fill="#000000" font-family="sans-serif" font-size="11" lengthAdjust="spacingAndGlyphs" textLength="58" x="162.5" y="344.7676">oid: String!</text><ellipse cx="153.5" cy="354.0879" fill="none" rx="3" ry="3" style="stroke: #545454; stroke-width: 1.0;"/><text fill="#000000" font-family="sans-serif" font-size="11" lengthAdjust="spacingAndGlyphs" textLength="115" x="162.5" y="357.7227">committer: Signature!</text><ellipse cx="153.5" cy="367.043" fill="none" rx="3" ry="3" style="stroke: #545454; stroke-width: 1.0;"/><text fill="#000000" font-family="sans-serif" font-size="11" lengthAdjust="spacingAndGlyphs" textLength="96" x="162.5" y="370.6777">author: Signature!</text><line style="stroke: #383838; stroke-width: 1.5;" x1="143.5" x2="522.5" y1="376.998" y2="376.998"/><ellipse cx="153.5" cy="387.998" fill="#A6A6A6" rx="3" ry="3" style="stroke: #545454; stroke-width: 1.0;"/><text fill="#000000" font-family="sans-serif" font-size="11" lengthAdjust="spacingAndGlyphs" textLength="355" x="162.5" y="391.6328">combinedFileDifferencees: Connection&lt;CombinedFileDifference&gt;!</text><ellipse cx="153.5" cy="400.9531" fill="#A6A6A6" rx="3" ry="3" style="stroke: #545454; stroke-width: 1.0;"/><text fill="#000000" font-family="sans-serif" font-size="11" lengthAdjust="spacingAndGlyphs" textLength="205" x="162.5" y="404.5879">codeSmells: Connection&lt;CodeSmell&gt;!</text><ellipse cx="153.5" cy="413.9082" fill="#A6A6A6" rx="3" ry="3" style="stroke: #545454; stroke-width: 1.0;"/><text fill="#000000" font-family="sans-serif" font-size="11" lengthAdjust="spacingAndGlyphs" textLength="129" x="162.5" y="417.543">files: Connection&lt;File&gt;!</text><!--MD5=[79b2c35a8607833edf9d17d918b0cb90]
class Signature--><rect fill="#FFFFFF" height="70.998" id="Signature" style="stroke: #383838; stroke-width: 1.5;" width="96" x="355" y="521.5"/><text fill="#000000" font-family="sans-serif" font-size="12" lengthAdjust="spacingAndGlyphs" textLength="53" x="376.5" y="538.1016">Signature</text><line style="stroke: #383838; stroke-width: 1.5;" x1="356" x2="450" y1="545.6328" y2="545.6328"/><ellipse cx="366" cy="556.6328" fill="none" rx="3" ry="3" style="stroke: #545454; stroke-width: 1.0;"/><text fill="#000000" font-family="sans-serif" font-size="11" lengthAdjust="spacingAndGlyphs" textLength="70" x="375" y="560.2676">name: String!</text><ellipse cx="366" cy="569.5879" fill="none" rx="3" ry="3" style="stroke: #545454; stroke-width: 1.0;"/><text fill="#000000" font-family="sans-serif" font-size="11" lengthAdjust="spacingAndGlyphs" textLength="69" x="375" y="573.2227">email: String!</text><ellipse cx="366" cy="582.543" fill="none" rx="3" ry="3" style="stroke: #545454; stroke-width: 1.0;"/><text fill="#000000" font-family="sans-serif" font-size="11" lengthAdjust="spacingAndGlyphs" textLength="64" x="375" y="586.1777">date: String!</text><!--MD5=[63dd87716ef75a5caca5dce59428e94a]
class File--><rect fill="#FFFFFF" height="104.9082" id="File" style="stroke: #383838; stroke-width: 1.5;" width="250" x="162" y="845.5"/><text fill="#000000" font-family="sans-serif" font-size="12" lengthAdjust="spacingAndGlyphs" textLength="19" x="277.5" y="862.1016">File</text><line style="stroke: #383838; stroke-width: 1.5;" x1="163" x2="411" y1="869.6328" y2="869.6328"/><ellipse cx="173" cy="880.6328" fill="none" rx="3" ry="3" style="stroke: #545454; stroke-width: 1.0;"/><text fill="#000000" font-family="sans-serif" font-size="11" lengthAdjust="spacingAndGlyphs" textLength="65" x="182" y="884.2676">path: String!</text><ellipse cx="173" cy="893.5879" fill="none" rx="3" ry="3" style="stroke: #545454; stroke-width: 1.0;"/><text fill="#000000" font-family="sans-serif" font-size="11" lengthAdjust="spacingAndGlyphs" textLength="81" x="182" y="897.2227">linesCount: Int!</text><line style="stroke: #383838; stroke-width: 1.5;" x1="163" x2="411" y1="903.543" y2="903.543"/><ellipse cx="173" cy="914.543" fill="#A6A6A6" rx="3" ry="3" style="stroke: #545454; stroke-width: 1.0;"/><text fill="#000000" font-family="sans-serif" font-size="11" lengthAdjust="spacingAndGlyphs" textLength="178" x="182" y="918.1777">content(encoding: String): String!</text><ellipse cx="173" cy="927.498" fill="#A6A6A6" rx="3" ry="3" style="stroke: #545454; stroke-width: 1.0;"/><text fill="#000000" font-family="sans-serif" font-size="11" lengthAdjust="spacingAndGlyphs" textLength="224" x="182" y="931.1328">lineCounts(encoding: String): LineCounts!</text><ellipse cx="173" cy="940.4531" fill="#A6A6A6" rx="3" ry="3" style="stroke: #545454; stroke-width: 1.0;"/><text fill="#000000" font-family="sans-serif" font-size="11" lengthAdjust="spacingAndGlyphs" textLength="205" x="182" y="944.0879">codeSmells: Connection&lt;CodeSmell&gt;!</text><!--MD5=[7e4e669716e39576ae3e26afe40346de]
class CombinedFileDifference--><rect fill="#FFFFFF" height="70.998" id="CombinedFileDifference" style="stroke: #383838; stroke-width: 1.5;" width="198" x="28" y="694"/><text fill="#000000" font-family="sans-serif" font-size="12" lengthAdjust="spacingAndGlyphs" textLength="137" x="58.5" y="710.6016">CombinedFileDifference</text><line style="stroke: #383838; stroke-width: 1.5;" x1="29" x2="225" y1="718.1328" y2="718.1328"/><ellipse cx="39" cy="729.1328" fill="none" rx="3" ry="3" style="stroke: #545454; stroke-width: 1.0;"/><text fill="#000000" font-family="sans-serif" font-size="11" lengthAdjust="spacingAndGlyphs" textLength="172" x="48" y="732.7676">changeKinds: [FileChangeKind!]!</text><ellipse cx="39" cy="742.0879" fill="none" rx="3" ry="3" style="stroke: #545454; stroke-width: 1.0;"/><text fill="#000000" font-family="sans-serif" font-size="11" lengthAdjust="spacingAndGlyphs" textLength="68" x="48" y="745.7227">headFile: File</text><ellipse cx="39" cy="755.043" fill="none" rx="3" ry="3" style="stroke: #545454; stroke-width: 1.0;"/><text fill="#000000" font-family="sans-serif" font-size="11" lengthAdjust="spacingAndGlyphs" textLength="84" x="48" y="758.6777">baseFiles: [File]!</text><!--MD5=[a95c5253a345b2cae7dff15792fcfa1d]
class FileChangeKind--><rect fill="#FFFFFF" height="109.8633" id="FileChangeKind" style="stroke: #383838; stroke-width: 1.5;" width="98" x="6" y="843"/><text fill="#000000" font-family="sans-serif" font-size="12" lengthAdjust="spacingAndGlyphs" textLength="88" x="11" y="859.6016">FileChangeKind</text><line style="stroke: #383838; stroke-width: 1.5;" x1="7" x2="103" y1="867.1328" y2="867.1328"/><text fill="#000000" font-family="sans-serif" font-size="11" lengthAdjust="spacingAndGlyphs" textLength="38" x="12" y="881.7676">ADDED</text><text fill="#000000" font-family="sans-serif" font-size="11" lengthAdjust="spacingAndGlyphs" textLength="40" x="12" y="894.7227">COPIED</text><text fill="#000000" font-family="sans-serif" font-size="11" lengthAdjust="spacingAndGlyphs" textLength="47" x="12" y="907.6777">DELETED</text><text fill="#000000" font-family="sans-serif" font-size="11" lengthAdjust="spacingAndGlyphs" textLength="52" x="12" y="920.6328">MODIFIED</text><text fill="#000000" font-family="sans-serif" font-size="11" lengthAdjust="spacingAndGlyphs" textLength="52" x="12" y="933.5879">RENAMED</text><text fill="#000000" font-family="sans-serif" font-size="11" lengthAdjust="spacingAndGlyphs" textLength="86" x="12" y="946.543">TYPE_CHANGED</text><!--MD5=[4f1f3706c1a355a8488e154afcaed5df]
class Location--><rect fill="#FFFFFF" height="78.998" id="Location" style="stroke: #383838; stroke-width: 1.5;" width="210" x="480" y="690"/><text fill="#000000" font-family="sans-serif" font-size="12" lengthAdjust="spacingAndGlyphs" textLength="47" x="561.5" y="706.6016">Location</text><line style="stroke: #383838; stroke-width: 1.5;" x1="481" x2="689" y1="714.1328" y2="714.1328"/><ellipse cx="491" cy="725.1328" fill="none" rx="3" ry="3" style="stroke: #545454; stroke-width: 1.0;"/><text fill="#000000" font-family="sans-serif" font-size="11" lengthAdjust="spacingAndGlyphs" textLength="43" x="500" y="728.7676">file: File!</text><ellipse cx="491" cy="738.0879" fill="none" rx="3" ry="3" style="stroke: #545454; stroke-width: 1.0;"/><text fill="#000000" font-family="sans-serif" font-size="11" lengthAdjust="spacingAndGlyphs" textLength="73" x="500" y="741.7227">range: Range!</text><line style="stroke: #383838; stroke-width: 1.5;" x1="481" x2="689" y1="748.043" y2="748.043"/><ellipse cx="491" cy="759.043" fill="#A6A6A6" rx="3" ry="3" style="stroke: #545454; stroke-width: 1.0;"/><text fill="#000000" font-family="sans-serif" font-size="11" lengthAdjust="spacingAndGlyphs" textLength="184" x="500" y="762.6777">contents(encoding: String): String!</text><!--MD5=[2f49539d777d8d7526d361413cf07525]
class Range--><rect fill="#FFFFFF" height="58.043" id="Range" style="stroke: #383838; stroke-width: 1.5;" width="103" x="533.5" y="869"/><text fill="#000000" font-family="sans-serif" font-size="12" lengthAdjust="spacingAndGlyphs" textLength="36" x="567" y="885.6016">Range</text><line style="stroke: #383838; stroke-width: 1.5;" x1="534.5" x2="635.5" y1="893.1328" y2="893.1328"/><ellipse cx="544.5" cy="904.1328" fill="none" rx="3" ry="3" style="stroke: #545454; stroke-width: 1.0;"/><text fill="#000000" font-family="sans-serif" font-size="11" lengthAdjust="spacingAndGlyphs" textLength="77" x="553.5" y="907.7676">start: Position!</text><ellipse cx="544.5" cy="917.0879" fill="none" rx="3" ry="3" style="stroke: #545454; stroke-width: 1.0;"/><text fill="#000000" font-family="sans-serif" font-size="11" lengthAdjust="spacingAndGlyphs" textLength="72" x="553.5" y="920.7227">end: Position!</text><!--MD5=[a64a835c3d62471a77f615251fdde58a]
class Position--><rect fill="#FFFFFF" height="58.043" id="Position" style="stroke: #383838; stroke-width: 1.5;" width="100" x="534" y="1072.5"/><text fill="#000000" font-family="sans-serif" font-size="12" lengthAdjust="spacingAndGlyphs" textLength="44" x="562" y="1089.1016">Position</text><line style="stroke: #383838; stroke-width: 1.5;" x1="535" x2="633" y1="1096.6328" y2="1096.6328"/><ellipse cx="545" cy="1107.6328" fill="none" rx="3" ry="3" style="stroke: #545454; stroke-width: 1.0;"/><text fill="#000000" font-family="sans-serif" font-size="11" lengthAdjust="spacingAndGlyphs" textLength="42" x="554" y="1111.2676">line: Int!</text><ellipse cx="545" cy="1120.5879" fill="none" rx="3" ry="3" style="stroke: #545454; stroke-width: 1.0;"/><text fill="#000000" font-family="sans-serif" font-size="11" lengthAdjust="spacingAndGlyphs" textLength="74" x="554" y="1124.2227">character: Int!</text><!--MD5=[b70e8c1d8ab9b9722d751f4fd5a4efd2]
class LineCounts--><rect fill="#FFFFFF" height="148.7285" id="LineCounts" style="stroke: #383838; stroke-width: 1.5;" width="108" x="233" y="1027"/><text fill="#000000" font-family="sans-serif" font-size="12" lengthAdjust="spacingAndGlyphs" textLength="62" x="256" y="1043.6016">LineCounts</text><line style="stroke: #383838; stroke-width: 1.5;" x1="234" x2="340" y1="1051.1328" y2="1051.1328"/><ellipse cx="244" cy="1062.1328" fill="none" rx="3" ry="3" style="stroke: #545454; stroke-width: 1.0;"/><text fill="#000000" font-family="sans-serif" font-size="11" lengthAdjust="spacingAndGlyphs" textLength="47" x="253" y="1065.7676">total: Int!</text><ellipse cx="244" cy="1075.0879" fill="none" rx="3" ry="3" style="stroke: #545454; stroke-width: 1.0;"/><text fill="#000000" font-family="sans-serif" font-size="11" lengthAdjust="spacingAndGlyphs" textLength="57" x="253" y="1078.7227">source: Int</text><ellipse cx="244" cy="1088.043" fill="none" rx="3" ry="3" style="stroke: #545454; stroke-width: 1.0;"/><text fill="#000000" font-family="sans-serif" font-size="11" lengthAdjust="spacingAndGlyphs" textLength="70" x="253" y="1091.6777">comment: Int</text><ellipse cx="244" cy="1100.998" fill="none" rx="3" ry="3" style="stroke: #545454; stroke-width: 1.0;"/><text fill="#000000" font-family="sans-serif" font-size="11" lengthAdjust="spacingAndGlyphs" textLength="52" x="253" y="1104.6328">single: Int</text><ellipse cx="244" cy="1113.9531" fill="none" rx="3" ry="3" style="stroke: #545454; stroke-width: 1.0;"/><text fill="#000000" font-family="sans-serif" font-size="11" lengthAdjust="spacingAndGlyphs" textLength="49" x="253" y="1117.5879">block: Int</text><ellipse cx="244" cy="1126.9082" fill="none" rx="3" ry="3" style="stroke: #545454; stroke-width: 1.0;"/><text fill="#000000" font-family="sans-serif" font-size="11" lengthAdjust="spacingAndGlyphs" textLength="53" x="253" y="1130.543">mixed: Int</text><ellipse cx="244" cy="1139.8633" fill="none" rx="3" ry="3" style="stroke: #545454; stroke-width: 1.0;"/><text fill="#000000" font-family="sans-serif" font-size="11" lengthAdjust="spacingAndGlyphs" textLength="82" x="253" y="1143.498">blockEmpty: Int</text><ellipse cx="244" cy="1152.8184" fill="none" rx="3" ry="3" style="stroke: #545454; stroke-width: 1.0;"/><text fill="#000000" font-family="sans-serif" font-size="11" lengthAdjust="spacingAndGlyphs" textLength="53" x="253" y="1156.4531">empty: Int</text><ellipse cx="244" cy="1165.7734" fill="none" rx="3" ry="3" style="stroke: #545454; stroke-width: 1.0;"/><text fill="#000000" font-family="sans-serif" font-size="11" lengthAdjust="spacingAndGlyphs" textLength="45" x="253" y="1169.4082">todo: Int</text><!--MD5=[1c91d0367d879c833e24e7086df5376e]
reverse link Query to Repository--><path d="M645.2,99.63 C620.15,116.84 592.1,136.11 567.51,153 " fill="none" id="Query&lt;-Repository" style="stroke: #383838; stroke-width: 1.0;"/><polygon fill="#383838" points="656.1,92.14,648.8897,92.2455,646.2138,98.9417,653.4241,98.8362,656.1,92.14" style="stroke: #383838; stroke-width: 1.0;"/><!--MD5=[488e53637d3b82ca58d7e4e98d1cbc80]
reverse link Query to CodeSmell--><path d="M749.48,103.52 C792.85,178.85 856.49,319.97 799,424 C773.12,470.83 722.9,503.3 678.05,524.31 " fill="none" id="Query&lt;-CodeSmell" style="stroke: #383838; stroke-width: 1.0;"/><polygon fill="#383838" points="742.71,92.01,742.3032,99.2096,748.7925,102.3542,749.1993,95.1546,742.71,92.01" style="stroke: #383838; stroke-width: 1.0;"/><!--MD5=[77aefcd5472509accfbb29de99e9a288]
reverse link Query to CodeSmellLifespan--><path d="M708,105.44 C699.76,161.49 686.97,248.52 678.54,305.88 " fill="none" id="Query&lt;-CodeSmellLifespan" style="stroke: #383838; stroke-width: 1.0;"/><polygon fill="#383838" points="709.94,92.24,705.1117,97.596,708.1986,104.113,713.027,98.7569,709.94,92.24" style="stroke: #383838; stroke-width: 1.0;"/><!--MD5=[a9b40be1fc33cd0a4e1b52667092735a]
reverse link Repository to Commit--><path d="M445.61,254.73 C428.64,271.19 409.97,289.3 392.8,305.97 " fill="none" id="Repository&lt;-Commit" style="stroke: #383838; stroke-width: 1.0;"/><polygon fill="#383838" points="455.37,245.25,448.2788,246.5597,446.7604,253.6091,453.8516,252.2994,455.37,245.25" style="stroke: #383838; stroke-width: 1.0;"/><text fill="#000000" font-family="sans-serif" font-size="11" lengthAdjust="spacingAndGlyphs" textLength="7" x="441.0072" y="263.6326">1</text><text fill="#000000" font-family="sans-serif" font-size="11" lengthAdjust="spacingAndGlyphs" textLength="18" x="381.9438" y="295.5367">0..*</text><!--MD5=[61322d6ad31b56d6662db4e11a7a3eed]
reverse link Repository to CodeSmellLifespan--><path d="M558.06,254.73 C574.92,271.19 593.48,289.3 610.56,305.97 " fill="none" id="Repository&lt;-CodeSmellLifespan" style="stroke: #383838; stroke-width: 1.0;"/><polygon fill="#383838" points="548.35,245.25,549.8521,252.3029,556.9402,253.6291,555.4381,246.5761,548.35,245.25" style="stroke: #383838; stroke-width: 1.0;"/><text fill="#000000" font-family="sans-serif" font-size="11" lengthAdjust="spacingAndGlyphs" textLength="7" x="547.6436" y="263.6326">1</text><text fill="#000000" font-family="sans-serif" font-size="11" lengthAdjust="spacingAndGlyphs" textLength="18" x="582.9356" y="295.5367">0..*</text><!--MD5=[d5389447baac46a53bcf1b3fe7f2197e]
link Commit to Signature--><path d="M405.34,424.02 C412.89,433.22 419.45,443.28 424,454 C432.39,473.79 428.46,497.21 421.84,516.61 " fill="none" id="Commit-&gt;Signature" style="stroke: #383838; stroke-width: 1.0;"/><polygon fill="#383838" points="420.1,521.45,426.9036,514.3288,421.788,516.7436,419.3733,511.628,420.1,521.45" style="stroke: #383838; stroke-width: 1.0;"/><text fill="#000000" font-family="sans-serif" font-size="11" lengthAdjust="spacingAndGlyphs" textLength="73" x="429" y="465.6348">committed by</text><polygon fill="#000000" points="462,473.9551,464,477.9551,466,473.9551,462,473.9551" style="stroke: #000000; stroke-width: 1.0;"/><!--MD5=[d5389447baac46a53bcf1b3fe7f2197e]
link Commit to Signature--><path d="M330.01,424.06 C330.82,438.73 333.09,454.22 338,468 C344.3,485.66 355.41,502.79 366.67,517.16 " fill="none" id="Commit-&gt;Signature-1" style="stroke: #383838; stroke-width: 1.0;"/><polygon fill="#383838" points="369.85,521.14,367.3597,511.6112,366.73,517.2329,361.1083,516.6031,369.85,521.14" style="stroke: #383838; stroke-width: 1.0;"/><text fill="#000000" font-family="sans-serif" font-size="11" lengthAdjust="spacingAndGlyphs" textLength="65" x="339" y="465.6348">authored by</text><polygon fill="#000000" points="368,473.9551,370,477.9551,372,473.9551,368,473.9551" style="stroke: #000000; stroke-width: 1.0;"/><!--MD5=[be2b6f869df44cb34b7a7286dbd81aae]
reverse link Commit to CodeSmell--><path d="M491.06,431.07 C501.99,438.11 512.45,445.75 522,454 C536.19,466.26 548.57,482.23 558.71,497.89 " fill="none" id="Commit&lt;-CodeSmell" style="stroke: #383838; stroke-width: 1.0;"/><polygon fill="#383838" points="479.97,424.23,482.9732,430.786,490.1799,430.5354,487.1767,423.9794,479.97,424.23" style="stroke: #383838; stroke-width: 1.0;"/><polygon fill="#000000" points="543,460.9775,539,462.9775,543,464.9775,543,460.9775" style="stroke: #000000; stroke-width: 1.0;"/><text fill="#000000" font-family="sans-serif" font-size="11" lengthAdjust="spacingAndGlyphs" textLength="45" x="549" y="465.6348">exists in</text><text fill="#000000" font-family="sans-serif" font-size="11" lengthAdjust="spacingAndGlyphs" textLength="7" x="489.5587" y="442.4701">1</text><text fill="#000000" font-family="sans-serif" font-size="11" lengthAdjust="spacingAndGlyphs" textLength="18" x="535.4304" y="487.849">0..*</text><!--MD5=[206697404f7d017fb43b138904bb0ce5]
reverse link Commit to File--><path d="M326.84,437.15 C317.44,545.58 299.76,749.67 291.49,845.21 " fill="none" id="Commit&lt;-File" style="stroke: #383838; stroke-width: 1.0;"/><polygon fill="#383838" points="327.97,424.09,323.4645,429.7203,326.9287,436.0447,331.4343,430.4145,327.97,424.09" style="stroke: #383838; stroke-width: 1.0;"/><polygon fill="#000000" points="329,655,331,651,333,655,329,655" style="stroke: #000000; stroke-width: 1.0;"/><text fill="#000000" font-family="sans-serif" font-size="11" lengthAdjust="spacingAndGlyphs" textLength="45" x="310" y="668.6348">exists in</text><text fill="#000000" font-family="sans-serif" font-size="11" lengthAdjust="spacingAndGlyphs" textLength="7" x="319.9837" y="442.3139">1</text><text fill="#000000" font-family="sans-serif" font-size="11" lengthAdjust="spacingAndGlyphs" textLength="18" x="272.8276" y="835.2869">0..*</text><!--MD5=[64071156b5e8f3dff1ab06b8edd038d5]
reverse link Commit to CombinedFileDifference--><path d="M274.25,434.8 C269.58,441.16 265.09,447.61 261,454 C208.78,535.48 162.91,640.29 140.88,693.76 " fill="none" id="Commit&lt;-CombinedFileDifference" style="stroke: #383838; stroke-width: 1.0;"/><polygon fill="#383838" points="282.25,424.23,275.4406,426.6031,275.0121,433.8014,281.8215,431.4284,282.25,424.23" style="stroke: #383838; stroke-width: 1.0;"/><text fill="#000000" font-family="sans-serif" font-size="11" lengthAdjust="spacingAndGlyphs" textLength="7" x="268.9773" y="442.4701">1</text><text fill="#000000" font-family="sans-serif" font-size="11" lengthAdjust="spacingAndGlyphs" textLength="18" x="123.8865" y="683.8846">0..*</text><!--MD5=[e7e49ddd51c411f133b0979e34c15b1d]
reverse link CombinedFileDifference to File--><path d="M110.11,778.03 C108.55,790.14 109.55,802.64 116,813 C127.19,830.97 143.48,845.2 161.61,856.45 " fill="none" id="CombinedFileDifference&lt;-File" style="stroke: #383838; stroke-width: 1.0;"/><polygon fill="#FFFFFF" points="112.67,765.18,107.5787,770.2867,110.3344,776.9505,115.4257,771.8438,112.67,765.18" style="stroke: #383838; stroke-width: 1.0;"/><text fill="#000000" font-family="sans-serif" font-size="11" lengthAdjust="spacingAndGlyphs" textLength="11" x="117" y="810.6348">of</text><polygon fill="#000000" points="119,818.9551,121,822.9551,123,818.9551,119,818.9551" style="stroke: #000000; stroke-width: 1.0;"/><text fill="#000000" font-family="sans-serif" font-size="11" lengthAdjust="spacingAndGlyphs" textLength="18" x="90.3685" y="783.5877">0..*</text><text fill="#000000" font-family="sans-serif" font-size="11" lengthAdjust="spacingAndGlyphs" textLength="20" x="134.2059" y="852.513">0..1</text><!--MD5=[e7e49ddd51c411f133b0979e34c15b1d]
reverse link CombinedFileDifference to File--><path d="M152.69,776.45 C160.66,788.92 170,802.01 180,813 C190.33,824.36 202.31,835.36 214.44,845.46 " fill="none" id="CombinedFileDifference&lt;-File-1" style="stroke: #383838; stroke-width: 1.0;"/><polygon fill="#FFFFFF" points="145.78,765.24,145.5294,772.4467,152.0854,775.4499,152.336,768.2432,145.78,765.24" style="stroke: #383838; stroke-width: 1.0;"/><text fill="#000000" font-family="sans-serif" font-size="11" lengthAdjust="spacingAndGlyphs" textLength="68" x="181" y="810.6348">compared to</text><polygon fill="#000000" points="211.5,818.9551,213.5,822.9551,215.5,818.9551,211.5,818.9551" style="stroke: #000000; stroke-width: 1.0;"/><text fill="#000000" font-family="sans-serif" font-size="11" lengthAdjust="spacingAndGlyphs" textLength="18" x="129.5832" y="783.6588">0..*</text><text fill="#000000" font-family="sans-serif" font-size="11" lengthAdjust="spacingAndGlyphs" textLength="18" x="183.9511" y="835.211">0..*</text><!--MD5=[06c69e77ac539bf04b046e7f055fb30f]
link CombinedFileDifference to FileChangeKind--><path d="M77.08,765.18 C66.92,774.85 57.62,786.25 52,799 C46.72,810.96 44.89,824.57 44.89,837.75 " fill="none" id="CombinedFileDifference-&gt;FileChangeKind" style="stroke: #383838; stroke-width: 1.0;"/><polygon fill="#383838" points="44.99,842.98,48.8351,833.9128,44.9043,837.9807,40.8363,834.0499,44.99,842.98" style="stroke: #383838; stroke-width: 1.0;"/><text fill="#000000" font-family="sans-serif" font-size="11" lengthAdjust="spacingAndGlyphs" textLength="11" x="53" y="810.6348">of</text><polygon fill="#000000" points="55,818.9551,57,822.9551,59,818.9551,55,818.9551" style="stroke: #000000; stroke-width: 1.0;"/><!--MD5=[229c208cc9aab480a779edc3b71f5d25]
reverse link CodeSmell to Location--><path d="M587.33,629.27 C586.84,650.03 586.33,671.92 585.91,689.84 " fill="none" id="CodeSmell&lt;-Location" style="stroke: #383838; stroke-width: 1.0;"/><polygon fill="#FFFFFF" points="587.63,616.2,583.4926,622.1061,587.3532,628.1968,591.4905,622.2907,587.63,616.2" style="stroke: #383838; stroke-width: 1.0;"/><text fill="#000000" font-family="sans-serif" font-size="11" lengthAdjust="spacingAndGlyphs" textLength="10" x="588" y="657.6348">at</text><polygon fill="#000000" points="589.5,665.9551,591.5,669.9551,593.5,665.9551,589.5,665.9551" style="stroke: #000000; stroke-width: 1.0;"/><text fill="#000000" font-family="sans-serif" font-size="11" lengthAdjust="spacingAndGlyphs" textLength="18" x="568.431" y="634.4366">0..*</text><text fill="#000000" font-family="sans-serif" font-size="11" lengthAdjust="spacingAndGlyphs" textLength="18" x="566.3173" y="679.5797">1..*</text><!--MD5=[7d9a2313ce146470dea6d4c236945239]
link Location to File--><path d="M515.88,769.12 C478.79,789.84 432.33,815.8 390.97,838.91 " fill="none" id="Location-&gt;File" style="stroke: #383838; stroke-width: 1.0;"/><polygon fill="#383838" points="379.45,845.34,386.6388,845.9067,389.9268,839.4888,382.738,838.9221,379.45,845.34" style="stroke: #383838; stroke-width: 1.0;"/><polygon fill="#000000" points="460,805.9775,456,807.9775,460,809.9775,460,805.9775" style="stroke: #000000; stroke-width: 1.0;"/><text fill="#000000" font-family="sans-serif" font-size="11" lengthAdjust="spacingAndGlyphs" textLength="10" x="466" y="810.6348">in</text><text fill="#000000" font-family="sans-serif" font-size="11" lengthAdjust="spacingAndGlyphs" textLength="18" x="484.4531" y="787.6779">0..*</text><text fill="#000000" font-family="sans-serif" font-size="11" lengthAdjust="spacingAndGlyphs" textLength="7" x="386.0705" y="835.0726">1</text><!--MD5=[bba504be18b0ca9902f2d4fdb48fd109]
link Location to Range--><path d="M585,769.12 C585,797.76 585,836.4 585,863.69 " fill="none" id="Location-&gt;Range" style="stroke: #383838; stroke-width: 1.0;"/><polygon fill="#383838" points="585,868.99,589,859.99,585,863.99,581,859.99,585,868.99" style="stroke: #383838; stroke-width: 1.0;"/><text fill="#000000" font-family="sans-serif" font-size="11" lengthAdjust="spacingAndGlyphs" textLength="10" x="586" y="810.6348">at</text><polygon fill="#000000" points="587.5,818.9551,589.5,822.9551,591.5,818.9551,587.5,818.9551" style="stroke: #000000; stroke-width: 1.0;"/><!--MD5=[fea857486dbdc6b824b8831af24c592c]
link Range to Position--><path d="M566.29,927.22 C557,942.93 546.76,963.25 542,983 C534.96,1012.22 547.88,1044.28 561.21,1067.52 " fill="none" id="Range-&gt;Position" style="stroke: #383838; stroke-width: 1.0;"/><polygon fill="#383838" points="563.87,1072.05,562.7319,1062.2671,561.3249,1067.7462,555.8458,1066.3393,563.87,1072.05" style="stroke: #383838; stroke-width: 1.0;"/><text fill="#000000" font-family="sans-serif" font-size="11" lengthAdjust="spacingAndGlyphs" textLength="26" x="543" y="994.6348">from</text><polygon fill="#000000" points="552.5,1002.9551,554.5,1006.9551,556.5,1002.9551,552.5,1002.9551" style="stroke: #000000; stroke-width: 1.0;"/><!--MD5=[fea857486dbdc6b824b8831af24c592c]
link Range to Position--><path d="M585.07,927.3 C585.1,946.88 585.11,973.52 585,997 C584.89,1020.52 584.63,1047.05 584.4,1067.36 " fill="none" id="Range-&gt;Position-1" style="stroke: #383838; stroke-width: 1.0;"/><polygon fill="#383838" points="584.34,1072.39,588.4426,1063.4363,584.3971,1067.3903,580.4431,1063.3449,584.34,1072.39" style="stroke: #383838; stroke-width: 1.0;"/><text fill="#000000" font-family="sans-serif" font-size="11" lengthAdjust="spacingAndGlyphs" textLength="11" x="587" y="994.6348">to</text><polygon fill="#000000" points="589,1002.9551,591,1006.9551,593,1002.9551,589,1002.9551" style="stroke: #000000; stroke-width: 1.0;"/><!--MD5=[7613b5bb39efec6b4ed009dc07b12e35]
reverse link CodeSmellLifespan to CodeSmell--><path d="M658.34,436.95 C655.56,447.57 652.15,458.22 648,468 C643.76,477.99 638.34,488.05 632.51,497.61 " fill="none" id="CodeSmellLifespan&lt;-CodeSmell" style="stroke: #383838; stroke-width: 1.0;"/><polygon fill="#383838" points="661.43,424.09,656.1371,428.9874,658.622,435.7569,663.915,430.8594,661.43,424.09" style="stroke: #383838; stroke-width: 1.0;"/><text fill="#000000" font-family="sans-serif" font-size="11" lengthAdjust="spacingAndGlyphs" textLength="7" x="653.0344" y="442.3139">1</text><text fill="#000000" font-family="sans-serif" font-size="11" lengthAdjust="spacingAndGlyphs" textLength="18" x="619.1473" y="487.5313">1..*</text><!--MD5=[9371a73726d20c19e4b0ce090614fb4b]
reverse link File to CodeSmell--><path d="M313.58,833.44 C333.84,789.9 364.74,732.57 403,690 C430.66,659.23 466.73,631.58 499.74,609.64 " fill="none" id="File&lt;-CodeSmell" style="stroke: #383838; stroke-width: 1.0;"/><polygon fill="#383838" points="308.15,845.33,314.2805,841.533,313.1335,834.4137,307.003,838.2107,308.15,845.33" style="stroke: #383838; stroke-width: 1.0;"/><polygon fill="#000000" points="423.5,731.5,425.5,727.5,427.5,731.5,423.5,731.5" style="stroke: #000000; stroke-width: 1.0;"/><text fill="#000000" font-family="sans-serif" font-size="11" lengthAdjust="spacingAndGlyphs" textLength="46" x="404" y="745.1348">contains</text><text fill="#000000" font-family="sans-serif" font-size="11" lengthAdjust="spacingAndGlyphs" textLength="18" x="312.7667" y="835.0611">1..*</text><text fill="#000000" font-family="sans-serif" font-size="11" lengthAdjust="spacingAndGlyphs" textLength="18" x="473.9099" y="612.0349">0..*</text><!--MD5=[299d3f69215aef695c971cdc18b67a32]
link File to LineCounts--><path d="M287,950.63 C287,972.29 287,997.97 287,1021.89 " fill="none" id="File-&gt;LineCounts" style="stroke: #383838; stroke-width: 1.0;"/><polygon fill="#383838" points="287,1026.97,291,1017.97,287,1021.97,283,1017.97,287,1026.97" style="stroke: #383838; stroke-width: 1.0;"/><text fill="#000000" font-family="sans-serif" font-size="11" lengthAdjust="spacingAndGlyphs" textLength="19" x="288" y="994.6348">has</text><polygon fill="#000000" points="294,1002.9551,296,1006.9551,298,1002.9551,294,1002.9551" style="stroke: #000000; stroke-width: 1.0;"/><!--MD5=[b2ec3f153a6a6f53f8f1235de10a2274]
@startuml graphql
hide circle
hide empty members
skinparam ArrowFontSize 11
skinparam monochrome true
skinparam style strictuml
skinparam shadowing false
skinparam backgroundColor transparent
skinparam classBackgroundColor transparent

class Query {
  {method} +repository(name: String!): Repository
  {method} +repositories: Connection<Repository>!
  {method} +codeSmell(id: ID!): CodeSmell
  {method} +codeSmellLifespan(id: ID!): CodeSmellLifespan
}
Query *- - Repository
Query *- - CodeSmell
Query *- - CodeSmellLifespan

class Repository {
  +name: String!
  {method} +commit(oid: String!): Commit
  {method} +commits: Connection<Commit>!
  {method} +codeSmellLifespans: Connection<CodeSmellLifespan>!
}
Repository "1" *- - "0..*" Commit
Repository "1" *- - "0..*" CodeSmellLifespan

class Commit {
  +oid: String!
  +committer: Signature!
  +author: Signature!
  {method} +combinedFileDifferencees: Connection<CombinedFileDifference>!
  {method} +codeSmells: Connection<CodeSmell>!
  {method} +files: Connection<File>!
}
Commit - -> Signature : committed by >
Commit - -> Signature : authored by >
Commit "1" *- - "0..*" CodeSmell : exists in <
Commit "1" *- - "0..*" File : exists in <
Commit "1" *- - "0..*" CombinedFileDifference

class CombinedFileDifference {
  +changeKinds: [FileChangeKind!]!
  +headFile: File
  +baseFiles: [File]!
}
CombinedFileDifference "0..*" o- - "0..1" File : of >
CombinedFileDifference "0..*" o- - "0..*" File : compared to >
CombinedFileDifference - -> FileChangeKind : of >

enum FileChangeKind {
  ADDED
  COPIED
  DELETED
  MODIFIED
  RENAMED
  TYPE_CHANGED
}

class Signature {
  +name: String!
  +email: String!
  +date: String!
}

class CodeSmell {
  +id: ID!
  +message: String!
  +commit: Commit!
  +locations: [Location!]!
  +ordinal: Int!
  {method} +lifespan: CodeSmellLifespan!
}
CodeSmell "0..*" o- - "1..*" Location : at >

class Location {
  +file: File!
  +range: Range!
  +contents(encoding: String): String!
}
Location "0..*" - -* "1" File : in >
Location - -> Range : at >
class Range {
  +start: Position!
  +end: Position!
}
Range - -> Position : from >
Range - -> Position : to >
class Position {
  +line: Int!
  +character: Int!
}

class CodeSmellLifespan {
  +id: ID!
  +kind: String!
  +repository: Repository!
  +duration: String!
  +interval: String!
  {method} +instances: Connection<CodeSmell>!
}
CodeSmellLifespan "1" *- - "1..*" CodeSmell

class LineCounts {
  +total: Int!
  +source: Int
  +comment: Int
  +single: Int
  +block: Int
  +mixed: Int
  +blockEmpty: Int
  +empty: Int
  +todo: Int
}

class File {
  +path: String!
  +linesCount: Int!
  +content(encoding: String): String!
  +lineCounts(encoding: String): LineCounts!
  {method} +codeSmells: Connection<CodeSmell>!
}
File "1..*" *- - "0..*" CodeSmell : contains >
File - -> LineCounts : has >

@enduml

PlantUML version 1.2019.13(Tue Dec 10 18:18:29 CET 2019)
(GPL source distribution)
Java Runtime: Java(TM) SE Runtime Environment
JVM: Java HotSpot(TM) 64-Bit Server VM
Java Version: 13.0.1+9
Operating System: Mac OS X
Default Encoding: ISO8859-1
Language: en
Country: US
--></g></svg>