<?xml version="1.0" encoding="UTF-8" standalone="no"?><svg xmlns="http://www.w3.org/2000/svg" xmlns:xlink="http://www.w3.org/1999/xlink" contentScriptType="application/ecmascript" contentStyleType="text/css" height="1223px" preserveAspectRatio="none" style="width:954px;height:1223px;" version="1.1" viewBox="0 0 954 1223" width="954px" zoomAndPan="magnify"><defs><filter height="300%" id="f17mz4exulru2l" width="300%" x="-1" y="-1"><feGaussianBlur result="blurOut" stdDeviation="2.0"/><feColorMatrix in="blurOut" result="blurOut2" type="matrix" values="0 0 0 0 0 0 0 0 0 0 0 0 0 0 0 0 0 0 .4 0"/><feOffset dx="4.0" dy="4.0" in="blurOut2" result="blurOut3"/><feBlend in="SourceGraphic" in2="blurOut3" mode="normal"/></filter></defs><g><!--MD5=[6eafbb38dcfd991ac99fbc2abc212727]
cluster Relay--><polygon fill="#FFFFFF" filter="url(#f17mz4exulru2l)" points="594,24,639,24,646,46.4883,932,46.4883,932,275.5,594,275.5,594,24" style="stroke: #000000; stroke-width: 1.5;"/><line style="stroke: #000000; stroke-width: 1.5;" x1="594" x2="646" y1="46.4883" y2="46.4883"/><text fill="#000000" font-family="sans-serif" font-size="14" font-weight="bold" lengthAdjust="spacingAndGlyphs" textLength="39" x="598" y="39.5352">Relay</text><!--MD5=[1cd78e98e7a9839702c223eab4979b1f]
class Relay.Connection--><rect fill="#FEFECE" filter="url(#f17mz4exulru2l)" height="58.043" id="Relay.Connection" style="stroke: #A80036; stroke-width: 1.5;" width="157" x="681.5" y="59"/><text fill="#000000" font-family="sans-serif" font-size="12" font-style="italic" lengthAdjust="spacingAndGlyphs" textLength="63" x="707" y="75.6016">Connection</text><rect fill="#FFFFFF" height="16.1328" style="stroke: #000000; stroke-width: 1.0; stroke-dasharray: 2.0,2.0;" width="41" x="800.5" y="56"/><text fill="#000000" font-family="sans-serif" font-size="12" font-style="italic" lengthAdjust="spacingAndGlyphs" textLength="39" x="801.5" y="68.6016">TNode</text><line style="stroke: #A80036; stroke-width: 1.5;" x1="682.5" x2="837.5" y1="83.1328" y2="83.1328"/><ellipse cx="692.5" cy="94.1328" fill="none" rx="3" ry="3" style="stroke: #038048; stroke-width: 1.0;"/><text fill="#000000" font-family="sans-serif" font-size="11" lengthAdjust="spacingAndGlyphs" textLength="102" x="701.5" y="97.7676">pageInfo: PageInfo!</text><ellipse cx="692.5" cy="107.0879" fill="none" rx="3" ry="3" style="stroke: #038048; stroke-width: 1.0;"/><text fill="#000000" font-family="sans-serif" font-size="11" lengthAdjust="spacingAndGlyphs" textLength="131" x="701.5" y="110.7227">edges: [Edge&lt;TNode&gt;!]!</text><!--MD5=[09264cef9c0e64048c6e1196cdd5527b]
class Relay.Edge--><rect fill="#FEFECE" filter="url(#f17mz4exulru2l)" height="58.043" id="Relay.Edge" style="stroke: #A80036; stroke-width: 1.5;" width="103" x="610.5" y="195"/><text fill="#000000" font-family="sans-serif" font-size="12" font-style="italic" lengthAdjust="spacingAndGlyphs" textLength="29" x="626" y="211.6016">Edge</text><rect fill="#FFFFFF" height="16.1328" style="stroke: #000000; stroke-width: 1.0; stroke-dasharray: 2.0,2.0;" width="41" x="675.5" y="192"/><text fill="#000000" font-family="sans-serif" font-size="12" font-style="italic" lengthAdjust="spacingAndGlyphs" textLength="39" x="676.5" y="204.6016">TNode</text><line style="stroke: #A80036; stroke-width: 1.5;" x1="611.5" x2="712.5" y1="219.1328" y2="219.1328"/><ellipse cx="621.5" cy="230.1328" fill="none" rx="3" ry="3" style="stroke: #038048; stroke-width: 1.0;"/><text fill="#000000" font-family="sans-serif" font-size="11" lengthAdjust="spacingAndGlyphs" textLength="71" x="630.5" y="233.7676">node: TNode!</text><ellipse cx="621.5" cy="243.0879" fill="none" rx="3" ry="3" style="stroke: #038048; stroke-width: 1.0;"/><text fill="#000000" font-family="sans-serif" font-size="11" lengthAdjust="spacingAndGlyphs" textLength="77" x="630.5" y="246.7227">cursor: String!</text><!--MD5=[ca08750fa789013f748736181f871b53]
class Relay.PageInfo--><rect fill="#FEFECE" filter="url(#f17mz4exulru2l)" height="70.998" id="Relay.PageInfo" style="stroke: #A80036; stroke-width: 1.5;" width="167" x="748.5" y="188.5"/><text fill="#000000" font-family="sans-serif" font-size="12" lengthAdjust="spacingAndGlyphs" textLength="49" x="807.5" y="205.1016">PageInfo</text><line style="stroke: #A80036; stroke-width: 1.5;" x1="749.5" x2="914.5" y1="212.6328" y2="212.6328"/><ellipse cx="759.5" cy="223.6328" fill="none" rx="3" ry="3" style="stroke: #038048; stroke-width: 1.0;"/><text fill="#000000" font-family="sans-serif" font-size="11" lengthAdjust="spacingAndGlyphs" textLength="99" x="768.5" y="227.2676">endCursor: String!</text><ellipse cx="759.5" cy="236.5879" fill="none" rx="3" ry="3" style="stroke: #038048; stroke-width: 1.0;"/><text fill="#000000" font-family="sans-serif" font-size="11" lengthAdjust="spacingAndGlyphs" textLength="120" x="768.5" y="240.2227">hasNextPage: Boolean!</text><ellipse cx="759.5" cy="249.543" fill="none" rx="3" ry="3" style="stroke: #038048; stroke-width: 1.0;"/><text fill="#000000" font-family="sans-serif" font-size="11" lengthAdjust="spacingAndGlyphs" textLength="141" x="768.5" y="253.1777">hasPreviousPage: Boolean!</text><!--MD5=[91221848cc6fc2b51471cfb300e81a0a]
class Query--><rect fill="#FEFECE" filter="url(#f17mz4exulru2l)" height="58.043" id="Query" style="stroke: #A80036; stroke-width: 1.5;" width="238" x="296" y="59"/><text fill="#000000" font-family="sans-serif" font-size="12" lengthAdjust="spacingAndGlyphs" textLength="34" x="398" y="75.6016">Query</text><line style="stroke: #A80036; stroke-width: 1.5;" x1="297" x2="533" y1="83.1328" y2="83.1328"/><ellipse cx="307" cy="94.1328" fill="#84BE84" rx="3" ry="3" style="stroke: #038048; stroke-width: 1.0;"/><text fill="#000000" font-family="sans-serif" font-size="11" lengthAdjust="spacingAndGlyphs" textLength="198" x="316" y="97.7676">repository(name: String!): Repository</text><ellipse cx="307" cy="107.0879" fill="#84BE84" rx="3" ry="3" style="stroke: #038048; stroke-width: 1.0;"/><text fill="#000000" font-family="sans-serif" font-size="11" lengthAdjust="spacingAndGlyphs" textLength="212" x="316" y="110.7227">repositories: Connection&lt;Repository&gt;!</text><!--MD5=[c05f8d4c5007184b0fb1ea93cdb8d9fe]
class Repository--><rect fill="#FEFECE" filter="url(#f17mz4exulru2l)" height="91.9531" id="Repository" style="stroke: #A80036; stroke-width: 1.5;" width="321" x="254.5" y="178"/><text fill="#000000" font-family="sans-serif" font-size="12" lengthAdjust="spacingAndGlyphs" textLength="61" x="384.5" y="194.6016">Repository</text><line style="stroke: #A80036; stroke-width: 1.5;" x1="255.5" x2="574.5" y1="202.1328" y2="202.1328"/><ellipse cx="265.5" cy="213.1328" fill="none" rx="3" ry="3" style="stroke: #038048; stroke-width: 1.0;"/><text fill="#000000" font-family="sans-serif" font-size="11" lengthAdjust="spacingAndGlyphs" textLength="70" x="274.5" y="216.7676">name: String!</text><line style="stroke: #A80036; stroke-width: 1.5;" x1="255.5" x2="574.5" y1="223.0879" y2="223.0879"/><ellipse cx="265.5" cy="234.0879" fill="#84BE84" rx="3" ry="3" style="stroke: #038048; stroke-width: 1.0;"/><text fill="#000000" font-family="sans-serif" font-size="11" lengthAdjust="spacingAndGlyphs" textLength="154" x="274.5" y="237.7227">commit(oid: String!): Commit</text><ellipse cx="265.5" cy="247.043" fill="#84BE84" rx="3" ry="3" style="stroke: #038048; stroke-width: 1.0;"/><text fill="#000000" font-family="sans-serif" font-size="11" lengthAdjust="spacingAndGlyphs" textLength="177" x="274.5" y="250.6777">commits: Connection&lt;Commit&gt;!</text><ellipse cx="265.5" cy="259.998" fill="#84BE84" rx="3" ry="3" style="stroke: #038048; stroke-width: 1.0;"/><text fill="#000000" font-family="sans-serif" font-size="11" lengthAdjust="spacingAndGlyphs" textLength="295" x="274.5" y="263.6328">codeSmellLifespans: Connection&lt;CodeSmellLifespan&gt;!</text><!--MD5=[4da33e036383ae2c9d7a81b1e09b72e8]
class Commit--><rect fill="#FEFECE" filter="url(#f17mz4exulru2l)" height="117.8633" id="Commit" style="stroke: #A80036; stroke-width: 1.5;" width="381" x="56.5" y="331"/><text fill="#000000" font-family="sans-serif" font-size="12" lengthAdjust="spacingAndGlyphs" textLength="44" x="225" y="347.6016">Commit</text><line style="stroke: #A80036; stroke-width: 1.5;" x1="57.5" x2="436.5" y1="355.1328" y2="355.1328"/><ellipse cx="67.5" cy="366.1328" fill="none" rx="3" ry="3" style="stroke: #038048; stroke-width: 1.0;"/><text fill="#000000" font-family="sans-serif" font-size="11" lengthAdjust="spacingAndGlyphs" textLength="58" x="76.5" y="369.7676">oid: String!</text><ellipse cx="67.5" cy="379.0879" fill="none" rx="3" ry="3" style="stroke: #038048; stroke-width: 1.0;"/><text fill="#000000" font-family="sans-serif" font-size="11" lengthAdjust="spacingAndGlyphs" textLength="115" x="76.5" y="382.7227">committer: Signature!</text><ellipse cx="67.5" cy="392.043" fill="none" rx="3" ry="3" style="stroke: #038048; stroke-width: 1.0;"/><text fill="#000000" font-family="sans-serif" font-size="11" lengthAdjust="spacingAndGlyphs" textLength="96" x="76.5" y="395.6777">author: Signature!</text><line style="stroke: #A80036; stroke-width: 1.5;" x1="57.5" x2="436.5" y1="401.998" y2="401.998"/><ellipse cx="67.5" cy="412.998" fill="#84BE84" rx="3" ry="3" style="stroke: #038048; stroke-width: 1.0;"/><text fill="#000000" font-family="sans-serif" font-size="11" lengthAdjust="spacingAndGlyphs" textLength="355" x="76.5" y="416.6328">combinedFileDifferencees: Connection&lt;CombinedFileDifference&gt;!</text><ellipse cx="67.5" cy="425.9531" fill="#84BE84" rx="3" ry="3" style="stroke: #038048; stroke-width: 1.0;"/><text fill="#000000" font-family="sans-serif" font-size="11" lengthAdjust="spacingAndGlyphs" textLength="205" x="76.5" y="429.5879">codeSmells: Connection&lt;CodeSmell&gt;!</text><ellipse cx="67.5" cy="438.9082" fill="#84BE84" rx="3" ry="3" style="stroke: #038048; stroke-width: 1.0;"/><text fill="#000000" font-family="sans-serif" font-size="11" lengthAdjust="spacingAndGlyphs" textLength="129" x="76.5" y="442.543">files: Connection&lt;File&gt;!</text><!--MD5=[14d32a97c52c5f9b113614086055026b]
class CodeSmellLifespan--><rect fill="#FEFECE" filter="url(#f17mz4exulru2l)" height="117.8633" id="CodeSmellLifespan" style="stroke: #A80036; stroke-width: 1.5;" width="222" x="473" y="331"/><text fill="#000000" font-family="sans-serif" font-size="12" lengthAdjust="spacingAndGlyphs" textLength="108" x="530" y="347.6016">CodeSmellLifespan</text><line style="stroke: #A80036; stroke-width: 1.5;" x1="474" x2="694" y1="355.1328" y2="355.1328"/><ellipse cx="484" cy="366.1328" fill="none" rx="3" ry="3" style="stroke: #038048; stroke-width: 1.0;"/><text fill="#000000" font-family="sans-serif" font-size="11" lengthAdjust="spacingAndGlyphs" textLength="30" x="493" y="369.7676">id: ID!</text><ellipse cx="484" cy="379.0879" fill="none" rx="3" ry="3" style="stroke: #038048; stroke-width: 1.0;"/><text fill="#000000" font-family="sans-serif" font-size="11" lengthAdjust="spacingAndGlyphs" textLength="64" x="493" y="382.7227">kind: String!</text><ellipse cx="484" cy="392.043" fill="none" rx="3" ry="3" style="stroke: #038048; stroke-width: 1.0;"/><text fill="#000000" font-family="sans-serif" font-size="11" lengthAdjust="spacingAndGlyphs" textLength="123" x="493" y="395.6777">repository: Repository!</text><ellipse cx="484" cy="404.998" fill="none" rx="3" ry="3" style="stroke: #038048; stroke-width: 1.0;"/><text fill="#000000" font-family="sans-serif" font-size="11" lengthAdjust="spacingAndGlyphs" textLength="87" x="493" y="408.6328">duration: String!</text><ellipse cx="484" cy="417.9531" fill="none" rx="3" ry="3" style="stroke: #038048; stroke-width: 1.0;"/><text fill="#000000" font-family="sans-serif" font-size="11" lengthAdjust="spacingAndGlyphs" textLength="81" x="493" y="421.5879">interval: String!</text><line style="stroke: #A80036; stroke-width: 1.5;" x1="474" x2="694" y1="427.9082" y2="427.9082"/><ellipse cx="484" cy="438.9082" fill="#84BE84" rx="3" ry="3" style="stroke: #038048; stroke-width: 1.0;"/><text fill="#000000" font-family="sans-serif" font-size="11" lengthAdjust="spacingAndGlyphs" textLength="196" x="493" y="442.543">instances: Connection&lt;CodeSmell&gt;!</text><!--MD5=[79b2c35a8607833edf9d17d918b0cb90]
class Signature--><rect fill="#FEFECE" filter="url(#f17mz4exulru2l)" height="70.998" id="Signature" style="stroke: #A80036; stroke-width: 1.5;" width="96" x="13" y="549.5"/><text fill="#000000" font-family="sans-serif" font-size="12" lengthAdjust="spacingAndGlyphs" textLength="53" x="34.5" y="566.1016">Signature</text><line style="stroke: #A80036; stroke-width: 1.5;" x1="14" x2="108" y1="573.6328" y2="573.6328"/><ellipse cx="24" cy="584.6328" fill="none" rx="3" ry="3" style="stroke: #038048; stroke-width: 1.0;"/><text fill="#000000" font-family="sans-serif" font-size="11" lengthAdjust="spacingAndGlyphs" textLength="70" x="33" y="588.2676">name: String!</text><ellipse cx="24" cy="597.5879" fill="none" rx="3" ry="3" style="stroke: #038048; stroke-width: 1.0;"/><text fill="#000000" font-family="sans-serif" font-size="11" lengthAdjust="spacingAndGlyphs" textLength="69" x="33" y="601.2227">email: String!</text><ellipse cx="24" cy="610.543" fill="none" rx="3" ry="3" style="stroke: #038048; stroke-width: 1.0;"/><text fill="#000000" font-family="sans-serif" font-size="11" lengthAdjust="spacingAndGlyphs" textLength="64" x="33" y="614.1777">date: String!</text><!--MD5=[90af14acebbc533b6fea97f131b1446c]
class CodeSmell--><rect fill="#FEFECE" filter="url(#f17mz4exulru2l)" height="117.8633" id="CodeSmell" style="stroke: #A80036; stroke-width: 1.5;" width="178" x="467" y="526"/><text fill="#000000" font-family="sans-serif" font-size="12" lengthAdjust="spacingAndGlyphs" textLength="60" x="526" y="542.6016">CodeSmell</text><line style="stroke: #A80036; stroke-width: 1.5;" x1="468" x2="644" y1="550.1328" y2="550.1328"/><ellipse cx="478" cy="561.1328" fill="none" rx="3" ry="3" style="stroke: #038048; stroke-width: 1.0;"/><text fill="#000000" font-family="sans-serif" font-size="11" lengthAdjust="spacingAndGlyphs" textLength="30" x="487" y="564.7676">id: ID!</text><ellipse cx="478" cy="574.0879" fill="none" rx="3" ry="3" style="stroke: #038048; stroke-width: 1.0;"/><text fill="#000000" font-family="sans-serif" font-size="11" lengthAdjust="spacingAndGlyphs" textLength="88" x="487" y="577.7227">message: String!</text><ellipse cx="478" cy="587.043" fill="none" rx="3" ry="3" style="stroke: #038048; stroke-width: 1.0;"/><text fill="#000000" font-family="sans-serif" font-size="11" lengthAdjust="spacingAndGlyphs" textLength="91" x="487" y="590.6777">commit: Commit!</text><ellipse cx="478" cy="599.998" fill="none" rx="3" ry="3" style="stroke: #038048; stroke-width: 1.0;"/><text fill="#000000" font-family="sans-serif" font-size="11" lengthAdjust="spacingAndGlyphs" textLength="115" x="487" y="603.6328">locations: [Location!]!</text><ellipse cx="478" cy="612.9531" fill="none" rx="3" ry="3" style="stroke: #038048; stroke-width: 1.0;"/><text fill="#000000" font-family="sans-serif" font-size="11" lengthAdjust="spacingAndGlyphs" textLength="61" x="487" y="616.5879">ordinal: Int!</text><line style="stroke: #A80036; stroke-width: 1.5;" x1="468" x2="644" y1="622.9082" y2="622.9082"/><ellipse cx="478" cy="633.9082" fill="#84BE84" rx="3" ry="3" style="stroke: #038048; stroke-width: 1.0;"/><text fill="#000000" font-family="sans-serif" font-size="11" lengthAdjust="spacingAndGlyphs" textLength="152" x="487" y="637.543">lifespan: CodeSmellLifespan!</text><!--MD5=[63dd87716ef75a5caca5dce59428e94a]
class File--><rect fill="#FEFECE" filter="url(#f17mz4exulru2l)" height="104.9082" id="File" style="stroke: #A80036; stroke-width: 1.5;" width="250" x="243" y="879.5"/><text fill="#000000" font-family="sans-serif" font-size="12" lengthAdjust="spacingAndGlyphs" textLength="19" x="358.5" y="896.1016">File</text><line style="stroke: #A80036; stroke-width: 1.5;" x1="244" x2="492" y1="903.6328" y2="903.6328"/><ellipse cx="254" cy="914.6328" fill="none" rx="3" ry="3" style="stroke: #038048; stroke-width: 1.0;"/><text fill="#000000" font-family="sans-serif" font-size="11" lengthAdjust="spacingAndGlyphs" textLength="65" x="263" y="918.2676">path: String!</text><ellipse cx="254" cy="927.5879" fill="none" rx="3" ry="3" style="stroke: #038048; stroke-width: 1.0;"/><text fill="#000000" font-family="sans-serif" font-size="11" lengthAdjust="spacingAndGlyphs" textLength="81" x="263" y="931.2227">linesCount: Int!</text><line style="stroke: #A80036; stroke-width: 1.5;" x1="244" x2="492" y1="937.543" y2="937.543"/><ellipse cx="254" cy="948.543" fill="#84BE84" rx="3" ry="3" style="stroke: #038048; stroke-width: 1.0;"/><text fill="#000000" font-family="sans-serif" font-size="11" lengthAdjust="spacingAndGlyphs" textLength="178" x="263" y="952.1777">content(encoding: String): String!</text><ellipse cx="254" cy="961.498" fill="#84BE84" rx="3" ry="3" style="stroke: #038048; stroke-width: 1.0;"/><text fill="#000000" font-family="sans-serif" font-size="11" lengthAdjust="spacingAndGlyphs" textLength="224" x="263" y="965.1328">lineCounts(encoding: String): LineCounts!</text><ellipse cx="254" cy="974.4531" fill="#84BE84" rx="3" ry="3" style="stroke: #038048; stroke-width: 1.0;"/><text fill="#000000" font-family="sans-serif" font-size="11" lengthAdjust="spacingAndGlyphs" textLength="205" x="263" y="978.0879">codeSmells: Connection&lt;CodeSmell&gt;!</text><!--MD5=[7e4e669716e39576ae3e26afe40346de]
class CombinedFileDifference--><rect fill="#FEFECE" filter="url(#f17mz4exulru2l)" height="70.998" id="CombinedFileDifference" style="stroke: #A80036; stroke-width: 1.5;" width="198" x="112" y="725"/><text fill="#000000" font-family="sans-serif" font-size="12" lengthAdjust="spacingAndGlyphs" textLength="137" x="142.5" y="741.6016">CombinedFileDifference</text><line style="stroke: #A80036; stroke-width: 1.5;" x1="113" x2="309" y1="749.1328" y2="749.1328"/><ellipse cx="123" cy="760.1328" fill="none" rx="3" ry="3" style="stroke: #038048; stroke-width: 1.0;"/><text fill="#000000" font-family="sans-serif" font-size="11" lengthAdjust="spacingAndGlyphs" textLength="172" x="132" y="763.7676">changeKinds: [FileChangeKind!]!</text><ellipse cx="123" cy="773.0879" fill="none" rx="3" ry="3" style="stroke: #038048; stroke-width: 1.0;"/><text fill="#000000" font-family="sans-serif" font-size="11" lengthAdjust="spacingAndGlyphs" textLength="68" x="132" y="776.7227">headFile: File</text><ellipse cx="123" cy="786.043" fill="none" rx="3" ry="3" style="stroke: #038048; stroke-width: 1.0;"/><text fill="#000000" font-family="sans-serif" font-size="11" lengthAdjust="spacingAndGlyphs" textLength="84" x="132" y="789.6777">baseFiles: [File]!</text><!--MD5=[a95c5253a345b2cae7dff15792fcfa1d]
class FileChangeKind--><rect fill="#FEFECE" filter="url(#f17mz4exulru2l)" height="109.8633" id="FileChangeKind" style="stroke: #A80036; stroke-width: 1.5;" width="98" x="77" y="877"/><text fill="#000000" font-family="sans-serif" font-size="12" lengthAdjust="spacingAndGlyphs" textLength="88" x="82" y="893.6016">FileChangeKind</text><line style="stroke: #A80036; stroke-width: 1.5;" x1="78" x2="174" y1="901.1328" y2="901.1328"/><text fill="#000000" font-family="sans-serif" font-size="11" lengthAdjust="spacingAndGlyphs" textLength="38" x="83" y="915.7676">ADDED</text><text fill="#000000" font-family="sans-serif" font-size="11" lengthAdjust="spacingAndGlyphs" textLength="40" x="83" y="928.7227">COPIED</text><text fill="#000000" font-family="sans-serif" font-size="11" lengthAdjust="spacingAndGlyphs" textLength="47" x="83" y="941.6777">DELETED</text><text fill="#000000" font-family="sans-serif" font-size="11" lengthAdjust="spacingAndGlyphs" textLength="52" x="83" y="954.6328">MODIFIED</text><text fill="#000000" font-family="sans-serif" font-size="11" lengthAdjust="spacingAndGlyphs" textLength="52" x="83" y="967.5879">RENAMED</text><text fill="#000000" font-family="sans-serif" font-size="11" lengthAdjust="spacingAndGlyphs" textLength="86" x="83" y="980.543">TYPE_CHANGED</text><!--MD5=[4f1f3706c1a355a8488e154afcaed5df]
class Location--><rect fill="#FEFECE" filter="url(#f17mz4exulru2l)" height="78.998" id="Location" style="stroke: #A80036; stroke-width: 1.5;" width="210" x="432" y="721"/><text fill="#000000" font-family="sans-serif" font-size="12" lengthAdjust="spacingAndGlyphs" textLength="47" x="513.5" y="737.6016">Location</text><line style="stroke: #A80036; stroke-width: 1.5;" x1="433" x2="641" y1="745.1328" y2="745.1328"/><ellipse cx="443" cy="756.1328" fill="none" rx="3" ry="3" style="stroke: #038048; stroke-width: 1.0;"/><text fill="#000000" font-family="sans-serif" font-size="11" lengthAdjust="spacingAndGlyphs" textLength="43" x="452" y="759.7676">file: File!</text><ellipse cx="443" cy="769.0879" fill="none" rx="3" ry="3" style="stroke: #038048; stroke-width: 1.0;"/><text fill="#000000" font-family="sans-serif" font-size="11" lengthAdjust="spacingAndGlyphs" textLength="73" x="452" y="772.7227">range: Range!</text><line style="stroke: #A80036; stroke-width: 1.5;" x1="433" x2="641" y1="779.043" y2="779.043"/><ellipse cx="443" cy="790.043" fill="#84BE84" rx="3" ry="3" style="stroke: #038048; stroke-width: 1.0;"/><text fill="#000000" font-family="sans-serif" font-size="11" lengthAdjust="spacingAndGlyphs" textLength="184" x="452" y="793.6777">contents(encoding: String): String!</text><!--MD5=[2f49539d777d8d7526d361413cf07525]
class Range--><rect fill="#FEFECE" filter="url(#f17mz4exulru2l)" height="58.043" id="Range" style="stroke: #A80036; stroke-width: 1.5;" width="103" x="528.5" y="903"/><text fill="#000000" font-family="sans-serif" font-size="12" lengthAdjust="spacingAndGlyphs" textLength="36" x="562" y="919.6016">Range</text><line style="stroke: #A80036; stroke-width: 1.5;" x1="529.5" x2="630.5" y1="927.1328" y2="927.1328"/><ellipse cx="539.5" cy="938.1328" fill="none" rx="3" ry="3" style="stroke: #038048; stroke-width: 1.0;"/><text fill="#000000" font-family="sans-serif" font-size="11" lengthAdjust="spacingAndGlyphs" textLength="77" x="548.5" y="941.7676">start: Position!</text><ellipse cx="539.5" cy="951.0879" fill="none" rx="3" ry="3" style="stroke: #038048; stroke-width: 1.0;"/><text fill="#000000" font-family="sans-serif" font-size="11" lengthAdjust="spacingAndGlyphs" textLength="72" x="548.5" y="954.7227">end: Position!</text><!--MD5=[a64a835c3d62471a77f615251fdde58a]
class Position--><rect fill="#FEFECE" filter="url(#f17mz4exulru2l)" height="58.043" id="Position" style="stroke: #A80036; stroke-width: 1.5;" width="100" x="493" y="1109.5"/><text fill="#000000" font-family="sans-serif" font-size="12" lengthAdjust="spacingAndGlyphs" textLength="44" x="521" y="1126.1016">Position</text><line style="stroke: #A80036; stroke-width: 1.5;" x1="494" x2="592" y1="1133.6328" y2="1133.6328"/><ellipse cx="504" cy="1144.6328" fill="none" rx="3" ry="3" style="stroke: #038048; stroke-width: 1.0;"/><text fill="#000000" font-family="sans-serif" font-size="11" lengthAdjust="spacingAndGlyphs" textLength="42" x="513" y="1148.2676">line: Int!</text><ellipse cx="504" cy="1157.5879" fill="none" rx="3" ry="3" style="stroke: #038048; stroke-width: 1.0;"/><text fill="#000000" font-family="sans-serif" font-size="11" lengthAdjust="spacingAndGlyphs" textLength="74" x="513" y="1161.2227">character: Int!</text><!--MD5=[b70e8c1d8ab9b9722d751f4fd5a4efd2]
class LineCounts--><rect fill="#FEFECE" filter="url(#f17mz4exulru2l)" height="148.7285" id="LineCounts" style="stroke: #A80036; stroke-width: 1.5;" width="108" x="314" y="1064"/><text fill="#000000" font-family="sans-serif" font-size="12" lengthAdjust="spacingAndGlyphs" textLength="62" x="337" y="1080.6016">LineCounts</text><line style="stroke: #A80036; stroke-width: 1.5;" x1="315" x2="421" y1="1088.1328" y2="1088.1328"/><ellipse cx="325" cy="1099.1328" fill="none" rx="3" ry="3" style="stroke: #038048; stroke-width: 1.0;"/><text fill="#000000" font-family="sans-serif" font-size="11" lengthAdjust="spacingAndGlyphs" textLength="47" x="334" y="1102.7676">total: Int!</text><ellipse cx="325" cy="1112.0879" fill="none" rx="3" ry="3" style="stroke: #038048; stroke-width: 1.0;"/><text fill="#000000" font-family="sans-serif" font-size="11" lengthAdjust="spacingAndGlyphs" textLength="57" x="334" y="1115.7227">source: Int</text><ellipse cx="325" cy="1125.043" fill="none" rx="3" ry="3" style="stroke: #038048; stroke-width: 1.0;"/><text fill="#000000" font-family="sans-serif" font-size="11" lengthAdjust="spacingAndGlyphs" textLength="70" x="334" y="1128.6777">comment: Int</text><ellipse cx="325" cy="1137.998" fill="none" rx="3" ry="3" style="stroke: #038048; stroke-width: 1.0;"/><text fill="#000000" font-family="sans-serif" font-size="11" lengthAdjust="spacingAndGlyphs" textLength="52" x="334" y="1141.6328">single: Int</text><ellipse cx="325" cy="1150.9531" fill="none" rx="3" ry="3" style="stroke: #038048; stroke-width: 1.0;"/><text fill="#000000" font-family="sans-serif" font-size="11" lengthAdjust="spacingAndGlyphs" textLength="49" x="334" y="1154.5879">block: Int</text><ellipse cx="325" cy="1163.9082" fill="none" rx="3" ry="3" style="stroke: #038048; stroke-width: 1.0;"/><text fill="#000000" font-family="sans-serif" font-size="11" lengthAdjust="spacingAndGlyphs" textLength="53" x="334" y="1167.543">mixed: Int</text><ellipse cx="325" cy="1176.8633" fill="none" rx="3" ry="3" style="stroke: #038048; stroke-width: 1.0;"/><text fill="#000000" font-family="sans-serif" font-size="11" lengthAdjust="spacingAndGlyphs" textLength="82" x="334" y="1180.498">blockEmpty: Int</text><ellipse cx="325" cy="1189.8184" fill="none" rx="3" ry="3" style="stroke: #038048; stroke-width: 1.0;"/><text fill="#000000" font-family="sans-serif" font-size="11" lengthAdjust="spacingAndGlyphs" textLength="53" x="334" y="1193.4531">empty: Int</text><ellipse cx="325" cy="1202.7734" fill="none" rx="3" ry="3" style="stroke: #038048; stroke-width: 1.0;"/><text fill="#000000" font-family="sans-serif" font-size="11" lengthAdjust="spacingAndGlyphs" textLength="45" x="334" y="1206.4082">todo: Int</text><!--MD5=[d808edad4c24fcaca61f5f61bc46bfc7]
link Query to Repository--><path d="M415,117.09 C415,133.15 415,153.79 415,172.56 " fill="none" id="Query-&gt;Repository" style="stroke: #A80036; stroke-width: 1.0;"/><polygon fill="#A80036" points="415,177.81,419,168.81,415,172.81,411,168.81,415,177.81" style="stroke: #A80036; stroke-width: 1.0;"/><!--MD5=[a9b40be1fc33cd0a4e1b52667092735a]
reverse link Repository to Commit--><path d="M358.94,279.73 C342.07,296.19 323.51,314.3 306.44,330.97 " fill="none" id="Repository&lt;-Commit" style="stroke: #A80036; stroke-width: 1.0;"/><polygon fill="#A80036" points="368.64,270.25,361.5529,271.5817,360.0564,278.6358,367.1435,277.3041,368.64,270.25" style="stroke: #A80036; stroke-width: 1.0;"/><text fill="#000000" font-family="sans-serif" font-size="13" lengthAdjust="spacingAndGlyphs" textLength="8" x="353.5581" y="290.4021">1</text><text fill="#000000" font-family="sans-serif" font-size="13" lengthAdjust="spacingAndGlyphs" textLength="22" x="290.3436" y="320.4573">0..*</text><!--MD5=[61322d6ad31b56d6662db4e11a7a3eed]
reverse link Repository to CodeSmellLifespan--><path d="M471.39,279.73 C488.35,296.19 507.02,314.3 524.2,330.97 " fill="none" id="Repository&lt;-CodeSmellLifespan" style="stroke: #A80036; stroke-width: 1.0;"/><polygon fill="#A80036" points="461.62,270.25,463.1384,277.2994,470.2296,278.6091,468.7112,271.5597,461.62,270.25" style="stroke: #A80036; stroke-width: 1.0;"/><text fill="#000000" font-family="sans-serif" font-size="13" lengthAdjust="spacingAndGlyphs" textLength="8" x="459.6134" y="290.4021">1</text><text fill="#000000" font-family="sans-serif" font-size="13" lengthAdjust="spacingAndGlyphs" textLength="22" x="493.5712" y="320.4573">0..*</text><!--MD5=[d5389447baac46a53bcf1b3fe7f2197e]
link Commit to Signature--><path d="M155.56,449.05 C143.95,458.34 132.73,468.41 123,479 C105.15,498.41 89.99,523.8 79.13,544.74 " fill="none" id="Commit-&gt;Signature" style="stroke: #A80036; stroke-width: 1.0;"/><polygon fill="#A80036" points="76.74,549.42,84.3904,543.2174,79.0103,544.9651,77.2626,539.585,76.74,549.42" style="stroke: #A80036; stroke-width: 1.0;"/><text fill="#000000" font-family="sans-serif" font-size="13" lengthAdjust="spacingAndGlyphs" textLength="87" x="124" y="492.5684">committed by</text><polygon fill="#000000" points="163,501.3105,166,507.3105,169,501.3105,163,501.3105" style="stroke: #000000; stroke-width: 1.0;"/><!--MD5=[d5389447baac46a53bcf1b3fe7f2197e]
link Commit to Signature--><path d="M56.43,438.01 C39.52,448.94 24.48,462.41 13,479 C-1.12,499.39 9.63,524.61 24.5,545.21 " fill="none" id="Commit-&gt;Signature-1" style="stroke: #A80036; stroke-width: 1.0;"/><polygon fill="#A80036" points="27.52,549.27,25.3584,539.6613,24.536,545.258,18.9393,544.4357,27.52,549.27" style="stroke: #A80036; stroke-width: 1.0;"/><text fill="#000000" font-family="sans-serif" font-size="13" lengthAdjust="spacingAndGlyphs" textLength="75" x="14" y="492.5684">authored by</text><polygon fill="#000000" points="47,501.3105,50,507.3105,53,501.3105,47,501.3105" style="stroke: #000000; stroke-width: 1.0;"/><!--MD5=[be2b6f869df44cb34b7a7286dbd81aae]
reverse link Commit to CodeSmell--><path d="M366.44,455.86 C379.56,463.48 392.63,471.29 405,479 C428.29,493.54 452.98,510.16 475.49,525.82 " fill="none" id="Commit&lt;-CodeSmell" style="stroke: #A80036; stroke-width: 1.0;"/><polygon fill="#A80036" points="354.92,449.23,358.1256,455.6894,365.321,455.2149,362.1155,448.7554,354.92,449.23" style="stroke: #A80036; stroke-width: 1.0;"/><text fill="#000000" font-family="sans-serif" font-size="13" lengthAdjust="spacingAndGlyphs" textLength="8" x="358.9358" y="469.5399">1</text><text fill="#000000" font-family="sans-serif" font-size="13" lengthAdjust="spacingAndGlyphs" textLength="22" x="442.3372" y="515.289">0..*</text><!--MD5=[206697404f7d017fb43b138904bb0ce5]
reverse link Commit to File--><path d="M267.85,461.53 C292.59,547.72 333.45,698.36 357,830 C359.85,845.97 362.08,863.51 363.75,879.42 " fill="none" id="Commit&lt;-File" style="stroke: #A80036; stroke-width: 1.0;"/><polygon fill="#A80036" points="264.24,449.03,262.0588,455.9033,267.5645,460.5603,269.7457,453.687,264.24,449.03" style="stroke: #A80036; stroke-width: 1.0;"/><text fill="#000000" font-family="sans-serif" font-size="13" lengthAdjust="spacingAndGlyphs" textLength="8" x="257.7709" y="469.3167">1</text><text fill="#000000" font-family="sans-serif" font-size="13" lengthAdjust="spacingAndGlyphs" textLength="22" x="339.7008" y="868.9421">0..*</text><!--MD5=[64071156b5e8f3dff1ab06b8edd038d5]
reverse link Commit to CombinedFileDifference--><path d="M240,462.6 C232.3,541.41 220.24,664.84 214.4,724.67 " fill="none" id="Commit&lt;-CombinedFileDifference" style="stroke: #A80036; stroke-width: 1.0;"/><polygon fill="#A80036" points="241.29,449.39,236.7287,454.9752,240.1299,461.3338,244.6912,455.7486,241.29,449.39" style="stroke: #A80036; stroke-width: 1.0;"/><text fill="#000000" font-family="sans-serif" font-size="13" lengthAdjust="spacingAndGlyphs" textLength="8" x="232.228" y="469.2989">1</text><text fill="#000000" font-family="sans-serif" font-size="13" lengthAdjust="spacingAndGlyphs" textLength="22" x="190.9988" y="714.2782">0..*</text><!--MD5=[2f4d0e5ee126d8e20014160a7ca16fd5]
link CombinedFileDifference to File--><path d="M191.28,796.41 C184.82,812.77 181.46,831.92 191,847 C203.54,866.84 222.18,882.08 242.72,893.77 " fill="none" id="CombinedFileDifference-File" style="stroke: #A80036; stroke-width: 1.0;"/><text fill="#000000" font-family="sans-serif" font-size="13" lengthAdjust="spacingAndGlyphs" textLength="13" x="192" y="843.5684">of</text><polygon fill="#000000" points="194,852.3105,197,858.3105,200,852.3105,194,852.3105" style="stroke: #000000; stroke-width: 1.0;"/><text fill="#000000" font-family="sans-serif" font-size="13" lengthAdjust="spacingAndGlyphs" textLength="22" x="164" y="816.4663">0..*</text><text fill="#000000" font-family="sans-serif" font-size="13" lengthAdjust="spacingAndGlyphs" textLength="24" x="211.2125" y="888.8485">0..1</text><!--MD5=[2f4d0e5ee126d8e20014160a7ca16fd5]
link CombinedFileDifference to File--><path d="M226.35,796 C234.63,812.45 245.86,831.8 259,847 C268.92,858.48 280.62,869.43 292.62,879.41 " fill="none" id="CombinedFileDifference-File-1" style="stroke: #A80036; stroke-width: 1.0;"/><text fill="#000000" font-family="sans-serif" font-size="13" lengthAdjust="spacingAndGlyphs" textLength="79" x="260" y="843.5684">compared to</text><polygon fill="#000000" points="295,852.3105,298,858.3105,301,852.3105,295,852.3105" style="stroke: #000000; stroke-width: 1.0;"/><text fill="#000000" font-family="sans-serif" font-size="13" lengthAdjust="spacingAndGlyphs" textLength="22" x="205.152" y="816.5253">0..*</text><text fill="#000000" font-family="sans-serif" font-size="13" lengthAdjust="spacingAndGlyphs" textLength="22" x="259.0127" y="868.9308">0..*</text><!--MD5=[06c69e77ac539bf04b046e7f055fb30f]
link CombinedFileDifference to FileChangeKind--><path d="M150.79,796.24 C139.57,805.67 129.37,816.95 123,830 C116.79,842.7 114.78,857.42 114.96,871.62 " fill="none" id="CombinedFileDifference-&gt;FileChangeKind" style="stroke: #A80036; stroke-width: 1.0;"/><polygon fill="#A80036" points="115.11,876.83,118.8513,867.7194,114.9672,871.832,110.8546,867.9479,115.11,876.83" style="stroke: #A80036; stroke-width: 1.0;"/><text fill="#000000" font-family="sans-serif" font-size="13" lengthAdjust="spacingAndGlyphs" textLength="13" x="124" y="843.5684">of</text><polygon fill="#000000" points="126,852.3105,129,858.3105,132,852.3105,126,852.3105" style="stroke: #000000; stroke-width: 1.0;"/><!--MD5=[ba1351391f839140881fdf6c9fe08744]
link CodeSmell to Location--><path d="M549.62,644.26 C547.06,667.59 544.17,694.01 541.8,715.67 " fill="none" id="CodeSmell-&gt;Location" style="stroke: #A80036; stroke-width: 1.0;"/><polygon fill="#A80036" points="541.24,720.78,546.1933,712.2674,541.7828,715.8095,538.2406,711.399,541.24,720.78" style="stroke: #A80036; stroke-width: 1.0;"/><text fill="#000000" font-family="sans-serif" font-size="13" lengthAdjust="spacingAndGlyphs" textLength="12" x="547" y="687.5684">at</text><polygon fill="#000000" points="548.5,696.3105,551.5,702.3105,554.5,696.3105,548.5,696.3105" style="stroke: #000000; stroke-width: 1.0;"/><text fill="#000000" font-family="sans-serif" font-size="13" lengthAdjust="spacingAndGlyphs" textLength="24" x="523.4948" y="664.5733">1..n</text><text fill="#000000" font-family="sans-serif" font-size="13" lengthAdjust="spacingAndGlyphs" textLength="24" x="515.9063" y="710.2593">0..n</text><!--MD5=[7d9a2313ce146470dea6d4c236945239]
link Location to File--><path d="M498.22,800.39 C475.93,822.74 447.56,851.2 423,875.83 " fill="none" id="Location-&gt;File" style="stroke: #A80036; stroke-width: 1.0;"/><polygon fill="#A80036" points="419.4,879.44,428.5924,875.9045,422.9355,875.9045,422.9355,870.2476,419.4,879.44" style="stroke: #A80036; stroke-width: 1.0;"/><text fill="#000000" font-family="sans-serif" font-size="13" lengthAdjust="spacingAndGlyphs" textLength="12" x="469" y="843.5684">in</text><polygon fill="#000000" points="470.5,852.3105,473.5,858.3105,476.5,852.3105,470.5,852.3105" style="stroke: #000000; stroke-width: 1.0;"/><!--MD5=[bba504be18b0ca9902f2d4fdb48fd109]
link Location to Range--><path d="M546.86,800.39 C554.33,829.83 564.48,869.84 571.57,897.79 " fill="none" id="Location-&gt;Range" style="stroke: #A80036; stroke-width: 1.0;"/><polygon fill="#A80036" points="572.86,902.87,574.5309,893.1639,571.6339,898.0227,566.7752,895.1257,572.86,902.87" style="stroke: #A80036; stroke-width: 1.0;"/><text fill="#000000" font-family="sans-serif" font-size="13" lengthAdjust="spacingAndGlyphs" textLength="12" x="560" y="843.5684">at</text><polygon fill="#000000" points="561.5,852.3105,564.5,858.3105,567.5,852.3105,561.5,852.3105" style="stroke: #000000; stroke-width: 1.0;"/><!--MD5=[fea857486dbdc6b824b8831af24c592c]
link Range to Position--><path d="M550.96,961.28 C537.53,976.4 523.03,996.15 516,1017 C506.23,1045.95 515.7,1080 526.02,1104.51 " fill="none" id="Range-&gt;Position" style="stroke: #A80036; stroke-width: 1.0;"/><polygon fill="#A80036" points="528.09,1109.28,528.1843,1099.4316,526.1032,1104.6917,520.8431,1102.6105,528.09,1109.28" style="stroke: #A80036; stroke-width: 1.0;"/><text fill="#000000" font-family="sans-serif" font-size="13" lengthAdjust="spacingAndGlyphs" textLength="30" x="517" y="1030.5684">from</text><polygon fill="#000000" points="527.5,1039.3105,530.5,1045.3105,533.5,1039.3105,527.5,1039.3105" style="stroke: #000000; stroke-width: 1.0;"/><!--MD5=[fea857486dbdc6b824b8831af24c592c]
link Range to Position--><path d="M576.26,961.37 C573.47,981.66 569.4,1009.58 565,1034 C560.73,1057.67 555.07,1084.19 550.56,1104.46 " fill="none" id="Range-&gt;Position-1" style="stroke: #A80036; stroke-width: 1.0;"/><polygon fill="#A80036" points="549.44,1109.48,555.302,1101.5657,550.5277,1104.5997,547.4936,1099.8254,549.44,1109.48" style="stroke: #A80036; stroke-width: 1.0;"/><text fill="#000000" font-family="sans-serif" font-size="13" lengthAdjust="spacingAndGlyphs" textLength="13" x="569" y="1030.5684">to</text><polygon fill="#000000" points="571,1039.3105,574,1045.3105,577,1039.3105,571,1039.3105" style="stroke: #000000; stroke-width: 1.0;"/><!--MD5=[7613b5bb39efec6b4ed009dc07b12e35]
reverse link CodeSmellLifespan to CodeSmell--><path d="M573.65,462.3 C570.61,483.26 567.32,505.93 564.42,525.95 " fill="none" id="CodeSmellLifespan&lt;-CodeSmell" style="stroke: #A80036; stroke-width: 1.0;"/><polygon fill="#A80036" points="575.56,449.17,570.7375,454.5313,573.8315,461.0449,578.6541,455.6836,575.56,449.17" style="stroke: #A80036; stroke-width: 1.0;"/><text fill="#000000" font-family="sans-serif" font-size="13" lengthAdjust="spacingAndGlyphs" textLength="8" x="566.1216" y="469.4729">1</text><text fill="#000000" font-family="sans-serif" font-size="13" lengthAdjust="spacingAndGlyphs" textLength="24" x="539.9837" y="515.4348">1..n</text><!--MD5=[9371a73726d20c19e4b0ce090614fb4b]
reverse link File to CodeSmell--><path d="M505.48,879.04 C507.33,878.36 509.17,877.68 511,877 C547.79,863.4 559.26,865.21 594,847 C625.89,830.28 643.5,832.01 660,800 C686.97,747.68 651.69,687.3 615.1,644.04 " fill="none" id="File&lt;-CodeSmell" style="stroke: #A80036; stroke-width: 1.0;"/><polygon fill="#A80036" points="493.13,883.63,500.1476,885.2893,504.3784,879.4498,497.3608,877.7904,493.13,883.63" style="stroke: #A80036; stroke-width: 1.0;"/><polygon fill="#000000" points="692.5,763,695.5,757,698.5,763,692.5,763" style="stroke: #000000; stroke-width: 1.0;"/><text fill="#000000" font-family="sans-serif" font-size="13" lengthAdjust="spacingAndGlyphs" textLength="54" x="670" y="778.5684">contains</text><text fill="#000000" font-family="sans-serif" font-size="13" lengthAdjust="spacingAndGlyphs" textLength="22" x="501" y="877.98">1..*</text><text fill="#000000" font-family="sans-serif" font-size="13" lengthAdjust="spacingAndGlyphs" textLength="22" x="598.6616" y="664.3279">0..*</text><!--MD5=[299d3f69215aef695c971cdc18b67a32]
link File to LineCounts--><path d="M368,984.6 C368,1007.03 368,1033.8 368,1058.63 " fill="none" id="File-&gt;LineCounts" style="stroke: #A80036; stroke-width: 1.0;"/><polygon fill="#A80036" points="368,1063.9,372,1054.9,368,1058.9,364,1054.9,368,1063.9" style="stroke: #A80036; stroke-width: 1.0;"/><text fill="#000000" font-family="sans-serif" font-size="13" lengthAdjust="spacingAndGlyphs" textLength="22" x="369" y="1030.5684">has</text><polygon fill="#000000" points="375.5,1039.3105,378.5,1045.3105,381.5,1039.3105,375.5,1039.3105" style="stroke: #000000; stroke-width: 1.0;"/><!--MD5=[d19825e44517e95c2be8c8cea60152e4]
link Relay.Connection to Relay.Edge--><path d="M739.45,117.09 C723.71,138.62 701.96,168.35 685.52,190.84 " fill="none" id="Relay.Connection-&gt;Relay.Edge" style="stroke: #A80036; stroke-width: 1.0;"/><polygon fill="#A80036" points="682.51,194.95,691.0406,190.0276,685.4526,190.9076,684.5726,185.3196,682.51,194.95" style="stroke: #A80036; stroke-width: 1.0;"/><!--MD5=[f9adffbad04fd0d7decf6dc891dbb163]
link Relay.Connection to Relay.PageInfo--><path d="M775.09,117.09 C785.48,136.44 799.44,162.4 810.92,183.78 " fill="none" id="Relay.Connection-&gt;Relay.PageInfo" style="stroke: #A80036; stroke-width: 1.0;"/><polygon fill="#A80036" points="813.34,188.27,812.5912,178.4496,810.9678,183.8686,805.5489,182.2452,813.34,188.27" style="stroke: #A80036; stroke-width: 1.0;"/><!--MD5=[235a9c4d09f75436c46b5a35717616ee]
@startuml graphql
hide circle
hide empty members

class Query {
  {method} +repository(name: String!): Repository
  {method} +repositories: Connection<Repository>!
}
Query - -> Repository

class Repository {
  +name: String!
  {method} +commit(oid: String!): Commit
  {method} +commits: Connection<Commit>!
  {method} +codeSmellLifespans: Connection<CodeSmellLifespan>!
}
Repository "1" *- - "0..*" Commit
Repository "1" *- - "0..*" CodeSmellLifespan

class Commit {
  +oid: String!
  +committer: Signature!
  +author: Signature!
  {method} +combinedFileDifferencees: Connection<CombinedFileDifference>!
  {method} +codeSmells: Connection<CodeSmell>!
  {method} +files: Connection<File>!
}
Commit - -> Signature : committed by >
Commit - -> Signature : authored by >
Commit "1" *- - "0..*" CodeSmell
Commit "1" *- - "0..*" File
Commit "1" *- - "0..*" CombinedFileDifference

class CombinedFileDifference {
  +changeKinds: [FileChangeKind!]!
  +headFile: File
  +baseFiles: [File]!
}
CombinedFileDifference "0..*" - - "0..1" File : of >
CombinedFileDifference "0..*" - - "0..*" File : compared to >
CombinedFileDifference - -> FileChangeKind : of >

enum FileChangeKind {
  ADDED
  COPIED
  DELETED
  MODIFIED
  RENAMED
  TYPE_CHANGED
}

class Signature {
  +name: String!
  +email: String!
  +date: String!
}

class CodeSmell {
  +id: ID!
  +message: String!
  +commit: Commit!
  +locations: [Location!]!
  +ordinal: Int!
  {method} +lifespan: CodeSmellLifespan!
}
CodeSmell "1..n" - -> "0..n" Location : at >

class Location {
  +file: File!
  +range: Range!
  +contents(encoding: String): String!
}
Location - -> File : in >
Location - -> Range : at >
class Range {
  +start: Position!
  +end: Position!
}
Range - -> Position : from >
Range - -> Position : to >
class Position {
  +line: Int!
  +character: Int!
}

class CodeSmellLifespan {
  +id: ID!
  +kind: String!
  +repository: Repository!
  +duration: String!
  +interval: String!
  {method} +instances: Connection<CodeSmell>!
}
CodeSmellLifespan "1" *- - "1..n" CodeSmell

class LineCounts {
  +total: Int!
  +source: Int
  +comment: Int
  +single: Int
  +block: Int
  +mixed: Int
  +blockEmpty: Int
  +empty: Int
  +todo: Int
}

class File {
  +path: String!
  +linesCount: Int!
  +content(encoding: String): String!
  +lineCounts(encoding: String): LineCounts!
  {method} +codeSmells: Connection<CodeSmell>!
}
File "1..*" *- - "0..*" CodeSmell : contains >
File - -> LineCounts : has >

namespace Relay {
  interface Connection<TNode> {
    +pageInfo: PageInfo!
    +edges: [Edge<TNode>!]!
  }
  Connection - -> Edge
  Connection - -> PageInfo
  class PageInfo {
    +endCursor: String!
    +hasNextPage: Boolean!
    +hasPreviousPage: Boolean!
  }
  interface Edge<TNode> {
    +node: TNode!
    +cursor: String!
  }
}
@enduml

PlantUML version 1.2019.13(Tue Dec 10 18:18:29 CET 2019)
(GPL source distribution)
Java Runtime: Java(TM) SE Runtime Environment
JVM: Java HotSpot(TM) 64-Bit Server VM
Java Version: 13.0.1+9
Operating System: Mac OS X
Default Encoding: UTF-8
Language: en
Country: US
--></g></svg>